900-italicGF.ufo
<glyph name="period" format="1">
  <advance width="326"/>
  <unicode hex="002E"/>
  <outline>
    <contour>
      <point x="37.5" y="85" type="curve" smooth="yes"/>
      <point x="37.5" y="148"/>
      <point x="85.5" y="200"/>
      <point x="155.5" y="200" type="curve" smooth="yes"/>
      <point x="225.5" y="200"/>
      <point x="273.5" y="148"/>
      <point x="273.5" y="85" type="curve" smooth="yes"/>
      <point x="273.5" y="22"/>
      <point x="225.5" y="-30"/>
      <point x="155.5" y="-30" type="curve" smooth="yes"/>
      <point x="85.5" y="-30"/>
      <point x="37.5" y="22"/>
    </contour>
  </outline>
</glyph>
<glyph name="slash" format="1">
  <advance width="645"/>
  <unicode hex="002F"/>
  <outline>
    <contour>
      <point x="539.5" y="699.5" type="line"/>
      <point x="727.5" y="699.5" type="line"/>
      <point x="155" y="-149.5" type="line"/>
      <point x="-42.5" y="-149.5" type="line"/>
    </contour>
  </outline>
</glyph>
<glyph name="two" format="1">
  <advance width="688"/>
  <unicode hex="0032"/>
  <outline>
    <contour>
      <point x="-2.5" y="0" type="line"/>
      <point x="336.5" y="305" type="line" smooth="yes"/>
      <point x="393.5" y="359.5"/>
      <point x="454" y="403.5"/>
      <point x="463" y="465.5" type="curve" smooth="yes"/>
      <point x="467" y="499"/>
      <point x="451.5" y="529.5"/>
      <point x="408" y="530.5" type="curve" smooth="yes"/>
      <point x="355" y="532.5"/>
      <point x="320.5" y="479"/>
      <point x="310" y="430" type="curve"/>
      <point x="98" y="430.5" type="line"/>
      <point x="124" y="585"/>
      <point x="244" y="716.5"/>
      <point x="434" y="716" type="curve" smooth="yes"/>
      <point x="592" y="716"/>
      <point x="707" y="611"/>
      <point x="688" y="480.5" type="curve" smooth="yes"/>
      <point x="677.5" y="402.5"/>
      <point x="625" y="344"/>
      <point x="560.5" y="297" type="curve" smooth="yes"/>
      <point x="423.5" y="200.5" type="line"/>
      <point x="669.5" y="200" type="line"/>
      <point x="638.5" y="0" type="line"/>
    </contour>
  </outline>
</glyph>
<glyph name="three" format="1">
  <advance width="646"/>
  <unicode hex="0033"/>
  <outline>
    <contour>
      <point x="314" y="335.5" type="curve"/>
      <point x="326" y="423.5" type="line"/>
      <point x="383" y="427"/>
      <point x="454" y="453"/>
      <point x="458.5" y="501.5" type="curve" smooth="yes"/>
      <point x="460.5" y="527.5"/>
      <point x="441.5" y="544"/>
      <point x="408" y="544.5" type="curve" smooth="yes"/>
      <point x="363.5" y="546"/>
      <point x="333.5" y="513"/>
      <point x="323" y="476" type="curve"/>
      <point x="124.5" y="477" type="line"/>
      <point x="149" y="614"/>
      <point x="264.5" y="714.5"/>
      <point x="425" y="715" type="curve" smooth="yes"/>
      <point x="573" y="715.5"/>
      <point x="689.5" y="641"/>
      <point x="671.5" y="515.5" type="curve" smooth="yes"/>
      <point x="650.5" y="368.5"/>
      <point x="474.5" y="336.5"/>
    </contour>
    <contour>
      <point x="313.5" y="-20" type="curve" smooth="yes"/>
      <point x="140.5" y="-19"/>
      <point x="45.5" y="103.5"/>
      <point x="57" y="245" type="curve"/>
      <point x="266.5" y="244.5" type="line"/>
      <point x="264" y="186.5"/>
      <point x="288.5" y="152.5"/>
      <point x="339" y="150.5" type="curve" smooth="yes"/>
      <point x="382.5" y="149"/>
      <point x="425.5" y="170"/>
      <point x="432.5" y="216" type="curve" smooth="yes"/>
      <point x="444.5" y="271"/>
      <point x="387" y="293"/>
      <point x="308.5" y="295" type="curve"/>
      <point x="322.5" y="398.5" type="line"/>
      <point x="492" y="397"/>
      <point x="663" y="352.5"/>
      <point x="641" y="194.5" type="curve" smooth="yes"/>
      <point x="622" y="58"/>
      <point x="483.5" y="-21"/>
    </contour>
  </outline>
</glyph>
<glyph name="four" format="1">
  <advance width="745"/>
  <unicode hex="0034"/>
  <outline>
    <contour>
      <point x="-2.5" y="115.5" type="line"/>
      <point x="503" y="699.5" type="line"/>
      <point x="684.5" y="700" type="line"/>
      <point x="564.5" y="0" type="line"/>
      <point x="337.5" y="0" type="line"/>
      <point x="367" y="175.5" type="line"/>
      <point x="398" y="186.5" type="line"/>
      <point x="436.5" y="411.5" type="line"/>
      <point x="299.567" y="265.5" type="line"/>
      <point x="553.5" y="265.5" type="line"/>
      <point x="576.5" y="300" type="line"/>
      <point x="723" y="300" type="line"/>
      <point x="690.5" y="115" type="line"/>
    </contour>
  </outline>
</glyph>
<glyph name="six" format="1">
  <advance width="704"/>
  <unicode hex="0036"/>
  <outline>
    <contour>
      <point x="283.5" y="254.5" type="curve" smooth="yes"/>
      <point x="276" y="205"/>
      <point x="305.5" y="166.5"/>
      <point x="356.5" y="165.5" type="curve" smooth="yes"/>
      <point x="409" y="164.5"/>
      <point x="457.5" y="204"/>
      <point x="465.5" y="255.5" type="curve" smooth="yes"/>
      <point x="473" y="304.5"/>
      <point x="443.5" y="345.5"/>
      <point x="392.5" y="346.5" type="curve" smooth="yes"/>
      <point x="340" y="347.5"/>
      <point x="291.5" y="306.5"/>
    </contour>
    <contour>
      <point x="410.5" y="694.5" type="line"/>
      <point x="691" y="694.5" type="line"/>
      <point x="430" y="465.5" type="line"/>
      <point x="372" y="438.5" type="line"/>
      <point x="412" y="469"/>
      <point x="444" y="482.5"/>
      <point x="492.5" y="482.5" type="curve" smooth="yes"/>
      <point x="603.5" y="482.5"/>
      <point x="693.5" y="384"/>
      <point x="679.5" y="255" type="curve" smooth="yes"/>
      <point x="658.5" y="78"/>
      <point x="506" y="-20"/>
      <point x="337.5" y="-20" type="curve" smooth="yes"/>
      <point x="173" y="-20"/>
      <point x="46.5" y="80"/>
      <point x="69" y="255" type="curve" smooth="yes"/>
      <point x="81.5" y="344"/>
      <point x="139.5" y="415"/>
      <point x="201.5" y="480" type="curve" smooth="yes"/>
    </contour>
  </outline>
</glyph>
<glyph name="eight" format="1">
  <advance width="656"/>
  <unicode hex="0038"/>
  <outline>
    <contour>
      <point x="135" y="531.5" type="curve" smooth="yes"/>
      <point x="153.5" y="660"/>
      <point x="286" y="720"/>
      <point x="417.5" y="720" type="curve" smooth="yes"/>
      <point x="543" y="720"/>
      <point x="666.5" y="660"/>
      <point x="648" y="530.5" type="curve" smooth="yes"/>
      <point x="630" y="397.5"/>
      <point x="483" y="335"/>
      <point x="364" y="335" type="curve" smooth="yes"/>
      <point x="251" y="335"/>
      <point x="117" y="398.5"/>
    </contour>
    <contour>
      <point x="333" y="510" type="curve" smooth="yes"/>
      <point x="329" y="480.5"/>
      <point x="342" y="450.5"/>
      <point x="374" y="450.5" type="curve" smooth="yes"/>
      <point x="412" y="450.5"/>
      <point x="439" y="480.5"/>
      <point x="443.5" y="512" type="curve" smooth="yes"/>
      <point x="447.5" y="542"/>
      <point x="433.5" y="569.5"/>
      <point x="401.5" y="569.5" type="curve" smooth="yes"/>
      <point x="363.5" y="569.5"/>
      <point x="337.5" y="541.5"/>
    </contour>
    <contour>
      <point x="52.5" y="190.5" type="curve" smooth="yes"/>
      <point x="72.5" y="339.5"/>
      <point x="238" y="400"/>
      <point x="363" y="400" type="curve" smooth="yes"/>
      <point x="480.5" y="400"/>
      <point x="634.5" y="339"/>
      <point x="614.5" y="189.5" type="curve" smooth="yes"/>
      <point x="594.5" y="51"/>
      <point x="443" y="-20"/>
      <point x="303.5" y="-20" type="curve" smooth="yes"/>
      <point x="171" y="-20"/>
      <point x="32.5" y="51.5"/>
    </contour>
    <contour>
      <point x="274.5" y="224" type="curve" smooth="yes"/>
      <point x="269" y="186.5"/>
      <point x="285.5" y="155.5"/>
      <point x="323.5" y="155.5" type="curve" smooth="yes"/>
      <point x="367.5" y="155.5"/>
      <point x="398.5" y="186"/>
      <point x="404.5" y="226" type="curve" smooth="yes"/>
      <point x="409" y="258"/>
      <point x="390.5" y="289.5"/>
      <point x="354" y="289.5" type="curve" smooth="yes"/>
      <point x="311" y="289.5"/>
      <point x="281" y="258"/>
    </contour>
  </outline>
</glyph>
<glyph name="question" format="1">
  <advance width="649"/>
  <unicode hex="003F"/>
  <outline>
    <contour>
      <point x="468.5" y="500.5" type="curve" smooth="yes"/>
      <point x="475" y="542"/>
      <point x="444.5" y="563.5"/>
      <point x="395.5" y="564.5" type="curve" smooth="yes"/>
      <point x="332" y="566.5"/>
      <point x="265" y="527"/>
      <point x="219" y="476" type="curve"/>
      <point x="110.5" y="589" type="line"/>
      <point x="199.5" y="670"/>
      <point x="302" y="725.5"/>
      <point x="421.5" y="725" type="curve" smooth="yes"/>
      <point x="552.5" y="724.5"/>
      <point x="680.5" y="642"/>
      <point x="660.5" y="499.5" type="curve" smooth="yes"/>
      <point x="642.5" y="374.631"/>
      <point x="526.824" y="310.632"/>
      <point x="417.727" y="282.09" type="curve"/>
      <point x="403" y="220" type="line"/>
      <point x="241.5" y="220" type="line"/>
      <point x="251.5" y="400" type="line"/>
      <point x="285" y="400" type="line" smooth="yes"/>
      <point x="377.5" y="401.5"/>
      <point x="457" y="446"/>
    </contour>
    <contour>
      <point x="174.5" y="71" type="curve" smooth="yes"/>
      <point x="174.5" y="125.5"/>
      <point x="224.5" y="169.5"/>
      <point x="290" y="169.5" type="curve" smooth="yes"/>
      <point x="355.5" y="169.5"/>
      <point x="406" y="126.5"/>
      <point x="406" y="71" type="curve" smooth="yes"/>
      <point x="406" y="15.5"/>
      <point x="355.5" y="-29.5"/>
      <point x="290" y="-29.5" type="curve" smooth="yes"/>
      <point x="224.5" y="-29.5"/>
      <point x="174.5" y="14.5"/>
    </contour>
  </outline>
</glyph>
<glyph name="D" format="1">
  <advance width="742"/>
  <unicode hex="0044"/>
  <outline>
    <contour>
      <point x="159" y="700" type="line"/>
      <point x="384.5" y="700" type="line"/>
      <point x="264.5" y="0" type="line"/>
      <point x="39" y="0" type="line"/>
    </contour>
    <contour>
      <point x="313.5" y="0" type="curve" smooth="yes"/>
      <point x="186" y="0" type="line"/>
      <point x="219.5" y="190" type="line"/>
      <point x="324.5" y="190" type="line" smooth="yes"/>
      <point x="415.5" y="190"/>
      <point x="502.5" y="230"/>
      <point x="521.5" y="350" type="curve" smooth="yes"/>
      <point x="539" y="466"/>
      <point x="479" y="510.5"/>
      <point x="390.5" y="510.5" type="curve" smooth="yes"/>
      <point x="273" y="510.5" type="line"/>
      <point x="306.5" y="700" type="line"/>
      <point x="421" y="700" type="line" smooth="yes"/>
      <point x="645.5" y="700"/>
      <point x="779" y="560.5"/>
      <point x="747.5" y="350" type="curve" smooth="yes"/>
      <point x="715" y="135"/>
      <point x="544.5" y="0"/>
    </contour>
  </outline>
</glyph>
<glyph name="G" format="1">
  <advance width="813"/>
  <unicode hex="0047"/>
  <outline>
    <contour>
      <point x="428.5" y="240" type="line"/>
      <point x="457" y="399.5" type="line"/>
      <point x="818" y="399.5" type="line"/>
      <point x="800" y="168.5"/>
      <point x="655.5" y="-30"/>
      <point x="396.5" y="-30" type="curve" smooth="yes"/>
      <point x="171.5" y="-30"/>
      <point x="29" y="136.5"/>
      <point x="60" y="350" type="curve" smooth="yes"/>
      <point x="93.5" y="571"/>
      <point x="287.5" y="720"/>
      <point x="516.5" y="720" type="curve" smooth="yes"/>
      <point x="659" y="720"/>
      <point x="753" y="645.5"/>
      <point x="815.5" y="542.5" type="curve"/>
      <point x="604" y="452" type="line"/>
      <point x="585" y="497"/>
      <point x="557" y="534.5"/>
      <point x="497" y="534.5" type="curve" smooth="yes"/>
      <point x="394" y="534.5"/>
      <point x="304.5" y="458.5"/>
      <point x="286" y="350" type="curve" smooth="yes"/>
      <point x="269.5" y="246"/>
      <point x="311.5" y="155.5"/>
      <point x="420.5" y="155.5" type="curve" smooth="yes"/>
      <point x="497.312" y="155.5"/>
      <point x="542.725" y="185.618"/>
      <point x="574.822" y="240" type="curve"/>
    </contour>
  </outline>
</glyph>
<glyph name="J" format="1">
  <advance width="373"/>
  <unicode hex="004A"/>
  <outline>
    <contour>
      <point x="-112" y="-39.5" type="line"/>
      <point x="-90.5" y="-54"/>
      <point x="-63.5" y="-71"/>
      <point x="-38" y="-70.5" type="curve" smooth="yes"/>
      <point x="-2" y="-70"/>
      <point x="32.5" y="-40.5"/>
      <point x="39" y="5.5" type="curve" smooth="yes"/>
      <point x="159" y="700" type="line"/>
      <point x="400" y="700" type="line"/>
      <point x="272.5" y="-50.5" type="line" smooth="yes"/>
      <point x="249" y="-193.5"/>
      <point x="113.5" y="-250"/>
      <point x="-28" y="-250" type="curve" smooth="yes"/>
      <point x="-113" y="-250"/>
      <point x="-190" y="-222"/>
      <point x="-250.5" y="-188" type="curve"/>
    </contour>
  </outline>
</glyph>
<glyph name="S" format="1">
  <advance width="652"/>
  <unicode hex="0053"/>
  <outline>
    <contour>
      <point x="186.5" y="266" type="line"/>
      <point x="217" y="203.5"/>
      <point x="261.5" y="156"/>
      <point x="326" y="156.5" type="curve" smooth="yes"/>
      <point x="358" y="156.5"/>
      <point x="392" y="169"/>
      <point x="398.5" y="199.5" type="curve" smooth="yes"/>
      <point x="408.5" y="236.5"/>
      <point x="360.5" y="251"/>
      <point x="289" y="280" type="curve" smooth="yes"/>
      <point x="209.5" y="315"/>
      <point x="120" y="388"/>
      <point x="135" y="510" type="curve" smooth="yes"/>
      <point x="155" y="647"/>
      <point x="294" y="720.5"/>
      <point x="434" y="720" type="curve" smooth="yes"/>
      <point x="567" y="719.5"/>
      <point x="648" y="648"/>
      <point x="684" y="562.5" type="curve"/>
      <point x="514" y="474.5" type="line"/>
      <point x="489" y="516"/>
      <point x="458.5" y="540"/>
      <point x="418" y="540" type="curve" smooth="yes"/>
      <point x="390.5" y="540"/>
      <point x="359.5" y="529"/>
      <point x="353.5" y="505.5" type="curve" smooth="yes"/>
      <point x="342.5" y="461.5"/>
      <point x="431" y="443"/>
      <point x="485" y="423" type="curve" smooth="yes"/>
      <point x="587.5" y="383.5"/>
      <point x="641" y="304.5"/>
      <point x="626.5" y="202" type="curve" smooth="yes"/>
      <point x="604.5" y="51"/>
      <point x="458" y="-30.5"/>
      <point x="312.5" y="-30" type="curve" smooth="yes"/>
      <point x="176" y="-29.5"/>
      <point x="66" y="47"/>
      <point x="27.5" y="159.5" type="curve"/>
    </contour>
  </outline>
</glyph>
<glyph name="bracketright" format="1">
  <advance width="388"/>
  <unicode hex="005D"/>
  <outline>
    <contour>
      <point x="90.5" y="-55" type="line"/>
      <point x="193.5" y="615" type="line"/>
      <point x="95" y="615" type="line"/>
      <point x="121" y="780" type="line"/>
      <point x="410.5" y="780" type="line"/>
      <point x="256" y="-220" type="line"/>
      <point x="-33.5" y="-220" type="line"/>
      <point x="-7.5" y="-55" type="line"/>
    </contour>
  </outline>
</glyph>
<glyph name="underscore" format="1">
  <advance width="533"/>
  <unicode hex="005F"/>
  <outline>
    <contour>
      <point x="-57.5" y="-166" type="line"/>
      <point x="-36" y="-45" type="line"/>
      <point x="501" y="-45" type="line"/>
      <point x="479.5" y="-166" type="line"/>
    </contour>
  </outline>
</glyph>
<glyph name="a" format="1">
  <advance width="559"/>
  <unicode hex="0061"/>
  <outline>
    <contour>
      <point x="206" y="141" type="curve" smooth="yes"/>
      <point x="204.5" y="119"/>
      <point x="222.5" y="107.5"/>
      <point x="242" y="106.5" type="curve" smooth="yes"/>
      <point x="287" y="104"/>
      <point x="324" y="141"/>
      <point x="336.5" y="189.5" type="curve"/>
      <point x="343.5" y="129" type="line"/>
      <point x="325" y="44"/>
      <point x="254.5" y="-9"/>
      <point x="161" y="-9.5" type="curve" smooth="yes"/>
      <point x="74" y="-10"/>
      <point x="0.5" y="40.5"/>
      <point x="13" y="132.5" type="curve" smooth="yes"/>
      <point x="27" y="225"/>
      <point x="113.5" y="274"/>
      <point x="218.5" y="274.5" type="curve" smooth="yes"/>
      <point x="281" y="275"/>
      <point x="340" y="259.5"/>
      <point x="377" y="228.5" type="curve"/>
      <point x="364.5" y="147.5" type="line"/>
      <point x="340.5" y="167.5"/>
      <point x="308" y="180.5"/>
      <point x="271" y="180" type="curve" smooth="yes"/>
      <point x="236.5" y="179.5"/>
      <point x="208" y="167"/>
    </contour>
    <contour>
      <point x="141" y="297.5" type="curve"/>
      <point x="100.5" y="425" type="line"/>
      <point x="169" y="450.5"/>
      <point x="248.5" y="475"/>
      <point x="331.5" y="475" type="curve" smooth="yes"/>
      <point x="443" y="475"/>
      <point x="553" y="427"/>
      <point x="539.5" y="320" type="curve"/>
      <point x="485.5" y="0" type="line"/>
      <point x="302.5" y="0" type="line"/>
      <point x="352" y="272.5" type="line"/>
      <point x="356" y="307"/>
      <point x="339.5" y="329.5"/>
      <point x="293.5" y="332" type="curve" smooth="yes"/>
      <point x="239.5" y="335.5"/>
      <point x="173.5" y="311"/>
    </contour>
  </outline>
</glyph>
<glyph name="b" format="1">
  <advance width="625"/>
  <unicode hex="0062"/>
  <outline>
    <contour>
      <point x="346" y="780" type="line"/>
      <point x="212" y="0" type="line"/>
      <point x="19.5" y="0" type="line"/>
      <point x="153" y="780" type="line"/>
    </contour>
    <contour>
      <point x="610.5" y="229.5" type="curve" smooth="yes"/>
      <point x="593" y="91.5"/>
      <point x="485.5" y="-10"/>
      <point x="367.5" y="-10" type="curve" smooth="yes"/>
      <point x="244" y="-10"/>
      <point x="189.5" y="104.5"/>
      <point x="205" y="230.5" type="curve" smooth="yes"/>
      <point x="222.5" y="362.5"/>
      <point x="315" y="469.5"/>
      <point x="437.5" y="469.5" type="curve" smooth="yes"/>
      <point x="556" y="469.5"/>
      <point x="626.5" y="362.5"/>
    </contour>
    <contour>
      <point x="409" y="230.5" type="curve" smooth="yes"/>
      <point x="415.5" y="273"/>
      <point x="394" y="318"/>
      <point x="349" y="319.5" type="curve" smooth="yes"/>
      <point x="305" y="321"/>
      <point x="259.5" y="278"/>
      <point x="251.5" y="229.5" type="curve" smooth="yes"/>
      <point x="245" y="184.5"/>
      <point x="267.5" y="142"/>
      <point x="310" y="140.5" type="curve" smooth="yes"/>
      <point x="356.5" y="139"/>
      <point x="401" y="184.5"/>
    </contour>
  </outline>
</glyph>
<glyph name="c" format="1">
  <advance width="480"/>
  <unicode hex="0063"/>
  <outline>
    <contour>
      <point x="235.9" y="229.5" type="curve" smooth="yes"/>
      <point x="227.4" y="175"/>
      <point x="263.4" y="140.5"/>
      <point x="315.9" y="139" type="curve" smooth="yes"/>
      <point x="363.4" y="137.5"/>
      <point x="409.4" y="161.5"/>
      <point x="444.4" y="196.5" type="curve"/>
      <point x="421.9" y="21" type="line"/>
      <point x="383.9" y="2.5"/>
      <point x="343.9" y="-10"/>
      <point x="283.4" y="-10" type="curve" smooth="yes"/>
      <point x="131.9" y="-10"/>
      <point x="19.8999" y="84.5"/>
      <point x="38.8999" y="230.5" type="curve" smooth="yes"/>
      <point x="58.3999" y="378"/>
      <point x="190.9" y="470"/>
      <point x="346.9" y="470" type="curve" smooth="yes"/>
      <point x="406.9" y="470"/>
      <point x="445.4" y="456.5"/>
      <point x="482.9" y="440.5" type="curve"/>
      <point x="459.4" y="264" type="line"/>
      <point x="432.4" y="302"/>
      <point x="391.9" y="322"/>
      <point x="353.4" y="322" type="curve" smooth="yes"/>
      <point x="294.4" y="322"/>
      <point x="244.9" y="280.5"/>
    </contour>
  </outline>
</glyph>
<glyph name="k" format="1">
  <advance width="640"/>
  <unicode hex="006B"/>
  <outline>
    <contour>
      <point x="153" y="780" type="line"/>
      <point x="336" y="780" type="line"/>
      <point x="202.5" y="0" type="line"/>
      <point x="19.5" y="0" type="line"/>
    </contour>
    <contour>
      <point x="435.5" y="459.5" type="line"/>
      <point x="668.5" y="459.5" type="line"/>
      <point x="440" y="266" type="line"/>
      <point x="601" y="0" type="line"/>
      <point x="388" y="0" type="line"/>
      <point x="219" y="275" type="line"/>
    </contour>
  </outline>
</glyph>
<glyph name="m" format="1">
  <advance width="820"/>
  <unicode hex="006D"/>
  <outline>
    <contour>
      <point x="796.5" y="300" type="curve" smooth="yes"/>
      <point x="746" y="0" type="line"/>
      <point x="553" y="0" type="line"/>
      <point x="603.5" y="280" type="line" smooth="yes"/>
      <point x="606" y="309"/>
      <point x="607.5" y="345"/>
      <point x="578.5" y="345" type="curve" smooth="yes"/>
      <point x="551" y="345"/>
      <point x="527.519" y="322.988"/>
      <point x="521" y="280.5" type="curve" smooth="yes"/>
      <point x="474" y="0" type="line"/>
      <point x="281" y="0" type="line"/>
      <point x="332" y="280.5" type="line" smooth="yes"/>
      <point x="334.5" y="309.5"/>
      <point x="335" y="345"/>
      <point x="306.5" y="345" type="curve" smooth="yes"/>
      <point x="280" y="345"/>
      <point x="257.649" y="323.433"/>
      <point x="252" y="284" type="curve" smooth="yes"/>
      <point x="202.5" y="0" type="line"/>
      <point x="19.5" y="0" type="line"/>
      <point x="98.5" y="460" type="line"/>
      <point x="281.5" y="460" type="line"/>
      <point x="272" y="397.5" type="line"/>
      <point x="302" y="441"/>
      <point x="346.5" y="470.5"/>
      <point x="409" y="471" type="curve" smooth="yes"/>
      <point x="480.5" y="471.5"/>
      <point x="514" y="444"/>
      <point x="525" y="398" type="curve"/>
      <point x="563" y="442"/>
      <point x="616.5" y="470.5"/>
      <point x="680.5" y="471" type="curve" smooth="yes"/>
      <point x="791.5" y="471.5"/>
      <point x="809" y="396.5"/>
    </contour>
  </outline>
</glyph>
<glyph name="n" format="1">
  <advance width="587"/>
  <unicode hex="006E"/>
  <outline>
    <contour>
      <point x="361" y="280" type="line" smooth="yes"/>
      <point x="364.812" y="311.068"/>
      <point x="365" y="345"/>
      <point x="324" y="345" type="curve" smooth="yes"/>
      <point x="288.549" y="345"/>
      <point x="266.666" y="321.927"/>
      <point x="260.5" y="281" type="curve" smooth="yes"/>
      <point x="212" y="0" type="line"/>
      <point x="19.5" y="0" type="line"/>
      <point x="98.5" y="460" type="line"/>
      <point x="291" y="460" type="line"/>
      <point x="281.5" y="398.5" type="line"/>
      <point x="311.5" y="441.5"/>
      <point x="357" y="470.5"/>
      <point x="423" y="471" type="curve" smooth="yes"/>
      <point x="539.5" y="472"/>
      <point x="579" y="400.5"/>
      <point x="563.5" y="300" type="curve" smooth="yes"/>
      <point x="513" y="0" type="line"/>
      <point x="310.5" y="0" type="line"/>
    </contour>
  </outline>
</glyph>
<glyph name="o" format="1">
  <advance width="597"/>
  <unicode hex="006F"/>
  <outline>
    <contour>
      <point x="46" y="230.5" type="curve" smooth="yes"/>
      <point x="65" y="376.5"/>
      <point x="196" y="471"/>
      <point x="348.5" y="471" type="curve" smooth="yes"/>
      <point x="497.5" y="471"/>
      <point x="607" y="374"/>
      <point x="588.5" y="229.5" type="curve" smooth="yes"/>
      <point x="569.5" y="83.5"/>
      <point x="438.5" y="-10"/>
      <point x="286" y="-10" type="curve" smooth="yes"/>
      <point x="137.5" y="-10"/>
      <point x="27.5" y="86"/>
    </contour>
    <contour>
      <point x="243" y="229.5" type="curve" smooth="yes"/>
      <point x="237" y="184.5"/>
      <point x="258" y="147"/>
      <point x="300" y="145.5" type="curve" smooth="yes"/>
      <point x="343" y="144"/>
      <point x="384.5" y="182.5"/>
      <point x="391.5" y="230.5" type="curve" smooth="yes"/>
      <point x="397.5" y="275.5"/>
      <point x="376.5" y="314"/>
      <point x="334.5" y="315.5" type="curve" smooth="yes"/>
      <point x="291.5" y="317"/>
      <point x="250" y="277.5"/>
    </contour>
  </outline>
</glyph>
<glyph name="s" format="1">
  <advance width="473"/>
  <unicode hex="0073"/>
  <outline>
    <contour>
      <point x="82.5" y="182.5" type="line"/>
      <point x="148.5" y="132"/>
      <point x="201" y="106"/>
      <point x="236.5" y="110" type="curve" smooth="yes"/>
      <point x="253" y="111"/>
      <point x="268.5" y="121.5"/>
      <point x="270" y="134.5" type="curve" smooth="yes"/>
      <point x="273.5" y="160"/>
      <point x="243.5" y="168"/>
      <point x="190.5" y="185.5" type="curve" smooth="yes"/>
      <point x="124.5" y="209"/>
      <point x="74" y="253.5"/>
      <point x="83.5" y="334.5" type="curve" smooth="yes"/>
      <point x="96" y="423.5"/>
      <point x="180" y="469"/>
      <point x="281" y="469.5" type="curve" smooth="yes"/>
      <point x="358" y="470"/>
      <point x="423" y="444.5"/>
      <point x="488" y="413.5" type="curve"/>
      <point x="424" y="283" type="line"/>
      <point x="386" y="317"/>
      <point x="335.5" y="346"/>
      <point x="293.5" y="346" type="curve" smooth="yes"/>
      <point x="275" y="346"/>
      <point x="258.5" y="337.5"/>
      <point x="256" y="326" type="curve" smooth="yes"/>
      <point x="249.5" y="295.5"/>
      <point x="302.5" y="289"/>
      <point x="352" y="270.5" type="curve" smooth="yes"/>
      <point x="415" y="246"/>
      <point x="466.5" y="207"/>
      <point x="458.5" y="129.5" type="curve" smooth="yes"/>
      <point x="446.5" y="25"/>
      <point x="369" y="-23.5"/>
      <point x="261" y="-24.5" type="curve" smooth="yes"/>
      <point x="164.5" y="-25.5"/>
      <point x="83.5" y="3.5"/>
      <point x="4" y="47.5" type="curve"/>
    </contour>
  </outline>
</glyph>
<glyph name="u" format="1">
  <advance width="587"/>
  <unicode hex="0075"/>
  <outline>
    <contour>
      <point x="250.5" y="180" type="line" smooth="yes"/>
      <point x="246.644" y="148.809"/>
      <point x="245.508" y="115"/>
      <point x="282" y="115" type="curve" smooth="yes"/>
      <point x="316.5" y="115"/>
      <point x="342.775" y="132.613"/>
      <point x="350.5" y="178" type="curve" smooth="yes"/>
      <point x="399.5" y="460" type="line"/>
      <point x="592" y="460" type="line"/>
      <point x="513" y="0" type="line"/>
      <point x="320" y="0" type="line"/>
      <point x="329.5" y="61.5" type="line"/>
      <point x="299" y="18.5"/>
      <point x="254" y="-11"/>
      <point x="188" y="-11" type="curve" smooth="yes"/>
      <point x="71.4907" y="-11"/>
      <point x="35" y="58.5"/>
      <point x="48" y="160" type="curve"/>
      <point x="98.5" y="460" type="line"/>
      <point x="301" y="460" type="line"/>
    </contour>
  </outline>
</glyph>
<glyph name="w" format="1">
  <advance width="786"/>
  <unicode hex="0077"/>
  <outline>
    <contour>
      <point x="38.5" y="460" type="line"/>
      <point x="230.5" y="460" type="line"/>
      <point x="276.951" y="266.916" type="line"/>
      <point x="449" y="497.5" type="line"/>
      <point x="540.05" y="265.416" type="line"/>
      <point x="654.5" y="459.5" type="line"/>
      <point x="856.5" y="459.5" type="line"/>
      <point x="519" y="-27" type="line"/>
      <point x="405" y="208.394" type="line"/>
      <point x="207.5" y="-27.5" type="line"/>
    </contour>
  </outline>
</glyph>
<glyph name="y" format="1">
  <advance width="553"/>
  <unicode hex="0079"/>
  <outline>
    <contour>
      <point x="623.5" y="459.5" type="line"/>
      <point x="215.5" y="-219.5" type="line"/>
      <point x="23.5" y="-219.5" type="line"/>
      <point x="169.5" y="25.5" type="line"/>
      <point x="38" y="460" type="line"/>
      <point x="240" y="460" type="line"/>
      <point x="321" y="85" type="line"/>
      <point x="216" y="85.5" type="line"/>
      <point x="426.5" y="459.5" type="line"/>
    </contour>
  </outline>
</glyph>
<glyph name="bar" format="1">
  <advance width="388"/>
  <unicode hex="007C"/>
  <outline>
    <contour>
      <point x="199.5" y="785" type="line"/>
      <point x="396.5" y="785" type="line"/>
      <point x="242.5" y="-215" type="line"/>
      <point x="45" y="-215" type="line"/>
    </contour>
  </outline>
</glyph>
<glyph name="currency" format="1">
  <advance width="558"/>
  <unicode hex="00A4"/>
  <outline>
    <contour>
      <point x="72" y="505" type="line"/>
      <point x="150.5" y="573.5" type="line"/>
      <point x="235" y="463.5" type="line"/>
      <point x="161.5" y="400.5" type="line"/>
    </contour>
    <contour>
      <point x="64.5" y="27" type="line"/>
      <point x="4.5" y="102.5" type="line"/>
      <point x="120" y="200.5" type="line"/>
      <point x="179" y="128.5" type="line"/>
    </contour>
    <contour>
      <point x="489" y="400" type="line"/>
      <point x="428.5" y="474.5" type="line"/>
      <point x="544.5" y="573.5" type="line"/>
      <point x="603.5" y="500.5" type="line"/>
    </contour>
    <contour>
      <point x="369.5" y="133" type="line"/>
      <point x="447.5" y="200.5" type="line"/>
      <point x="532.5" y="91.5" type="line"/>
      <point x="459" y="27.5" type="line"/>
    </contour>
    <contour>
      <point x="71" y="300.5" type="curve" smooth="yes"/>
      <point x="89.5" y="433"/>
      <point x="203" y="540"/>
      <point x="338.5" y="540" type="curve" smooth="yes"/>
      <point x="472.5" y="540"/>
      <point x="553.5" y="428"/>
      <point x="536" y="299.5" type="curve" smooth="yes"/>
      <point x="517.5" y="167"/>
      <point x="404" y="60"/>
      <point x="268.5" y="60" type="curve" smooth="yes"/>
      <point x="134.5" y="60"/>
      <point x="53.5" y="172"/>
    </contour>
    <contour>
      <point x="238.5" y="299" type="curve" smooth="yes"/>
      <point x="233" y="264"/>
      <point x="251.5" y="236.5"/>
      <point x="288.5" y="235.5" type="curve" smooth="yes"/>
      <point x="327" y="234"/>
      <point x="362.5" y="264"/>
      <point x="368.5" y="301" type="curve" smooth="yes"/>
      <point x="374" y="336"/>
      <point x="355.5" y="363.5"/>
      <point x="318.5" y="364.5" type="curve" smooth="yes"/>
      <point x="280" y="366"/>
      <point x="244.5" y="336"/>
    </contour>
  </outline>
</glyph>
<glyph name="logicalnot" format="1">
  <advance width="649"/>
  <unicode hex="00AC"/>
  <outline>
    <contour>
      <point x="80.5" y="255.5" type="line"/>
      <point x="106.5" y="420" type="line"/>
      <point x="633" y="420" type="line"/>
      <point x="590.5" y="175" type="line"/>
      <point x="466" y="175" type="line"/>
      <point x="483.5" y="255.5" type="line"/>
    </contour>
  </outline>
</glyph>
<glyph name="registered" format="1">
  <advance width="776"/>
  <unicode hex="00AE"/>
  <outline>
    <contour>
      <point x="413.5" y="310" type="line"/>
      <point x="523" y="310" type="line"/>
      <point x="595.5" y="150" type="line"/>
      <point x="449" y="150" type="line"/>
    </contour>
    <contour>
      <point x="303.5" y="570" type="line"/>
      <point x="434.5" y="570" type="line"/>
      <point x="369" y="150" type="line"/>
      <point x="238" y="150" type="line"/>
    </contour>
    <contour>
      <point x="370" y="459.5" type="line"/>
      <point x="386.5" y="569.5" type="line"/>
      <point x="471.5" y="570" type="line"/>
      <point x="572.5" y="568.5"/>
      <point x="638.5" y="518"/>
      <point x="627.5" y="435.5" type="curve" smooth="yes"/>
      <point x="616.5" y="347.5"/>
      <point x="544.5" y="294.5"/>
      <point x="438.5" y="292.5" type="curve" smooth="yes"/>
      <point x="342" y="292" type="line"/>
      <point x="358" y="390.5" type="line"/>
      <point x="433.5" y="391" type="line"/>
      <point x="460.5" y="392"/>
      <point x="487" y="402.5"/>
      <point x="490.5" y="427" type="curve" smooth="yes"/>
      <point x="493.5" y="450"/>
      <point x="475" y="459"/>
      <point x="450.5" y="460" type="curve"/>
    </contour>
    <contour>
      <point x="130.5" y="350" type="curve" smooth="yes"/>
      <point x="106.5" y="189.5"/>
      <point x="200.5" y="41.5"/>
      <point x="372" y="40.5" type="curve" smooth="yes"/>
      <point x="546.5" y="39.5"/>
      <point x="692.5" y="181"/>
      <point x="719.5" y="350" type="curve" smooth="yes"/>
      <point x="743.5" y="510.5"/>
      <point x="649.5" y="658.5"/>
      <point x="478" y="659.5" type="curve" smooth="yes"/>
      <point x="303.5" y="660.5"/>
      <point x="157.5" y="519"/>
    </contour>
    <contour>
      <point x="74" y="350" type="curve" smooth="yes"/>
      <point x="100.5" y="550"/>
      <point x="270.5" y="710.5"/>
      <point x="474.5" y="710" type="curve" smooth="yes"/>
      <point x="675.5" y="709.5"/>
      <point x="800.5" y="543.5"/>
      <point x="776" y="350" type="curve" smooth="yes"/>
      <point x="749.5" y="150"/>
      <point x="579" y="-10.5"/>
      <point x="375" y="-10" type="curve" smooth="yes"/>
      <point x="174" y="-9.5"/>
      <point x="49.5" y="156.5"/>
    </contour>
  </outline>
</glyph>
<glyph name="uni00B2" format="1">
  <advance width="432"/>
  <unicode hex="00B2"/>
  <outline>
    <contour>
      <point x="40" y="282.5" type="line"/>
      <point x="247.5" y="465" type="line" smooth="yes"/>
      <point x="282" y="497"/>
      <point x="321.5" y="524"/>
      <point x="327" y="561.5" type="curve" smooth="yes"/>
      <point x="329" y="580"/>
      <point x="320.5" y="599.5"/>
      <point x="295.5" y="600.5" type="curve" smooth="yes"/>
      <point x="264" y="602.5"/>
      <point x="242.5" y="568.5"/>
      <point x="235.5" y="540" type="curve"/>
      <point x="107" y="541" type="line"/>
      <point x="125.5" y="632"/>
      <point x="194.5" y="711.5"/>
      <point x="309" y="711.5" type="curve" smooth="yes"/>
      <point x="404" y="711.5"/>
      <point x="474" y="649"/>
      <point x="462" y="570.5" type="curve" smooth="yes"/>
      <point x="455.5" y="524"/>
      <point x="423.5" y="488.5"/>
      <point x="385.5" y="460.5" type="curve" smooth="yes"/>
      <point x="302" y="402.5" type="line"/>
      <point x="448" y="401.5" type="line"/>
      <point x="427" y="282" type="line"/>
    </contour>
  </outline>
</glyph>
<glyph name="mu" format="1">
  <advance width="605"/>
  <unicode hex="00B5"/>
  <outline>
    <contour>
      <point x="300" y="460" type="line"/>
      <point x="255" y="220" type="line" smooth="yes"/>
      <point x="248.26" y="181.527"/>
      <point x="258" y="154"/>
      <point x="298" y="154" type="curve" smooth="yes"/>
      <point x="333" y="154"/>
      <point x="352.438" y="176.836"/>
      <point x="360" y="220" type="curve" smooth="yes"/>
      <point x="405" y="460" type="line"/>
      <point x="590" y="460" type="line"/>
      <point x="515" y="0" type="line"/>
      <point x="320" y="0" type="line"/>
      <point x="328.5" y="47" type="line"/>
      <point x="310.5" y="17"/>
      <point x="284.517" y="0"/>
      <point x="259.5" y="0" type="curve" smooth="yes"/>
      <point x="241.5" y="0"/>
      <point x="226.5" y="2"/>
      <point x="205.5" y="20" type="curve"/>
      <point x="150" y="-320" type="line"/>
      <point x="-35" y="-320" type="line"/>
      <point x="100" y="460" type="line"/>
    </contour>
  </outline>
</glyph>
<glyph name="paragraph" format="1">
  <advance width="706"/>
  <unicode hex="00B6"/>
  <outline>
    <contour>
      <point x="297.262" y="271.097" type="line"/>
      <point x="178.195" y="279.194"/>
      <point x="94.6861" y="357.214"/>
      <point x="112.5" y="485.5" type="curve" smooth="yes"/>
      <point x="132.5" y="621"/>
      <point x="242.5" y="700"/>
      <point x="370.5" y="700" type="curve" smooth="yes"/>
      <point x="742.5" y="700" type="line"/>
      <point x="585" y="-220" type="line"/>
      <point x="416.5" y="-220" type="line"/>
      <point x="555.609" y="590" type="line"/>
      <point x="520.109" y="590" type="line"/>
      <point x="381" y="-220" type="line"/>
      <point x="213" y="-220" type="line"/>
    </contour>
  </outline>
</glyph>
<glyph name="periodcentered" format="1">
  <advance width="326"/>
  <unicode hex="00B7"/>
  <outline>
    <contour>
      <point x="68.5" y="286" type="curve" smooth="yes"/>
      <point x="77" y="347.5"/>
      <point x="133" y="399.5"/>
      <point x="199.5" y="399.5" type="curve" smooth="yes"/>
      <point x="266.5" y="399.5"/>
      <point x="309" y="345"/>
      <point x="300.5" y="284" type="curve" smooth="yes"/>
      <point x="292" y="222.5"/>
      <point x="236" y="170.5"/>
      <point x="169.5" y="170.5" type="curve" smooth="yes"/>
      <point x="102.5" y="170.5"/>
      <point x="60" y="225"/>
    </contour>
  </outline>
</glyph>
<glyph name="cedilla" format="1">
  <advance width="407"/>
  <unicode hex="00B8"/>
  <outline>
    <contour>
      <point x="152.5" y="77.5" type="line"/>
      <point x="297" y="71.5" type="line"/>
      <point x="172.07" y="-56.2561" type="line"/>
      <point x="186.95" y="-52.63"/>
      <point x="203.647" y="-50"/>
      <point x="220.5" y="-50.5" type="curve" smooth="yes"/>
      <point x="272" y="-52.5"/>
      <point x="315.5" y="-98"/>
      <point x="307.5" y="-163" type="curve" smooth="yes"/>
      <point x="297" y="-238.5"/>
      <point x="219" y="-277.5"/>
      <point x="150" y="-279.5" type="curve" smooth="yes"/>
      <point x="87" y="-281"/>
      <point x="34" y="-267"/>
      <point x="-21" y="-238" type="curve"/>
      <point x="41" y="-155" type="line"/>
      <point x="67.5" y="-171.5"/>
      <point x="104" y="-181"/>
      <point x="126.5" y="-180.5" type="curve" smooth="yes"/>
      <point x="152.5" y="-180"/>
      <point x="189.5" y="-169.5"/>
      <point x="191" y="-146" type="curve" smooth="yes"/>
      <point x="192.5" y="-121.5"/>
      <point x="155.5" y="-118.5"/>
      <point x="135" y="-118" type="curve" smooth="yes"/>
      <point x="113" y="-117"/>
      <point x="73.5" y="-121.5"/>
      <point x="35" y="-131.5" type="curve"/>
    </contour>
  </outline>
</glyph>
<glyph name="threequarters" format="1">
  <advance width="887"/>
  <unicode hex="00BE"/>
  <outline>
    <contour>
      <point x="767" y="699.5" type="line"/>
      <point x="888.5" y="699.5" type="line"/>
      <point x="263.5" y="0" type="line"/>
      <point x="142.5" y="0" type="line"/>
    </contour>
    <contour>
      <point x="222.5" y="481.5" type="curve"/>
      <point x="230.5" y="533.5" type="line"/>
      <point x="265.5" y="536.5"/>
      <point x="306.5" y="552"/>
      <point x="311" y="581.5" type="curve" smooth="yes"/>
      <point x="312.5" y="596"/>
      <point x="301" y="606.5"/>
      <point x="282" y="606.5" type="curve" smooth="yes"/>
      <point x="255.5" y="606"/>
      <point x="238" y="587.5"/>
      <point x="230.5" y="566.5" type="curve"/>
      <point x="109" y="567.5" type="line"/>
      <point x="127" y="647.5"/>
      <point x="193.5" y="707.5"/>
      <point x="290.5" y="708.5" type="curve" smooth="yes"/>
      <point x="379" y="709"/>
      <point x="450.5" y="664.5"/>
      <point x="438.5" y="589" type="curve" smooth="yes"/>
      <point x="425" y="501.5"/>
      <point x="318.5" y="483"/>
    </contour>
    <contour>
      <point x="220" y="268" type="curve" smooth="yes"/>
      <point x="114.5" y="269"/>
      <point x="61" y="341.5"/>
      <point x="66" y="427" type="curve"/>
      <point x="191.5" y="426.5" type="line"/>
      <point x="191.5" y="393"/>
      <point x="203.5" y="372.5"/>
      <point x="233" y="370.5" type="curve" smooth="yes"/>
      <point x="257.5" y="369"/>
      <point x="287" y="384.5"/>
      <point x="290.5" y="410.5" type="curve" smooth="yes"/>
      <point x="297.5" y="443"/>
      <point x="261.5" y="455.5"/>
      <point x="216" y="457.5" type="curve"/>
      <point x="225.5" y="518.5" type="line"/>
      <point x="327" y="517"/>
      <point x="431.5" y="491"/>
      <point x="417.5" y="396" type="curve" smooth="yes"/>
      <point x="406" y="315.5"/>
      <point x="321" y="267"/>
    </contour>
    <contour>
      <point x="429" y="69.5" type="line"/>
      <point x="550" y="158.5" type="line"/>
      <point x="731.5" y="159" type="line"/>
      <point x="745.5" y="180" type="line"/>
      <point x="868.5" y="180" type="line"/>
      <point x="848.5" y="69" type="line"/>
    </contour>
    <contour>
      <point x="575" y="116.5" type="line"/>
      <point x="424" y="64.5" type="line"/>
      <point x="734" y="419.5" type="line"/>
      <point x="845.5" y="420" type="line"/>
      <point x="772.5" y="0" type="line"/>
      <point x="635" y="0" type="line"/>
      <point x="650.5" y="90.5" type="line"/>
      <point x="669" y="96.5" type="line"/>
      <point x="694" y="243.5" type="line"/>
    </contour>
  </outline>
</glyph>
<glyph name="Ccedilla" format="1">
  <advance width="689"/>
  <unicode hex="00C7"/>
  <outline>
    <contour>
      <point x="297.5" y="350" type="curve" smooth="yes"/>
      <point x="281" y="253.5"/>
      <point x="341" y="189"/>
      <point x="437" y="187.5" type="curve" smooth="yes"/>
      <point x="527.5" y="186.5"/>
      <point x="592.5" y="230.5"/>
      <point x="648" y="272" type="curve"/>
      <point x="615" y="47" type="line"/>
      <point x="553.5" y="8.5"/>
      <point x="488.5" y="-20"/>
      <point x="398" y="-20" type="curve" smooth="yes"/>
      <point x="169.5" y="-20"/>
      <point x="28.5" y="137"/>
      <point x="60" y="350" type="curve" smooth="yes"/>
      <point x="93" y="568.5"/>
      <point x="278" y="720.5"/>
      <point x="512" y="720" type="curve" smooth="yes"/>
      <point x="599.5" y="720"/>
      <point x="658.5" y="693"/>
      <point x="714.5" y="652.5" type="curve"/>
      <point x="680.5" y="427" type="line"/>
      <point x="639.5" y="474.5"/>
      <point x="587.5" y="512.5"/>
      <point x="504" y="512.5" type="curve" smooth="yes"/>
      <point x="405" y="512"/>
      <point x="315.5" y="450.5"/>
    </contour>
    <contour>
      <point x="310.5" y="40.9668" type="line"/>
      <point x="454.5" y="35.4668" type="line"/>
      <point x="330.071" y="-92.2895" type="line"/>
      <point x="344.95" y="-88.6636"/>
      <point x="361.648" y="-86.5332"/>
      <point x="378.5" y="-87.0332" type="curve" smooth="yes"/>
      <point x="430" y="-89.0332"/>
      <point x="473.5" y="-134.033"/>
      <point x="465.5" y="-199.033" type="curve" smooth="yes"/>
      <point x="455" y="-274.533"/>
      <point x="377" y="-313.533"/>
      <point x="308" y="-315.533" type="curve" smooth="yes"/>
      <point x="245" y="-317.033"/>
      <point x="191.5" y="-303.033"/>
      <point x="136.5" y="-274.033" type="curve"/>
      <point x="199" y="-191.033" type="line"/>
      <point x="225.5" y="-207.533"/>
      <point x="261.5" y="-217.033"/>
      <point x="284" y="-216.533" type="curve" smooth="yes"/>
      <point x="310" y="-216.033"/>
      <point x="347.5" y="-205.533"/>
      <point x="349" y="-182.033" type="curve" smooth="yes"/>
      <point x="350.5" y="-157.533"/>
      <point x="313.5" y="-154.533"/>
      <point x="293" y="-154.033" type="curve" smooth="yes"/>
      <point x="271" y="-153.033"/>
      <point x="231" y="-157.533"/>
      <point x="192.5" y="-167.533" type="curve"/>
    </contour>
  </outline>
</glyph>
<glyph name="Egrave" format="1">
  <advance width="616"/>
  <unicode hex="00C8"/>
  <outline>
    <contour>
      <point x="186" y="0" type="line"/>
      <point x="217" y="175" type="line"/>
      <point x="563" y="175" type="line"/>
      <point x="532" y="0" type="line"/>
    </contour>
    <contour>
      <point x="276" y="525" type="line"/>
      <point x="306.5" y="700" type="line"/>
      <point x="652.5" y="700" type="line"/>
      <point x="622" y="525" type="line"/>
    </contour>
    <contour>
      <point x="233" y="275" type="line"/>
      <point x="263" y="445" type="line"/>
      <point x="589.5" y="445" type="line"/>
      <point x="559.5" y="275" type="line"/>
    </contour>
    <contour>
      <point x="159" y="700" type="line"/>
      <point x="366" y="700" type="line"/>
      <point x="246" y="0" type="line"/>
      <point x="39" y="0" type="line"/>
    </contour>
    <contour>
      <point x="272" y="943" type="line"/>
      <point x="413.5" y="1000.5" type="line"/>
      <point x="534.5" y="836.5" type="line"/>
      <point x="424.5" y="790" type="line"/>
    </contour>
  </outline>
</glyph>
<glyph name="Eacute" format="1">
  <advance width="616"/>
  <unicode hex="00C9"/>
  <outline>
    <contour>
      <point x="186" y="0" type="line"/>
      <point x="217" y="175" type="line"/>
      <point x="563" y="175" type="line"/>
      <point x="532" y="0" type="line"/>
    </contour>
    <contour>
      <point x="276" y="525" type="line"/>
      <point x="306.5" y="700" type="line"/>
      <point x="652.5" y="700" type="line"/>
      <point x="622" y="525" type="line"/>
    </contour>
    <contour>
      <point x="233" y="275" type="line"/>
      <point x="263" y="445" type="line"/>
      <point x="589.5" y="445" type="line"/>
      <point x="559.5" y="275" type="line"/>
    </contour>
    <contour>
      <point x="159" y="700" type="line"/>
      <point x="366" y="700" type="line"/>
      <point x="246" y="0" type="line"/>
      <point x="39" y="0" type="line"/>
    </contour>
    <contour>
      <point x="618" y="936.5" type="line"/>
      <point x="421.5" y="790.5" type="line"/>
      <point x="316.5" y="843.5" type="line"/>
      <point x="486" y="999" type="line"/>
    </contour>
  </outline>
</glyph>
<glyph name="Ecircumflex" format="1">
  <advance width="616"/>
  <unicode hex="00CA"/>
  <outline>
    <contour>
      <point x="186" y="0" type="line"/>
      <point x="217" y="175" type="line"/>
      <point x="563" y="175" type="line"/>
      <point x="532" y="0" type="line"/>
    </contour>
    <contour>
      <point x="276" y="525" type="line"/>
      <point x="306.5" y="700" type="line"/>
      <point x="652.5" y="700" type="line"/>
      <point x="622" y="525" type="line"/>
    </contour>
    <contour>
      <point x="233" y="275" type="line"/>
      <point x="263" y="445" type="line"/>
      <point x="589.5" y="445" type="line"/>
      <point x="559.5" y="275" type="line"/>
    </contour>
    <contour>
      <point x="159" y="700" type="line"/>
      <point x="366" y="700" type="line"/>
      <point x="246" y="0" type="line"/>
      <point x="39" y="0" type="line"/>
    </contour>
    <contour>
      <point x="443.5" y="894" type="line"/>
      <point x="319" y="800" type="line"/>
      <point x="272.5" y="843" type="line"/>
      <point x="448.5" y="980.5" type="line"/>
      <point x="585" y="837.5" type="line"/>
      <point x="533.5" y="800" type="line"/>
    </contour>
  </outline>
</glyph>
<glyph name="Edieresis" format="1">
  <advance width="616"/>
  <unicode hex="00CB"/>
  <outline>
    <contour>
      <point x="186" y="0" type="line"/>
      <point x="217" y="175" type="line"/>
      <point x="563" y="175" type="line"/>
      <point x="532" y="0" type="line"/>
    </contour>
    <contour>
      <point x="276" y="525" type="line"/>
      <point x="306.5" y="700" type="line"/>
      <point x="652.5" y="700" type="line"/>
      <point x="622" y="525" type="line"/>
    </contour>
    <contour>
      <point x="233" y="275" type="line"/>
      <point x="263" y="445" type="line"/>
      <point x="589.5" y="445" type="line"/>
      <point x="559.5" y="275" type="line"/>
    </contour>
    <contour>
      <point x="159" y="700" type="line"/>
      <point x="366" y="700" type="line"/>
      <point x="246" y="0" type="line"/>
      <point x="39" y="0" type="line"/>
    </contour>
    <contour>
      <point x="461" y="879.5" type="curve" smooth="yes"/>
      <point x="468.5" y="935.5"/>
      <point x="522.5" y="975.5"/>
      <point x="579.5" y="975.5" type="curve" smooth="yes"/>
      <point x="637" y="975.5"/>
      <point x="680.5" y="933.5"/>
      <point x="673" y="876.5" type="curve" smooth="yes"/>
      <point x="665.5" y="820.5"/>
      <point x="611.5" y="780.5"/>
      <point x="554.5" y="780.5" type="curve" smooth="yes"/>
      <point x="497" y="780.5"/>
      <point x="453.5" y="822.5"/>
    </contour>
    <contour>
      <point x="199" y="879.5" type="curve" smooth="yes"/>
      <point x="206.5" y="935.5"/>
      <point x="260.5" y="975.5"/>
      <point x="317.5" y="975.5" type="curve" smooth="yes"/>
      <point x="375" y="975.5"/>
      <point x="418.5" y="933.5"/>
      <point x="411" y="876.5" type="curve" smooth="yes"/>
      <point x="403.5" y="820.5"/>
      <point x="349.5" y="780.5"/>
      <point x="292.5" y="780.5" type="curve" smooth="yes"/>
      <point x="235" y="780.5"/>
      <point x="191.5" y="822.5"/>
    </contour>
  </outline>
</glyph>
<glyph name="Iacute" format="1">
  <advance width="354"/>
  <unicode hex="00CD"/>
  <outline>
    <contour>
      <point x="159" y="700" type="line"/>
      <point x="380.5" y="700" type="line"/>
      <point x="260.5" y="0" type="line"/>
      <point x="39" y="0" type="line"/>
    </contour>
    <contour>
      <point x="472.5" y="936.5" type="line"/>
      <point x="276" y="790.5" type="line"/>
      <point x="171" y="843.5" type="line"/>
      <point x="340.5" y="999" type="line"/>
    </contour>
  </outline>
</glyph>
<glyph name="Icircumflex" format="1">
  <advance width="354"/>
  <unicode hex="00CE"/>
  <outline>
    <contour>
      <point x="159" y="700" type="line"/>
      <point x="380.5" y="700" type="line"/>
      <point x="260.5" y="0" type="line"/>
      <point x="39" y="0" type="line"/>
    </contour>
    <contour>
      <point x="302.75" y="876.5" type="line"/>
      <point x="193.75" y="790" type="line"/>
      <point x="102.25" y="858" type="line"/>
      <point x="308.25" y="995.5" type="line"/>
      <point x="474.75" y="852.5" type="line"/>
      <point x="378.25" y="790" type="line"/>
    </contour>
  </outline>
</glyph>
<glyph name="Eth" format="1">
  <advance width="742"/>
  <unicode hex="00D0"/>
  <outline>
    <contour>
      <point x="27.5" y="298" type="line"/>
      <point x="48" y="413" type="line"/>
      <point x="420" y="413" type="line"/>
      <point x="399.5" y="298" type="line"/>
    </contour>
    <contour>
      <point x="159" y="700" type="line"/>
      <point x="384.5" y="700" type="line"/>
      <point x="264.5" y="0" type="line"/>
      <point x="39" y="0" type="line"/>
    </contour>
    <contour>
      <point x="313.5" y="0" type="curve"/>
      <point x="186" y="0" type="line"/>
      <point x="219.5" y="190" type="line"/>
      <point x="324.5" y="190" type="line"/>
      <point x="415.5" y="192"/>
      <point x="502.5" y="230"/>
      <point x="521.5" y="350" type="curve" smooth="yes"/>
      <point x="539" y="466"/>
      <point x="479" y="507"/>
      <point x="390.5" y="509.5" type="curve" smooth="yes"/>
      <point x="273" y="510.5" type="line"/>
      <point x="306.5" y="700" type="line"/>
      <point x="421" y="700" type="line"/>
      <point x="645.5" y="697.5"/>
      <point x="779" y="560.5"/>
      <point x="747.5" y="350" type="curve" smooth="yes"/>
      <point x="715" y="135"/>
      <point x="544.5" y="2.5"/>
    </contour>
  </outline>
</glyph>
<glyph name="Ntilde" format="1">
  <advance width="781"/>
  <unicode hex="00D1"/>
  <outline>
    <contour>
      <point x="600.5" y="700" type="line"/>
      <point x="807.5" y="700" type="line"/>
      <point x="682.5" y="-33" type="line"/>
      <point x="301" y="318.296" type="line"/>
      <point x="246" y="0" type="line"/>
      <point x="39" y="0" type="line"/>
      <point x="164" y="733" type="line"/>
      <point x="545" y="381.704" type="line"/>
    </contour>
    <contour>
      <point x="259" y="860" type="line"/>
      <point x="280.5" y="909"/>
      <point x="327.5" y="961"/>
      <point x="397" y="959.5" type="curve" smooth="yes"/>
      <point x="453" y="958.5"/>
      <point x="475.5" y="904.5"/>
      <point x="527" y="906" type="curve" smooth="yes"/>
      <point x="559" y="907"/>
      <point x="584.5" y="934"/>
      <point x="607" y="961" type="curve"/>
      <point x="680" y="866" type="line"/>
      <point x="652.5" y="826"/>
      <point x="589" y="773"/>
      <point x="522.5" y="775.5" type="curve" smooth="yes"/>
      <point x="472.5" y="777.5"/>
      <point x="434.5" y="835"/>
      <point x="385.5" y="831" type="curve" smooth="yes"/>
      <point x="353" y="828.5"/>
      <point x="340" y="799"/>
      <point x="331.5" y="781" type="curve"/>
    </contour>
  </outline>
</glyph>
<glyph name="multiply" format="1">
  <advance width="578"/>
  <unicode hex="00D7"/>
  <outline>
    <contour>
      <point x="121.5" y="-8.5" type="line"/>
      <point x="25.5" y="113" type="line"/>
      <point x="197.5" y="259" type="line"/>
      <point x="75.5" y="406.5" type="line"/>
      <point x="204" y="519" type="line"/>
      <point x="321" y="368.5" type="line"/>
      <point x="489.5" y="518.5" type="line"/>
      <point x="586" y="397" type="line"/>
      <point x="413.5" y="251" type="line"/>
      <point x="535.5" y="103.5" type="line"/>
      <point x="407" y="-9" type="line"/>
      <point x="290.5" y="141.5" type="line"/>
    </contour>
  </outline>
</glyph>
<glyph name="Ucircumflex" format="1">
  <advance width="723"/>
  <unicode hex="00DB"/>
  <outline>
    <contour>
      <point x="154" y="700" type="line"/>
      <point x="371" y="700" type="line"/>
      <point x="292" y="250" type="line" smooth="yes"/>
      <point x="286" y="201.5"/>
      <point x="299" y="157"/>
      <point x="356" y="155.5" type="curve" smooth="yes"/>
      <point x="414" y="154"/>
      <point x="450.5" y="199"/>
      <point x="460.5" y="250.5" type="curve"/>
      <point x="538.5" y="700" type="line"/>
      <point x="755" y="700" type="line"/>
      <point x="675.5" y="230" type="line" smooth="yes"/>
      <point x="646.5" y="49.5"/>
      <point x="503.5" y="-40"/>
      <point x="334" y="-40" type="curve" smooth="yes"/>
      <point x="170" y="-40"/>
      <point x="51" y="50"/>
      <point x="74.5" y="230" type="curve"/>
    </contour>
    <contour>
      <point x="485.5" y="858.5" type="line"/>
      <point x="395" y="780" type="line"/>
      <point x="270" y="873.5" type="line"/>
      <point x="502.5" y="1010" type="line"/>
      <point x="696.5" y="866.5" type="line"/>
      <point x="549.5" y="779" type="line"/>
    </contour>
  </outline>
</glyph>
<glyph name="Yacute" format="1">
  <advance width="698"/>
  <unicode hex="00DD"/>
  <outline>
    <contour>
      <point x="657" y="926.5" type="line"/>
      <point x="460.5" y="780.5" type="line"/>
      <point x="355.5" y="833.5" type="line"/>
      <point x="525" y="989" type="line"/>
    </contour>
    <contour>
      <point x="545" y="699.5" type="line"/>
      <point x="800.5" y="699.5" type="line"/>
      <point x="479" y="269.853" type="line"/>
      <point x="433.5" y="0" type="line"/>
      <point x="211.5" y="0" type="line"/>
      <point x="261" y="279.01" type="line"/>
      <point x="89" y="700" type="line"/>
      <point x="334" y="700" type="line"/>
      <point x="401" y="477.5" type="line"/>
    </contour>
  </outline>
</glyph>
<glyph name="adieresis" format="1">
  <advance width="562"/>
  <unicode hex="00E4"/>
  <outline>
    <contour>
      <point x="206" y="138" type="curve" smooth="yes"/>
      <point x="204" y="117"/>
      <point x="222.5" y="107.5"/>
      <point x="242.5" y="106.5" type="curve" smooth="yes"/>
      <point x="288.5" y="104"/>
      <point x="327" y="138"/>
      <point x="339.5" y="189.5" type="curve"/>
      <point x="346.5" y="129" type="line"/>
      <point x="328" y="44"/>
      <point x="257.5" y="-9"/>
      <point x="164" y="-9.5" type="curve" smooth="yes"/>
      <point x="70" y="-10"/>
      <point x="0.5" y="41.5"/>
      <point x="13" y="130.5" type="curve" smooth="yes"/>
      <point x="27" y="222.5"/>
      <point x="121.5" y="274"/>
      <point x="228.5" y="274.5" type="curve" smooth="yes"/>
      <point x="284.5" y="275"/>
      <point x="346" y="259.5"/>
      <point x="380" y="232" type="curve"/>
      <point x="367.5" y="147.5" type="line"/>
      <point x="341" y="168.5"/>
      <point x="315.5" y="181"/>
      <point x="274.5" y="180" type="curve" smooth="yes"/>
      <point x="245.5" y="179"/>
      <point x="209.5" y="163.5"/>
    </contour>
    <contour>
      <point x="144" y="297.5" type="curve"/>
      <point x="103.5" y="425" type="line"/>
      <point x="172" y="450.5"/>
      <point x="252" y="475"/>
      <point x="332.5" y="475" type="curve" smooth="yes"/>
      <point x="446.5" y="475"/>
      <point x="556" y="427"/>
      <point x="542.5" y="320" type="curve"/>
      <point x="488.5" y="0" type="line"/>
      <point x="305.5" y="0" type="line"/>
      <point x="355" y="272.5" type="line"/>
      <point x="359" y="307"/>
      <point x="341.5" y="329.5"/>
      <point x="299" y="332" type="curve" smooth="yes"/>
      <point x="240" y="335.5"/>
      <point x="179" y="311.5"/>
    </contour>
    <contour>
      <point x="390.5" y="634.5" type="curve" smooth="yes"/>
      <point x="398" y="690.5"/>
      <point x="451.5" y="730.5"/>
      <point x="508.5" y="730.5" type="curve" smooth="yes"/>
      <point x="566" y="730.5"/>
      <point x="609.5" y="688.5"/>
      <point x="602" y="631.5" type="curve" smooth="yes"/>
      <point x="594.5" y="575.5"/>
      <point x="541" y="535.5"/>
      <point x="484" y="535.5" type="curve" smooth="yes"/>
      <point x="426.5" y="535.5"/>
      <point x="383" y="577.5"/>
    </contour>
    <contour>
      <point x="128.5" y="634.5" type="curve" smooth="yes"/>
      <point x="136" y="690.5"/>
      <point x="189.5" y="730.5"/>
      <point x="246.5" y="730.5" type="curve" smooth="yes"/>
      <point x="304" y="730.5"/>
      <point x="347.5" y="688.5"/>
      <point x="340" y="631.5" type="curve" smooth="yes"/>
      <point x="332.5" y="575.5"/>
      <point x="279" y="535.5"/>
      <point x="222" y="535.5" type="curve" smooth="yes"/>
      <point x="164.5" y="535.5"/>
      <point x="121" y="577.5"/>
    </contour>
  </outline>
</glyph>
<glyph name="ae" format="1">
  <advance width="939"/>
  <unicode hex="00E6"/>
  <outline>
    <contour>
      <point x="191.5" y="-10" type="curve" smooth="yes"/>
      <point x="61.5" y="-10"/>
      <point x="-3.5" y="40"/>
      <point x="11.5" y="130" type="curve" smooth="yes"/>
      <point x="26" y="217"/>
      <point x="116" y="275"/>
      <point x="237" y="275" type="curve" smooth="yes"/>
      <point x="297" y="275"/>
      <point x="350" y="261"/>
      <point x="439" y="220" type="curve"/>
      <point x="352" y="220" type="line"/>
      <point x="360.5" y="272" type="line" smooth="yes"/>
      <point x="367" y="312"/>
      <point x="346.5" y="333"/>
      <point x="298.5" y="333" type="curve" smooth="yes"/>
      <point x="254.5" y="333"/>
      <point x="181" y="316"/>
      <point x="141" y="298" type="curve"/>
      <point x="103" y="424" type="line"/>
      <point x="199" y="459"/>
      <point x="273.5" y="475"/>
      <point x="342.5" y="475" type="curve" smooth="yes"/>
      <point x="444.5" y="475"/>
      <point x="490.5" y="440"/>
      <point x="487.5" y="362" type="curve"/>
      <point x="474.5" y="362" type="line"/>
      <point x="532.5" y="434"/>
      <point x="613.5" y="470"/>
      <point x="716.5" y="470" type="curve" smooth="yes"/>
      <point x="870.5" y="470"/>
      <point x="940" y="389"/>
      <point x="915" y="239" type="curve" smooth="yes"/>
      <point x="912" y="220"/>
      <point x="907.5" y="198"/>
      <point x="905" y="190" type="curve"/>
      <point x="540" y="190" type="line"/>
      <point x="562" y="208" type="line"/>
      <point x="557.5" y="146"/>
      <point x="578" y="120"/>
      <point x="628" y="120" type="curve" smooth="yes"/>
      <point x="670" y="120"/>
      <point x="713" y="138"/>
      <point x="731.5" y="165" type="curve"/>
      <point x="905" y="137" type="line"/>
      <point x="836.5" y="37"/>
      <point x="746.5" y="-10"/>
      <point x="616.5" y="-10" type="curve" smooth="yes"/>
      <point x="502.5" y="-10"/>
      <point x="438.5" y="26"/>
      <point x="418.5" y="99" type="curve"/>
      <point x="430.5" y="98" type="line"/>
      <point x="392" y="28"/>
      <point x="307.5" y="-10"/>
    </contour>
    <contour>
      <point x="250.5" y="106" type="curve" smooth="yes"/>
      <point x="302.5" y="106"/>
      <point x="338.5" y="134"/>
      <point x="346.5" y="182" type="curve"/>
      <point x="342" y="144" type="line"/>
      <point x="344" y="179" type="line"/>
      <point x="369.5" y="152" type="line"/>
      <point x="342.5" y="170"/>
      <point x="309" y="180"/>
      <point x="275" y="180" type="curve" smooth="yes"/>
      <point x="235" y="180"/>
      <point x="214" y="167"/>
      <point x="209.5" y="139" type="curve" smooth="yes"/>
      <point x="206" y="117"/>
      <point x="218.5" y="106"/>
    </contour>
    <contour>
      <point x="565" y="234" type="curve"/>
      <point x="555.5" y="284" type="line"/>
      <point x="737.5" y="284" type="line"/>
      <point x="709" y="250" type="line"/>
      <point x="713" y="261"/>
      <point x="712.5" y="260"/>
      <point x="713.5" y="266" type="curve" smooth="yes"/>
      <point x="723" y="322"/>
      <point x="705.5" y="350"/>
      <point x="661.5" y="350" type="curve" smooth="yes"/>
      <point x="609.5" y="350"/>
      <point x="578" y="312"/>
    </contour>
  </outline>
</glyph>
<glyph name="iacute" format="1">
  <advance width="277"/>
  <unicode hex="00ED"/>
  <outline>
    <contour>
      <point x="97.5" y="460" type="line"/>
      <point x="282.5" y="460" type="line"/>
      <point x="203.5" y="0" type="line"/>
      <point x="18.5" y="0" type="line"/>
    </contour>
    <contour>
      <point x="403" y="677.5" type="line"/>
      <point x="206.5" y="531.5" type="line"/>
      <point x="101.5" y="584.5" type="line"/>
      <point x="271" y="740" type="line"/>
    </contour>
  </outline>
</glyph>
<glyph name="icircumflex" format="1">
  <advance width="277"/>
  <unicode hex="00EE"/>
  <outline>
    <contour>
      <point x="97.5" y="460" type="line"/>
      <point x="282.5" y="460" type="line"/>
      <point x="203.5" y="0" type="line"/>
      <point x="18.5" y="0" type="line"/>
    </contour>
    <contour>
      <point x="219" y="609.5" type="line"/>
      <point x="128.5" y="531" type="line"/>
      <point x="3.5" y="624.5" type="line"/>
      <point x="235.5" y="761" type="line"/>
      <point x="430" y="617.5" type="line"/>
      <point x="283" y="530" type="line"/>
    </contour>
  </outline>
</glyph>
<glyph name="eth" format="1">
  <advance width="657"/>
  <unicode hex="00F0"/>
  <outline>
    <contour>
      <point x="314" y="-20" type="curve" smooth="yes"/>
      <point x="169" y="-20"/>
      <point x="55" y="74"/>
      <point x="55" y="220" type="curve" smooth="yes"/>
      <point x="55" y="368"/>
      <point x="159" y="483"/>
      <point x="303" y="483" type="curve" smooth="yes"/>
      <point x="398" y="483"/>
      <point x="470" y="428"/>
      <point x="532" y="318" type="curve"/>
      <point x="491" y="320" type="line"/>
      <point x="432" y="492"/>
      <point x="337" y="595"/>
      <point x="188" y="695" type="curve"/>
      <point x="339" y="782" type="line"/>
      <point x="557" y="597"/>
      <point x="643" y="454"/>
      <point x="643" y="280" type="curve" smooth="yes"/>
      <point x="643" y="113"/>
      <point x="501" y="-20"/>
    </contour>
    <contour>
      <point x="333" y="150" type="curve" smooth="yes"/>
      <point x="389" y="150"/>
      <point x="430" y="195"/>
      <point x="430" y="245" type="curve" smooth="yes"/>
      <point x="430" y="285"/>
      <point x="403" y="321"/>
      <point x="358" y="321" type="curve" smooth="yes"/>
      <point x="303" y="321"/>
      <point x="261" y="275"/>
      <point x="261" y="225" type="curve" smooth="yes"/>
      <point x="261" y="185"/>
      <point x="287" y="150"/>
    </contour>
    <contour>
      <point x="210" y="509" type="line"/>
      <point x="194" y="569" type="line"/>
      <point x="584" y="684" type="line"/>
      <point x="600" y="624" type="line"/>
    </contour>
  </outline>
</glyph>
<glyph name="ocircumflex" format="1">
  <advance width="597"/>
  <unicode hex="00F4"/>
  <outline>
    <contour>
      <point x="39.5" y="230.5" type="curve" smooth="yes"/>
      <point x="60.5" y="376.5"/>
      <point x="192.5" y="471"/>
      <point x="346" y="471" type="curve" smooth="yes"/>
      <point x="495" y="471"/>
      <point x="603" y="373.5"/>
      <point x="582.5" y="229.5" type="curve" smooth="yes"/>
      <point x="561.5" y="83.5"/>
      <point x="429" y="-10"/>
      <point x="276" y="-10" type="curve" smooth="yes"/>
      <point x="127" y="-10"/>
      <point x="19" y="86.5"/>
    </contour>
    <contour>
      <point x="236.5" y="229.5" type="curve" smooth="yes"/>
      <point x="230" y="185"/>
      <point x="250" y="147"/>
      <point x="292" y="145.5" type="curve" smooth="yes"/>
      <point x="335.5" y="144"/>
      <point x="377.5" y="182.5"/>
      <point x="385.5" y="230.5" type="curve" smooth="yes"/>
      <point x="392" y="275"/>
      <point x="372" y="314"/>
      <point x="330" y="315.5" type="curve" smooth="yes"/>
      <point x="286.5" y="317"/>
      <point x="244.5" y="277.5"/>
    </contour>
    <contour>
      <point x="380" y="609.5" type="line"/>
      <point x="289.5" y="531" type="line"/>
      <point x="164.5" y="624.5" type="line"/>
      <point x="396.5" y="761" type="line"/>
      <point x="591" y="617.5" type="line"/>
      <point x="444" y="530" type="line"/>
    </contour>
  </outline>
</glyph>
<glyph name="oslash" format="1">
  <advance width="529"/>
  <unicode hex="00F8"/>
  <outline>
    <contour>
      <point x="39.5" y="230.5" type="curve" smooth="yes"/>
      <point x="61" y="382"/>
      <point x="194.5" y="470"/>
      <point x="346" y="470" type="curve" smooth="yes"/>
      <point x="493.5" y="470"/>
      <point x="603.5" y="379.5"/>
      <point x="582.5" y="229.5" type="curve" smooth="yes"/>
      <point x="561" y="78"/>
      <point x="427.5" y="-10"/>
      <point x="276" y="-10" type="curve" smooth="yes"/>
      <point x="128.5" y="-10"/>
      <point x="18.5" y="80.5"/>
    </contour>
    <contour>
      <point x="217.5" y="229.5" type="curve" smooth="yes"/>
      <point x="209" y="174.5"/>
      <point x="239" y="136.5"/>
      <point x="290" y="135.5" type="curve" smooth="yes"/>
      <point x="342.5" y="134"/>
      <point x="396" y="172.5"/>
      <point x="405" y="230.5" type="curve" smooth="yes"/>
      <point x="412.5" y="279"/>
      <point x="382" y="323"/>
      <point x="332" y="324.5" type="curve" smooth="yes"/>
      <point x="280.5" y="326"/>
      <point x="227" y="281"/>
    </contour>
    <contour>
      <point x="505.5" y="509.5" type="line"/>
      <point x="568.5" y="465.5" type="line"/>
      <point x="103.5" y="-53.5" type="line"/>
      <point x="42.5" y="-12" type="line"/>
    </contour>
  </outline>
</glyph>
<glyph name="uacute" format="1">
  <advance width="587"/>
  <unicode hex="00FA"/>
  <outline>
    <contour>
      <point x="320" y="0" type="line"/>
      <point x="399.5" y="460" type="line"/>
      <point x="592" y="460" type="line"/>
      <point x="513" y="0" type="line"/>
    </contour>
    <contour>
      <point x="250.5" y="180" type="line"/>
      <point x="247.5" y="148.5"/>
      <point x="246" y="119"/>
      <point x="282" y="115" type="curve" smooth="yes"/>
      <point x="317.5" y="111"/>
      <point x="343.5" y="145"/>
      <point x="351.5" y="179.5" type="curve"/>
      <point x="380" y="189" type="line"/>
      <point x="362.5" y="85.5"/>
      <point x="308.5" y="-10"/>
      <point x="188" y="-11" type="curve" smooth="yes"/>
      <point x="71.5" y="-12"/>
      <point x="35" y="58.5"/>
      <point x="48" y="160" type="curve"/>
      <point x="98.5" y="460" type="line"/>
      <point x="301" y="460" type="line"/>
    </contour>
    <contour>
      <point x="538.5" y="677.5" type="line"/>
      <point x="342.5" y="531.5" type="line"/>
      <point x="237.5" y="584.5" type="line"/>
      <point x="407" y="740" type="line"/>
    </contour>
  </outline>
</glyph>
<glyph name="ccircumflex" format="1">
  <advance width="488"/>
  <unicode hex="0109"/>
  <outline>
    <contour>
      <point x="237" y="229.5" type="curve" smooth="yes"/>
      <point x="228" y="175.5"/>
      <point x="262" y="140.5"/>
      <point x="315" y="139" type="curve" smooth="yes"/>
      <point x="362.5" y="137"/>
      <point x="409" y="161"/>
      <point x="444.5" y="196" type="curve"/>
      <point x="419.5" y="21" type="line"/>
      <point x="381.5" y="2.5"/>
      <point x="341.5" y="-10"/>
      <point x="281" y="-10" type="curve" smooth="yes"/>
      <point x="129.5" y="-10"/>
      <point x="18.5" y="85"/>
      <point x="39.5" y="230.5" type="curve" smooth="yes"/>
      <point x="61" y="378"/>
      <point x="194.5" y="470"/>
      <point x="351" y="470" type="curve" smooth="yes"/>
      <point x="411" y="470"/>
      <point x="449.5" y="456.5"/>
      <point x="487" y="440.5" type="curve"/>
      <point x="461" y="264" type="line"/>
      <point x="434.5" y="302.5"/>
      <point x="395" y="322.5"/>
      <point x="356.5" y="322" type="curve" smooth="yes"/>
      <point x="302" y="321.5"/>
      <point x="246.5" y="280.5"/>
    </contour>
    <contour>
      <point x="336.5" y="609.5" type="line"/>
      <point x="245.5" y="531" type="line"/>
      <point x="120.5" y="624.5" type="line"/>
      <point x="353" y="761" type="line"/>
      <point x="547.5" y="617.5" type="line"/>
      <point x="400.5" y="530" type="line"/>
    </contour>
  </outline>
</glyph>
<glyph name="Cdotaccent" format="1">
  <advance width="689"/>
  <unicode hex="010A"/>
  <outline>
    <contour>
      <point x="297.5" y="350" type="curve" smooth="yes"/>
      <point x="281" y="253.5"/>
      <point x="341" y="189"/>
      <point x="437" y="187.5" type="curve" smooth="yes"/>
      <point x="527.5" y="186.5"/>
      <point x="592.5" y="230.5"/>
      <point x="648" y="272" type="curve"/>
      <point x="615" y="47" type="line"/>
      <point x="553.5" y="8.5"/>
      <point x="488.5" y="-20"/>
      <point x="398" y="-20" type="curve" smooth="yes"/>
      <point x="169.5" y="-20"/>
      <point x="28.5" y="137"/>
      <point x="60" y="350" type="curve" smooth="yes"/>
      <point x="93" y="568.5"/>
      <point x="278" y="720.5"/>
      <point x="512" y="720" type="curve" smooth="yes"/>
      <point x="599.5" y="720"/>
      <point x="658.5" y="693"/>
      <point x="714.5" y="652.5" type="curve"/>
      <point x="680.5" y="427" type="line"/>
      <point x="639.5" y="474.5"/>
      <point x="587.5" y="512.5"/>
      <point x="504" y="512.5" type="curve" smooth="yes"/>
      <point x="405" y="512"/>
      <point x="315.5" y="450.5"/>
    </contour>
    <contour>
      <point x="400" y="879.5" type="curve" smooth="yes"/>
      <point x="407.5" y="935.5"/>
      <point x="461.5" y="975.5"/>
      <point x="518.5" y="975.5" type="curve" smooth="yes"/>
      <point x="576" y="975.5"/>
      <point x="619.5" y="933.5"/>
      <point x="612" y="876.5" type="curve" smooth="yes"/>
      <point x="604.5" y="820.5"/>
      <point x="550.5" y="780.5"/>
      <point x="493.5" y="780.5" type="curve" smooth="yes"/>
      <point x="436" y="780.5"/>
      <point x="392.5" y="822.5"/>
    </contour>
  </outline>
</glyph>
<glyph name="Ebreve" format="1">
  <advance width="616"/>
  <unicode hex="0114"/>
  <outline>
    <contour>
      <point x="186" y="0" type="line"/>
      <point x="217" y="175" type="line"/>
      <point x="563" y="175" type="line"/>
      <point x="532" y="0" type="line"/>
    </contour>
    <contour>
      <point x="276" y="525" type="line"/>
      <point x="306.5" y="700" type="line"/>
      <point x="652.5" y="700" type="line"/>
      <point x="622" y="525" type="line"/>
    </contour>
    <contour>
      <point x="233" y="275" type="line"/>
      <point x="263" y="445" type="line"/>
      <point x="589.5" y="445" type="line"/>
      <point x="559.5" y="275" type="line"/>
    </contour>
    <contour>
      <point x="159" y="700" type="line"/>
      <point x="366" y="700" type="line"/>
      <point x="246" y="0" type="line"/>
      <point x="39" y="0" type="line"/>
    </contour>
    <contour>
      <point x="278.5" y="930" type="curve"/>
      <point x="390.5" y="930" type="line"/>
      <point x="391.5" y="899"/>
      <point x="406" y="882.5"/>
      <point x="429.5" y="880.5" type="curve" smooth="yes"/>
      <point x="454" y="878.5"/>
      <point x="482" y="899.5"/>
      <point x="490" y="929.5" type="curve"/>
      <point x="607" y="928.5" type="line"/>
      <point x="589.5" y="842"/>
      <point x="524" y="781"/>
      <point x="424" y="780.5" type="curve" smooth="yes"/>
      <point x="324" y="780"/>
      <point x="273" y="842"/>
    </contour>
  </outline>
</glyph>
<glyph name="gcircumflex" format="1">
  <advance width="616"/>
  <unicode hex="011D"/>
  <outline>
    <contour>
      <point x="3" y="-34.5" type="curve"/>
      <point x="183.5" y="-35.5" type="line"/>
      <point x="189.5" y="-78.5"/>
      <point x="207" y="-94"/>
      <point x="247.5" y="-94.5" type="curve" smooth="yes"/>
      <point x="308.5" y="-95.5"/>
      <point x="349" y="-48.5"/>
      <point x="360" y="10.5" type="curve"/>
      <point x="438" y="460" type="line"/>
      <point x="621" y="460" type="line"/>
      <point x="544.5" y="9.5" type="line" smooth="yes"/>
      <point x="518" y="-159"/>
      <point x="402.5" y="-244"/>
      <point x="244" y="-244.5" type="curve" smooth="yes"/>
      <point x="77.5" y="-245"/>
      <point x="7.5" y="-166"/>
    </contour>
    <contour>
      <point x="41.5" y="240.5" type="curve" smooth="yes"/>
      <point x="59" y="378.5"/>
      <point x="166" y="470"/>
      <point x="283" y="470" type="curve" smooth="yes"/>
      <point x="405.5" y="470"/>
      <point x="464.5" y="366.5"/>
      <point x="448.5" y="239.5" type="curve" smooth="yes"/>
      <point x="431.5" y="108"/>
      <point x="338" y="10"/>
      <point x="216.5" y="10" type="curve" smooth="yes"/>
      <point x="99.5" y="10"/>
      <point x="25.5" y="107"/>
    </contour>
    <contour>
      <point x="243" y="239" type="curve" smooth="yes"/>
      <point x="236.5" y="195"/>
      <point x="261" y="162.5"/>
      <point x="304.5" y="160.5" type="curve" smooth="yes"/>
      <point x="347" y="158.5"/>
      <point x="395" y="193"/>
      <point x="402" y="241" type="curve" smooth="yes"/>
      <point x="408.5" y="287.5"/>
      <point x="381.5" y="317.5"/>
      <point x="340.5" y="319.5" type="curve" smooth="yes"/>
      <point x="295.5" y="321.5"/>
      <point x="250" y="284.5"/>
    </contour>
    <contour>
      <point x="424" y="609.5" type="line"/>
      <point x="333" y="531" type="line"/>
      <point x="208" y="624.5" type="line"/>
      <point x="440.5" y="761" type="line"/>
      <point x="635" y="617.5" type="line"/>
      <point x="487.5" y="530" type="line"/>
    </contour>
  </outline>
</glyph>
<glyph name="Gbreve" format="1">
  <advance width="813"/>
  <unicode hex="011E"/>
  <outline>
    <contour>
      <point x="428.5" y="240" type="line"/>
      <point x="457" y="400" type="line"/>
      <point x="818" y="399.5" type="line"/>
      <point x="800" y="168.5"/>
      <point x="640.5" y="-29.5"/>
      <point x="391.5" y="-30" type="curve" smooth="yes"/>
      <point x="166.5" y="-30"/>
      <point x="29" y="136.5"/>
      <point x="60" y="350" type="curve" smooth="yes"/>
      <point x="93.5" y="571"/>
      <point x="287.5" y="721"/>
      <point x="516.5" y="720" type="curve" smooth="yes"/>
      <point x="659" y="719.5"/>
      <point x="753" y="645.5"/>
      <point x="815.5" y="542.5" type="curve"/>
      <point x="604" y="452" type="line"/>
      <point x="585" y="497"/>
      <point x="557" y="533.5"/>
      <point x="497" y="534.5" type="curve" smooth="yes"/>
      <point x="394" y="537"/>
      <point x="304.5" y="458.5"/>
      <point x="286" y="350" type="curve" smooth="yes"/>
      <point x="269.5" y="246"/>
      <point x="311.5" y="157"/>
      <point x="420.5" y="155.5" type="curve" smooth="yes"/>
      <point x="497.312" y="154.5"/>
      <point x="547.725" y="191.618"/>
      <point x="584.822" y="241" type="curve"/>
    </contour>
    <contour>
      <point x="393" y="930" type="curve"/>
      <point x="505" y="930" type="line"/>
      <point x="506" y="899"/>
      <point x="520.5" y="882.5"/>
      <point x="544" y="880.5" type="curve" smooth="yes"/>
      <point x="568.5" y="878.5"/>
      <point x="596.5" y="899.5"/>
      <point x="604.5" y="929.5" type="curve"/>
      <point x="721.5" y="928.5" type="line"/>
      <point x="704" y="842"/>
      <point x="638.5" y="781"/>
      <point x="538.5" y="780.5" type="curve" smooth="yes"/>
      <point x="438.5" y="780"/>
      <point x="387.5" y="842"/>
    </contour>
  </outline>
</glyph>
<glyph name="gdotaccent" format="1">
  <advance width="616"/>
  <unicode hex="0121"/>
  <outline>
    <contour>
      <point x="3" y="-34.5" type="curve"/>
      <point x="183.5" y="-35.5" type="line"/>
      <point x="189.5" y="-78.5"/>
      <point x="207" y="-94"/>
      <point x="247.5" y="-94.5" type="curve" smooth="yes"/>
      <point x="308.5" y="-95.5"/>
      <point x="349" y="-48.5"/>
      <point x="360" y="10.5" type="curve"/>
      <point x="438" y="460" type="line"/>
      <point x="621" y="460" type="line"/>
      <point x="544.5" y="9.5" type="line" smooth="yes"/>
      <point x="518" y="-159"/>
      <point x="402.5" y="-244"/>
      <point x="244" y="-244.5" type="curve" smooth="yes"/>
      <point x="77.5" y="-245"/>
      <point x="7.5" y="-166"/>
    </contour>
    <contour>
      <point x="41.5" y="240.5" type="curve" smooth="yes"/>
      <point x="59" y="378.5"/>
      <point x="166" y="470"/>
      <point x="283" y="470" type="curve" smooth="yes"/>
      <point x="405.5" y="470"/>
      <point x="464.5" y="366.5"/>
      <point x="448.5" y="239.5" type="curve" smooth="yes"/>
      <point x="431.5" y="108"/>
      <point x="338" y="10"/>
      <point x="216.5" y="10" type="curve" smooth="yes"/>
      <point x="99.5" y="10"/>
      <point x="25.5" y="107"/>
    </contour>
    <contour>
      <point x="243" y="239" type="curve" smooth="yes"/>
      <point x="236.5" y="195"/>
      <point x="261" y="162.5"/>
      <point x="304.5" y="160.5" type="curve" smooth="yes"/>
      <point x="347" y="158.5"/>
      <point x="395" y="193"/>
      <point x="402" y="241" type="curve" smooth="yes"/>
      <point x="408.5" y="287.5"/>
      <point x="381.5" y="317.5"/>
      <point x="340.5" y="319.5" type="curve" smooth="yes"/>
      <point x="295.5" y="321.5"/>
      <point x="250" y="284.5"/>
    </contour>
    <contour>
      <point x="287.5" y="630.5" type="curve" smooth="yes"/>
      <point x="295" y="686.5"/>
      <point x="349" y="726.5"/>
      <point x="406" y="726.5" type="curve" smooth="yes"/>
      <point x="463.5" y="726.5"/>
      <point x="507" y="684.5"/>
      <point x="499.5" y="627.5" type="curve" smooth="yes"/>
      <point x="492" y="571.5"/>
      <point x="438" y="531.5"/>
      <point x="381" y="531.5" type="curve" smooth="yes"/>
      <point x="323.5" y="531.5"/>
      <point x="280" y="573.5"/>
    </contour>
  </outline>
</glyph>
<glyph name="uni0123" format="1">
  <advance width="553"/>
  <unicode hex="0123"/>
  <outline>
    <contour>
      <point x="-73.2399" y="-34.4516" type="curve"/>
      <point x="106.917" y="-35.5026" type="line"/>
      <point x="112.667" y="-78.1713"/>
      <point x="129.763" y="-93.7771"/>
      <point x="169.712" y="-94.6504" type="curve" smooth="yes"/>
      <point x="230.882" y="-96.0148"/>
      <point x="272.259" y="-48.6029"/>
      <point x="283.657" y="10.4221" type="curve"/>
      <point x="362.082" y="459.895" type="line"/>
      <point x="547.232" y="459.89" type="line"/>
      <point x="471.035" y="9.66953" type="line" smooth="yes"/>
      <point x="445.223" y="-158.821"/>
      <point x="330.245" y="-244.225"/>
      <point x="171.902" y="-244.735" type="curve" smooth="yes"/>
      <point x="4.7528" y="-245.175"/>
      <point x="-66.172" y="-166.479"/>
    </contour>
    <contour>
      <point x="-34.4972" y="240.37" type="curve" smooth="yes"/>
      <point x="-18.1849" y="378.483"/>
      <point x="88.3071" y="469.704"/>
      <point x="204.943" y="469.861" type="curve" smooth="yes"/>
      <point x="327.312" y="470.019"/>
      <point x="389.218" y="367.956"/>
      <point x="374.14" y="239.672" type="curve" smooth="yes"/>
      <point x="358.051" y="107.782"/>
      <point x="265.612" y="10.596"/>
      <point x="144.401" y="10.1753" type="curve" smooth="yes"/>
      <point x="27.3122" y="9.7488"/>
      <point x="-49.9055" y="105.505"/>
    </contour>
    <contour>
      <point x="168.385" y="238.715" type="curve" smooth="yes"/>
      <point x="161.922" y="195.79"/>
      <point x="184.489" y="162.608"/>
      <point x="227.834" y="160.555" type="curve" smooth="yes"/>
      <point x="270.429" y="158.329"/>
      <point x="316.067" y="193.144"/>
      <point x="323.524" y="241.306" type="curve" smooth="yes"/>
      <point x="329.964" y="286.714"/>
      <point x="307.999" y="317.525"/>
      <point x="267.087" y="319.448" type="curve" smooth="yes"/>
      <point x="222.042" y="321.521"/>
      <point x="175.859" y="284.361"/>
    </contour>
    <contour>
      <point x="313.251" y="540.084" type="line"/>
      <point x="132.614" y="607.245" type="line"/>
      <point x="333.862" y="827.938" type="line"/>
      <point x="474.593" y="776.796" type="line"/>
    </contour>
  </outline>
</glyph>
<glyph name="hcircumflex" format="1">
  <advance width="577"/>
  <unicode hex="0125"/>
  <outline>
    <contour>
      <point x="346" y="780" type="line"/>
      <point x="212" y="0" type="line"/>
      <point x="19.5" y="0" type="line"/>
      <point x="153" y="780" type="line"/>
    </contour>
    <contour>
      <point x="361" y="280" type="line"/>
      <point x="364" y="311.5"/>
      <point x="365.5" y="341"/>
      <point x="329.5" y="345" type="curve" smooth="yes"/>
      <point x="294" y="349"/>
      <point x="268.5" y="315"/>
      <point x="260.5" y="280.5" type="curve"/>
      <point x="232.5" y="281" type="line"/>
      <point x="250.5" y="384.5"/>
      <point x="304.5" y="480"/>
      <point x="425" y="481" type="curve" smooth="yes"/>
      <point x="542" y="482"/>
      <point x="568.5" y="410"/>
      <point x="555.5" y="310" type="curve"/>
      <point x="503" y="0" type="line"/>
      <point x="310.5" y="0" type="line"/>
    </contour>
    <contour>
      <point x="347.75" y="918.5" type="line"/>
      <point x="257.25" y="840" type="line"/>
      <point x="132.25" y="933.5" type="line"/>
      <point x="364.25" y="1070" type="line"/>
      <point x="558.75" y="926.5" type="line"/>
      <point x="411.75" y="839" type="line"/>
    </contour>
  </outline>
</glyph>
<glyph name="Hbar" format="1">
  <advance width="805"/>
  <unicode hex="0126"/>
  <outline>
    <contour>
      <point x="53.3697" y="265.166" type="line"/>
      <point x="87.5075" y="459.848" type="line"/>
      <point x="636.663" y="459.834" type="line"/>
      <point x="602.525" y="265.151" type="line"/>
    </contour>
    <contour>
      <point x="538.859" y="699.902" type="line"/>
      <point x="758.024" y="699.888" type="line"/>
      <point x="637.95" y="0" type="line"/>
      <point x="418.785" y="0" type="line"/>
    </contour>
    <contour>
      <point x="82.7475" y="699.902" type="line"/>
      <point x="301.912" y="699.888" type="line"/>
      <point x="181.838" y="0" type="line"/>
      <point x="-37.3268" y="0" type="line"/>
    </contour>
    <contour>
      <point x="-9.22237" y="535.141" type="line"/>
      <point x="12.9009" y="659.871" type="line"/>
      <point x="814.398" y="659.858" type="line"/>
      <point x="792.275" y="535.129" type="line"/>
    </contour>
  </outline>
</glyph>
<glyph name="itilde" format="1">
  <advance width="277"/>
  <unicode hex="0129"/>
  <outline>
    <contour>
      <point x="97.5" y="460" type="line"/>
      <point x="282.5" y="460" type="line"/>
      <point x="203.5" y="0" type="line"/>
      <point x="18.5" y="0" type="line"/>
    </contour>
    <contour>
      <point x="6.5" y="616" type="line"/>
      <point x="28" y="665"/>
      <point x="74.5" y="717"/>
      <point x="144" y="715.5" type="curve" smooth="yes"/>
      <point x="200.5" y="714.5"/>
      <point x="222" y="660.5"/>
      <point x="274" y="662" type="curve" smooth="yes"/>
      <point x="306" y="663"/>
      <point x="332.5" y="690"/>
      <point x="355" y="717" type="curve"/>
      <point x="428" y="622" type="line"/>
      <point x="400" y="582"/>
      <point x="335.5" y="529"/>
      <point x="269" y="531.5" type="curve" smooth="yes"/>
      <point x="219" y="533.5"/>
      <point x="182.5" y="591"/>
      <point x="133.5" y="587" type="curve" smooth="yes"/>
      <point x="101" y="584.5"/>
      <point x="87" y="555"/>
      <point x="78.5" y="537" type="curve"/>
    </contour>
  </outline>
</glyph>
<glyph name="Imacron" format="1">
  <advance width="354"/>
  <unicode hex="012A"/>
  <outline>
    <contour>
      <point x="159" y="700" type="line"/>
      <point x="380.5" y="700" type="line"/>
      <point x="260.5" y="0" type="line"/>
      <point x="39" y="0" type="line"/>
    </contour>
    <contour>
      <point x="94" y="780" type="line"/>
      <point x="123" y="945" type="line"/>
      <point x="500" y="945" type="line"/>
      <point x="471" y="780" type="line"/>
    </contour>
  </outline>
</glyph>
<glyph name="ibreve" format="1">
  <advance width="277"/>
  <unicode hex="012D"/>
  <outline>
    <contour>
      <point x="97.5" y="460" type="line"/>
      <point x="282.5" y="460" type="line"/>
      <point x="203.5" y="0" type="line"/>
      <point x="18.5" y="0" type="line"/>
    </contour>
    <contour>
      <point x="61.5" y="681" type="curve"/>
      <point x="173" y="681" type="line"/>
      <point x="174" y="650"/>
      <point x="189" y="633.5"/>
      <point x="212.5" y="631.5" type="curve" smooth="yes"/>
      <point x="237" y="629.5"/>
      <point x="265" y="650.5"/>
      <point x="273" y="680.5" type="curve"/>
      <point x="390" y="679.5" type="line"/>
      <point x="372.5" y="593"/>
      <point x="307" y="532"/>
      <point x="207" y="531.5" type="curve" smooth="yes"/>
      <point x="107" y="531"/>
      <point x="56" y="593"/>
    </contour>
  </outline>
</glyph>
<glyph name="Iogonek" format="1">
  <advance width="354"/>
  <unicode hex="012E"/>
  <outline>
    <contour>
      <point x="159" y="700" type="line"/>
      <point x="380.5" y="700" type="line"/>
      <point x="260.5" y="0" type="line"/>
      <point x="39" y="0" type="line"/>
    </contour>
    <contour>
      <point x="205" y="-96.5" type="curve"/>
      <point x="227" y="-178.5" type="line"/>
      <point x="203" y="-199.5"/>
      <point x="170.5" y="-217.5"/>
      <point x="119" y="-217" type="curve" smooth="yes"/>
      <point x="63.5" y="-216"/>
      <point x="12" y="-180"/>
      <point x="19.5" y="-116" type="curve" smooth="yes"/>
      <point x="29" y="-43"/>
      <point x="111.5" y="-5"/>
      <point x="178.5" y="28" type="curve"/>
      <point x="220.5" y="0.5" type="line"/>
      <point x="176.5" y="-25.5"/>
      <point x="140" y="-53"/>
      <point x="133" y="-87.5" type="curve" smooth="yes"/>
      <point x="131" y="-102"/>
      <point x="135" y="-115"/>
      <point x="152" y="-116.5" type="curve" smooth="yes"/>
      <point x="168.5" y="-118"/>
      <point x="190.5" y="-106.5"/>
    </contour>
  </outline>
</glyph>
<glyph name="iogonek" format="1">
  <advance width="277"/>
  <unicode hex="012F"/>
  <outline>
    <contour>
      <point x="112" y="623.5" type="curve" smooth="yes"/>
      <point x="119.5" y="679.5"/>
      <point x="173" y="719.5"/>
      <point x="230" y="719.5" type="curve" smooth="yes"/>
      <point x="287.5" y="719.5"/>
      <point x="331.5" y="677.5"/>
      <point x="324" y="620.5" type="curve" smooth="yes"/>
      <point x="316.5" y="564.5"/>
      <point x="262.5" y="524.5"/>
      <point x="205.5" y="524.5" type="curve" smooth="yes"/>
      <point x="148" y="524.5"/>
      <point x="104.5" y="566.5"/>
    </contour>
    <contour>
      <point x="97.5" y="460" type="line"/>
      <point x="282.5" y="460" type="line"/>
      <point x="203.5" y="0" type="line"/>
      <point x="18.5" y="0" type="line"/>
    </contour>
    <contour>
      <point x="149.5" y="-99.5" type="curve"/>
      <point x="170" y="-181.5" type="line"/>
      <point x="146" y="-202.5"/>
      <point x="113.5" y="-220.5"/>
      <point x="62" y="-220" type="curve" smooth="yes"/>
      <point x="6.5" y="-219"/>
      <point x="-43.5" y="-183"/>
      <point x="-36" y="-119" type="curve" smooth="yes"/>
      <point x="-26" y="-46"/>
      <point x="56" y="-8"/>
      <point x="123" y="25" type="curve"/>
      <point x="164" y="0" type="line"/>
      <point x="121.5" y="-28.5"/>
      <point x="84" y="-55.5"/>
      <point x="77" y="-90.5" type="curve" smooth="yes"/>
      <point x="75.5" y="-105"/>
      <point x="79" y="-118"/>
      <point x="96" y="-119.5" type="curve" smooth="yes"/>
      <point x="112.5" y="-121"/>
      <point x="135" y="-109.5"/>
    </contour>
  </outline>
</glyph>
<glyph name="ij" format="1">
  <advance width="549"/>
  <unicode hex="0133"/>
  <outline>
    <contour>
      <point x="383.5" y="623.5" type="curve" smooth="yes"/>
      <point x="391" y="679.5"/>
      <point x="445" y="719.5"/>
      <point x="502" y="719.5" type="curve" smooth="yes"/>
      <point x="559.5" y="719.5"/>
      <point x="603" y="677.5"/>
      <point x="595.5" y="620.5" type="curve" smooth="yes"/>
      <point x="588" y="564.5"/>
      <point x="534" y="524.5"/>
      <point x="477" y="524.5" type="curve" smooth="yes"/>
      <point x="419.5" y="524.5"/>
      <point x="376" y="566.5"/>
    </contour>
    <contour>
      <point x="189" y="-55.5" type="line"/>
      <point x="199.5" y="-62.5"/>
      <point x="213.5" y="-80"/>
      <point x="228" y="-80.5" type="curve" smooth="yes"/>
      <point x="257.5" y="-82.5"/>
      <point x="280.5" y="-53.5"/>
      <point x="286" y="-24.5" type="curve"/>
      <point x="370.5" y="460" type="line"/>
      <point x="553" y="460" type="line"/>
      <point x="461.5" y="-80.5" type="line" smooth="yes"/>
      <point x="442.5" y="-180.5"/>
      <point x="365.5" y="-250"/>
      <point x="243.5" y="-249.5" type="curve" smooth="yes"/>
      <point x="174.5" y="-249.5"/>
      <point x="133" y="-219.5"/>
      <point x="100.5" y="-191.5" type="curve"/>
    </contour>
    <contour>
      <point x="112" y="623.5" type="curve" smooth="yes"/>
      <point x="119.5" y="679.5"/>
      <point x="173" y="719.5"/>
      <point x="230" y="719.5" type="curve" smooth="yes"/>
      <point x="287.5" y="719.5"/>
      <point x="331.5" y="677.5"/>
      <point x="324" y="620.5" type="curve" smooth="yes"/>
      <point x="316.5" y="564.5"/>
      <point x="262.5" y="524.5"/>
      <point x="205.5" y="524.5" type="curve" smooth="yes"/>
      <point x="148" y="524.5"/>
      <point x="104.5" y="566.5"/>
    </contour>
    <contour>
      <point x="97.5" y="460" type="line"/>
      <point x="282.5" y="460" type="line"/>
      <point x="203.5" y="0" type="line"/>
      <point x="18.5" y="0" type="line"/>
    </contour>
  </outline>
</glyph>
<glyph name="uni0137" format="1">
  <advance width="640"/>
  <unicode hex="0137"/>
  <outline>
    <contour>
      <point x="153" y="780" type="line"/>
      <point x="336" y="780" type="line"/>
      <point x="202.5" y="0" type="line"/>
      <point x="19.5" y="0" type="line"/>
    </contour>
    <contour>
      <point x="435.5" y="459.5" type="line"/>
      <point x="668.5" y="459.5" type="line"/>
      <point x="440" y="266" type="line"/>
      <point x="601" y="0" type="line"/>
      <point x="388" y="0" type="line"/>
      <point x="219" y="275" type="line"/>
    </contour>
    <contour>
      <point x="208" y="-61" type="line"/>
      <point x="398.5" y="-96" type="line"/>
      <point x="225" y="-343" type="line"/>
      <point x="78.5" y="-317" type="line"/>
    </contour>
  </outline>
</glyph>
<glyph name="uni013B" format="1">
  <advance width="558"/>
  <unicode hex="013B"/>
  <outline>
    <contour>
      <point x="159" y="700" type="line"/>
      <point x="376" y="700" type="line"/>
      <point x="287.5" y="185" type="line"/>
      <point x="564.5" y="185" type="line"/>
      <point x="532" y="0" type="line"/>
      <point x="39" y="0" type="line"/>
    </contour>
    <contour>
      <point x="220.5" y="-61" type="line"/>
      <point x="410.5" y="-96" type="line"/>
      <point x="237.5" y="-343" type="line"/>
      <point x="91" y="-317" type="line"/>
    </contour>
  </outline>
</glyph>
<glyph name="Lcaron" format="1">
  <advance width="558"/>
  <unicode hex="013D"/>
  <outline>
    <contour>
      <point x="159" y="700" type="line"/>
      <point x="376" y="700" type="line"/>
      <point x="287.5" y="185" type="line"/>
      <point x="564.5" y="185" type="line"/>
      <point x="532" y="0" type="line"/>
      <point x="39" y="0" type="line"/>
    </contour>
    <contour>
      <point x="542" y="719" type="line"/>
      <point x="731.5" y="684" type="line"/>
      <point x="559" y="437" type="line"/>
      <point x="412.5" y="463" type="line"/>
    </contour>
  </outline>
</glyph>
<glyph name="lcaron" format="1">
  <advance width="286"/>
  <unicode hex="013E"/>
  <outline>
    <contour>
      <point x="153" y="780" type="line"/>
      <point x="346" y="780" type="line"/>
      <point x="212" y="0" type="line"/>
      <point x="19.5" y="0" type="line"/>
    </contour>
    <contour>
      <point x="474.5" y="779" type="line"/>
      <point x="664.5" y="744" type="line"/>
      <point x="491.5" y="497" type="line"/>
      <point x="345" y="523" type="line"/>
    </contour>
  </outline>
</glyph>
<glyph name="ldot" format="1">
  <advance width="525"/>
  <unicode hex="0140"/>
  <outline>
    <contour>
      <point x="153" y="780" type="line"/>
      <point x="346" y="780" type="line"/>
      <point x="212" y="0" type="line"/>
      <point x="19.5" y="0" type="line"/>
    </contour>
    <contour>
      <point x="307.5" y="406" type="curve" smooth="yes"/>
      <point x="316" y="467.5"/>
      <point x="372" y="519.5"/>
      <point x="438.5" y="519.5" type="curve" smooth="yes"/>
      <point x="505.5" y="519.5"/>
      <point x="547.5" y="465"/>
      <point x="539" y="404" type="curve" smooth="yes"/>
      <point x="530.5" y="342.5"/>
      <point x="475" y="290.5"/>
      <point x="408.5" y="290.5" type="curve" smooth="yes"/>
      <point x="341.5" y="290.5"/>
      <point x="299" y="345"/>
    </contour>
  </outline>
</glyph>
<glyph name="Nacute" format="1">
  <advance width="781"/>
  <unicode hex="0143"/>
  <outline>
    <contour>
      <point x="600.5" y="700" type="line"/>
      <point x="807.5" y="700" type="line"/>
      <point x="682.5" y="-33" type="line"/>
      <point x="301" y="318.296" type="line"/>
      <point x="246" y="0" type="line"/>
      <point x="39" y="0" type="line"/>
      <point x="164" y="733" type="line"/>
      <point x="545" y="381.704" type="line"/>
    </contour>
    <contour>
      <point x="654.5" y="911.5" type="line"/>
      <point x="458" y="765.5" type="line"/>
      <point x="353" y="818.5" type="line"/>
      <point x="522.5" y="974" type="line"/>
    </contour>
  </outline>
</glyph>
<glyph name="uni0145" format="1">
  <advance width="781"/>
  <unicode hex="0145"/>
  <outline>
    <contour>
      <point x="290.5" y="-66" type="line"/>
      <point x="479.5" y="-101" type="line"/>
      <point x="307.5" y="-348" type="line"/>
      <point x="161" y="-322" type="line"/>
    </contour>
    <contour>
      <point x="600.5" y="700" type="line"/>
      <point x="807.5" y="700" type="line"/>
      <point x="682.5" y="-33" type="line"/>
      <point x="301" y="318.296" type="line"/>
      <point x="246" y="0" type="line"/>
      <point x="39" y="0" type="line"/>
      <point x="164" y="733" type="line"/>
      <point x="545" y="381.704" type="line"/>
    </contour>
  </outline>
</glyph>
<glyph name="napostrophe" format="1">
  <advance width="790"/>
  <unicode hex="0149"/>
  <outline>
    <contour>
      <point x="495" y="460" type="line"/>
      <point x="416" y="0" type="line"/>
      <point x="223" y="0" type="line"/>
      <point x="302.5" y="460" type="line"/>
    </contour>
    <contour>
      <point x="564.5" y="280" type="line"/>
      <point x="567.5" y="311.5"/>
      <point x="569" y="341"/>
      <point x="533" y="345" type="curve" smooth="yes"/>
      <point x="497.5" y="349"/>
      <point x="472" y="315"/>
      <point x="464" y="280.5" type="curve"/>
      <point x="435.5" y="271" type="line"/>
      <point x="453" y="374.5"/>
      <point x="506.5" y="470"/>
      <point x="627" y="471" type="curve" smooth="yes"/>
      <point x="743.5" y="472"/>
      <point x="780" y="401.5"/>
      <point x="767" y="300" type="curve"/>
      <point x="716.5" y="0" type="line"/>
      <point x="514" y="0" type="line"/>
    </contour>
    <contour>
      <point x="187" y="700" type="line"/>
      <point x="383" y="699.5" type="line"/>
      <point x="234" y="430.5" type="line"/>
      <point x="91.5" y="430.5" type="line"/>
    </contour>
  </outline>
</glyph>
<glyph name="eng" format="1">
  <advance width="605"/>
  <unicode hex="014B"/>
  <outline>
    <contour>
      <point x="250" y="-250" type="curve" smooth="yes"/>
      <point x="194" y="-250"/>
      <point x="152" y="-233"/>
      <point x="108.5" y="-193" type="curve"/>
      <point x="203" y="-55" type="line"/>
      <point x="216" y="-73"/>
      <point x="227.5" y="-80"/>
      <point x="243.5" y="-80" type="curve" smooth="yes"/>
      <point x="273.5" y="-80"/>
      <point x="295" y="-60"/>
      <point x="301" y="-25" type="curve" smooth="yes"/>
      <point x="352" y="280" type="line" smooth="yes"/>
      <point x="360" y="328"/>
      <point x="350" y="346"/>
      <point x="315" y="346" type="curve" smooth="yes"/>
      <point x="277" y="346"/>
      <point x="254" y="323"/>
      <point x="246" y="275" type="curve" smooth="yes"/>
      <point x="200" y="0" type="line"/>
      <point x="5" y="0" type="line"/>
      <point x="82" y="460" type="line"/>
      <point x="277" y="460" type="line"/>
      <point x="266" y="394" type="line"/>
      <point x="302.5" y="444"/>
      <point x="355" y="471"/>
      <point x="421" y="471" type="curve" smooth="yes"/>
      <point x="537" y="471"/>
      <point x="579.5" y="418"/>
      <point x="560" y="300" type="curve" smooth="yes"/>
      <point x="496.5" y="-80" type="line" smooth="yes"/>
      <point x="478.5" y="-187"/>
      <point x="387" y="-250"/>
    </contour>
  </outline>
</glyph>
<glyph name="Obreve" format="1">
  <advance width="815"/>
  <unicode hex="014E"/>
  <outline>
    <contour>
      <point x="289" y="350" type="curve" smooth="yes"/>
      <point x="275" y="262"/>
      <point x="307.5" y="180"/>
      <point x="405" y="178.5" type="curve" smooth="yes"/>
      <point x="503.5" y="177"/>
      <point x="574.5" y="255.5"/>
      <point x="591.5" y="350" type="curve" smooth="yes"/>
      <point x="606" y="438.5"/>
      <point x="576" y="520.5"/>
      <point x="475.5" y="521.5" type="curve" smooth="yes"/>
      <point x="377" y="522.5"/>
      <point x="305.5" y="444.5"/>
    </contour>
    <contour>
      <point x="60" y="350" type="curve" smooth="yes"/>
      <point x="92" y="564.5"/>
      <point x="278.5" y="720"/>
      <point x="497" y="720" type="curve" smooth="yes"/>
      <point x="714" y="720"/>
      <point x="850.5" y="558.5"/>
      <point x="820.5" y="350" type="curve" smooth="yes"/>
      <point x="788.5" y="134.5"/>
      <point x="607" y="-30.5"/>
      <point x="381.5" y="-30" type="curve" smooth="yes"/>
      <point x="160" y="-29.5"/>
      <point x="30" y="141.5"/>
    </contour>
    <contour>
      <point x="374" y="930" type="curve"/>
      <point x="485.5" y="930" type="line"/>
      <point x="486.5" y="899"/>
      <point x="501.5" y="882.5"/>
      <point x="525" y="880.5" type="curve" smooth="yes"/>
      <point x="549.5" y="878.5"/>
      <point x="577" y="899.5"/>
      <point x="585" y="929.5" type="curve"/>
      <point x="702" y="928.5" type="line"/>
      <point x="684.5" y="842"/>
      <point x="619" y="781"/>
      <point x="519" y="780.5" type="curve" smooth="yes"/>
      <point x="419" y="780"/>
      <point x="368.5" y="842"/>
    </contour>
  </outline>
</glyph>
<glyph name="racute" format="1">
  <advance width="439"/>
  <unicode hex="0155"/>
  <outline>
    <contour>
      <point x="286.5" y="460" type="line"/>
      <point x="207" y="0" type="line"/>
      <point x="19.5" y="0" type="line"/>
      <point x="98.5" y="460" type="line"/>
    </contour>
    <contour>
      <point x="380.5" y="262.5" type="line"/>
      <point x="368.5" y="277"/>
      <point x="353.5" y="289.5"/>
      <point x="330.5" y="290" type="curve" smooth="yes"/>
      <point x="287" y="291"/>
      <point x="252" y="247"/>
      <point x="241" y="195" type="curve"/>
      <point x="218" y="281" type="line"/>
      <point x="235" y="377"/>
      <point x="310.5" y="475"/>
      <point x="405" y="472" type="curve" smooth="yes"/>
      <point x="438.5" y="471"/>
      <point x="466" y="451.5"/>
      <point x="482" y="428" type="curve"/>
    </contour>
    <contour>
      <point x="507" y="678.5" type="line"/>
      <point x="310.5" y="532.5" type="line"/>
      <point x="205.5" y="585.5" type="line"/>
      <point x="375" y="741" type="line"/>
    </contour>
  </outline>
</glyph>
<glyph name="Rcaron" format="1">
  <advance width="679"/>
  <unicode hex="0158"/>
  <outline>
    <contour>
      <point x="292.5" y="300" type="line"/>
      <point x="507.5" y="300" type="line"/>
      <point x="650" y="0" type="line"/>
      <point x="406" y="0" type="line"/>
    </contour>
    <contour>
      <point x="159" y="700" type="line"/>
      <point x="376" y="700" type="line"/>
      <point x="255.5" y="0" type="line"/>
      <point x="39" y="0" type="line"/>
    </contour>
    <contour>
      <point x="266" y="515.5" type="line"/>
      <point x="297" y="700" type="line"/>
      <point x="440.5" y="700" type="line"/>
      <point x="614.5" y="698"/>
      <point x="714" y="606.5"/>
      <point x="691.5" y="460" type="curve" smooth="yes"/>
      <point x="668.5" y="313"/>
      <point x="550" y="222"/>
      <point x="370.5" y="220" type="curve"/>
      <point x="214" y="220" type="line"/>
      <point x="243.5" y="385" type="line"/>
      <point x="368" y="385" type="line"/>
      <point x="416.5" y="386.5"/>
      <point x="456.5" y="408"/>
      <point x="464.5" y="450.5" type="curve" smooth="yes"/>
      <point x="471.5" y="490.5"/>
      <point x="446" y="512.5"/>
      <point x="400" y="514.5" type="curve"/>
    </contour>
    <contour>
      <point x="465.5" y="931.5" type="line"/>
      <point x="556" y="1010" type="line"/>
      <point x="681" y="916.5" type="line"/>
      <point x="448.5" y="780" type="line"/>
      <point x="254" y="923.5" type="line"/>
      <point x="401.5" y="1011" type="line"/>
    </contour>
  </outline>
</glyph>
<glyph name="rcaron" format="1">
  <advance width="439"/>
  <unicode hex="0159"/>
  <outline>
    <contour>
      <point x="286.5" y="460" type="line"/>
      <point x="207" y="0" type="line"/>
      <point x="19.5" y="0" type="line"/>
      <point x="98.5" y="460" type="line"/>
    </contour>
    <contour>
      <point x="380.5" y="262.5" type="line"/>
      <point x="368.5" y="277"/>
      <point x="353.5" y="289.5"/>
      <point x="330.5" y="290" type="curve" smooth="yes"/>
      <point x="287" y="291"/>
      <point x="252" y="247"/>
      <point x="241" y="195" type="curve"/>
      <point x="217.5" y="281" type="line"/>
      <point x="234.5" y="377"/>
      <point x="310.5" y="475"/>
      <point x="405" y="472" type="curve" smooth="yes"/>
      <point x="438.5" y="471"/>
      <point x="466" y="451.5"/>
      <point x="482" y="428" type="curve"/>
    </contour>
    <contour>
      <point x="327" y="683.5" type="line"/>
      <point x="417.5" y="762" type="line"/>
      <point x="542.5" y="668.5" type="line"/>
      <point x="310.5" y="532" type="line"/>
      <point x="116" y="675.5" type="line"/>
      <point x="263" y="763" type="line"/>
    </contour>
  </outline>
</glyph>
<glyph name="Scedilla" format="1">
  <advance width="652"/>
  <unicode hex="015E"/>
  <outline>
    <contour>
      <point x="186.5" y="266" type="line"/>
      <point x="223" y="201"/>
      <point x="258.5" y="158"/>
      <point x="325" y="158.5" type="curve" smooth="yes"/>
      <point x="359.5" y="158.5"/>
      <point x="392" y="170"/>
      <point x="398.5" y="200" type="curve" smooth="yes"/>
      <point x="408.5" y="243.5"/>
      <point x="343.5" y="256.5"/>
      <point x="289" y="280" type="curve" smooth="yes"/>
      <point x="209" y="316"/>
      <point x="115.5" y="385.5"/>
      <point x="130.5" y="510.5" type="curve" smooth="yes"/>
      <point x="150.5" y="641"/>
      <point x="277.5" y="720"/>
      <point x="426.5" y="720" type="curve" smooth="yes"/>
      <point x="568" y="720"/>
      <point x="651.5" y="653.5"/>
      <point x="679" y="562.5" type="curve"/>
      <point x="509" y="474.5" type="line"/>
      <point x="485.5" y="516"/>
      <point x="458.5" y="538.5"/>
      <point x="417" y="538.5" type="curve" smooth="yes"/>
      <point x="387" y="538.5"/>
      <point x="354.5" y="525.5"/>
      <point x="348.5" y="503" type="curve" smooth="yes"/>
      <point x="337.5" y="462"/>
      <point x="431" y="443"/>
      <point x="485" y="423" type="curve" smooth="yes"/>
      <point x="587.5" y="383.5"/>
      <point x="641" y="306.5"/>
      <point x="626.5" y="199.5" type="curve" smooth="yes"/>
      <point x="604" y="45"/>
      <point x="465" y="-30.5"/>
      <point x="300" y="-30" type="curve" smooth="yes"/>
      <point x="171.5" y="-29.5"/>
      <point x="62" y="42"/>
      <point x="27.5" y="159.5" type="curve"/>
    </contour>
    <contour>
      <point x="256.5" y="61.5" type="line"/>
      <point x="401" y="55.5" type="line"/>
      <point x="276.071" y="-72.2561" type="line"/>
      <point x="290.95" y="-68.63"/>
      <point x="307.648" y="-66"/>
      <point x="324.5" y="-66.5" type="curve" smooth="yes"/>
      <point x="376" y="-68.5"/>
      <point x="419.5" y="-114"/>
      <point x="411.5" y="-179" type="curve" smooth="yes"/>
      <point x="401" y="-254.5"/>
      <point x="323" y="-293.5"/>
      <point x="254" y="-295.5" type="curve" smooth="yes"/>
      <point x="191" y="-297"/>
      <point x="138" y="-283"/>
      <point x="83" y="-254" type="curve"/>
      <point x="145" y="-171" type="line"/>
      <point x="171.5" y="-187.5"/>
      <point x="208" y="-197"/>
      <point x="230.5" y="-196.5" type="curve" smooth="yes"/>
      <point x="256.5" y="-196"/>
      <point x="293.5" y="-185.5"/>
      <point x="295" y="-162" type="curve" smooth="yes"/>
      <point x="296.5" y="-137.5"/>
      <point x="259.5" y="-134.5"/>
      <point x="239" y="-134" type="curve" smooth="yes"/>
      <point x="217" y="-133"/>
      <point x="177.5" y="-137.5"/>
      <point x="139" y="-147.5" type="curve"/>
    </contour>
  </outline>
</glyph>
<glyph name="Utilde" format="1">
  <advance width="723"/>
  <unicode hex="0168"/>
  <outline>
    <contour>
      <point x="154" y="700" type="line"/>
      <point x="371" y="700" type="line"/>
      <point x="292" y="250" type="line" smooth="yes"/>
      <point x="286" y="201.5"/>
      <point x="299" y="157"/>
      <point x="356" y="155.5" type="curve" smooth="yes"/>
      <point x="414" y="154"/>
      <point x="450.5" y="199"/>
      <point x="460.5" y="250.5" type="curve"/>
      <point x="538.5" y="700" type="line"/>
      <point x="755" y="700" type="line"/>
      <point x="675.5" y="230" type="line" smooth="yes"/>
      <point x="646.5" y="49.5"/>
      <point x="503.5" y="-40"/>
      <point x="334" y="-40" type="curve" smooth="yes"/>
      <point x="170" y="-40"/>
      <point x="51" y="50"/>
      <point x="74.5" y="230" type="curve"/>
    </contour>
    <contour>
      <point x="272.721" y="864.173" type="line"/>
      <point x="293.721" y="913.173"/>
      <point x="340.221" y="965.673"/>
      <point x="409.721" y="964.173" type="curve" smooth="yes"/>
      <point x="466.221" y="963.173"/>
      <point x="489.221" y="909.173"/>
      <point x="541.221" y="910.673" type="curve" smooth="yes"/>
      <point x="573.221" y="911.673"/>
      <point x="597.721" y="938.673"/>
      <point x="619.721" y="965.673" type="curve"/>
      <point x="694.221" y="871.173" type="line"/>
      <point x="666.721" y="830.673"/>
      <point x="603.721" y="777.673"/>
      <point x="537.221" y="780.173" type="curve" smooth="yes"/>
      <point x="486.721" y="782.173"/>
      <point x="449.221" y="839.673"/>
      <point x="399.721" y="835.673" type="curve" smooth="yes"/>
      <point x="367.221" y="833.173"/>
      <point x="354.721" y="803.673"/>
      <point x="346.721" y="785.673" type="curve"/>
    </contour>
  </outline>
</glyph>
<glyph name="utilde" format="1">
  <advance width="587"/>
  <unicode hex="0169"/>
  <outline>
    <contour>
      <point x="320" y="0" type="line"/>
      <point x="399.5" y="460" type="line"/>
      <point x="592" y="460" type="line"/>
      <point x="513" y="0" type="line"/>
    </contour>
    <contour>
      <point x="250.5" y="180" type="line"/>
      <point x="247.5" y="148.5"/>
      <point x="246" y="119"/>
      <point x="282" y="115" type="curve" smooth="yes"/>
      <point x="317.5" y="111"/>
      <point x="343.5" y="145"/>
      <point x="351.5" y="179.5" type="curve"/>
      <point x="380" y="189" type="line"/>
      <point x="362.5" y="85.5"/>
      <point x="308.5" y="-10"/>
      <point x="188" y="-11" type="curve" smooth="yes"/>
      <point x="71.5" y="-12"/>
      <point x="35" y="58.5"/>
      <point x="48" y="160" type="curve"/>
      <point x="98.5" y="460" type="line"/>
      <point x="301" y="460" type="line"/>
    </contour>
    <contour>
      <point x="161.929" y="615.173" type="line"/>
      <point x="182.929" y="664.173"/>
      <point x="229.429" y="716.673"/>
      <point x="298.929" y="715.173" type="curve" smooth="yes"/>
      <point x="355.429" y="714.173"/>
      <point x="378.429" y="660.173"/>
      <point x="430.429" y="661.673" type="curve" smooth="yes"/>
      <point x="462.429" y="662.673"/>
      <point x="486.929" y="689.673"/>
      <point x="508.929" y="716.673" type="curve"/>
      <point x="583.429" y="622.173" type="line"/>
      <point x="555.929" y="581.673"/>
      <point x="492.929" y="528.673"/>
      <point x="426.429" y="531.173" type="curve" smooth="yes"/>
      <point x="375.929" y="533.173"/>
      <point x="338.429" y="590.673"/>
      <point x="288.929" y="586.673" type="curve" smooth="yes"/>
      <point x="256.429" y="584.173"/>
      <point x="243.929" y="554.673"/>
      <point x="235.929" y="536.673" type="curve"/>
    </contour>
  </outline>
</glyph>
<glyph name="Umacron" format="1">
  <advance width="723"/>
  <unicode hex="016A"/>
  <outline>
    <contour>
      <point x="154" y="700" type="line"/>
      <point x="371" y="700" type="line"/>
      <point x="292" y="250" type="line" smooth="yes"/>
      <point x="286" y="201.5"/>
      <point x="299" y="157"/>
      <point x="356" y="155.5" type="curve" smooth="yes"/>
      <point x="414" y="154"/>
      <point x="450.5" y="199"/>
      <point x="460.5" y="250.5" type="curve"/>
      <point x="538.5" y="700" type="line"/>
      <point x="755" y="700" type="line"/>
      <point x="675.5" y="230" type="line" smooth="yes"/>
      <point x="646.5" y="49.5"/>
      <point x="503.5" y="-40"/>
      <point x="334" y="-40" type="curve" smooth="yes"/>
      <point x="170" y="-40"/>
      <point x="51" y="50"/>
      <point x="74.5" y="230" type="curve"/>
    </contour>
    <contour>
      <point x="281.029" y="780" type="line"/>
      <point x="307.029" y="945" type="line"/>
      <point x="684.029" y="945" type="line"/>
      <point x="658.029" y="780" type="line"/>
    </contour>
  </outline>
</glyph>
<glyph name="Ubreve" format="1">
  <advance width="723"/>
  <unicode hex="016C"/>
  <outline>
    <contour>
      <point x="154" y="700" type="line"/>
      <point x="371" y="700" type="line"/>
      <point x="292" y="250" type="line" smooth="yes"/>
      <point x="286" y="201.5"/>
      <point x="299" y="157"/>
      <point x="356" y="155.5" type="curve" smooth="yes"/>
      <point x="414" y="154"/>
      <point x="450.5" y="199"/>
      <point x="460.5" y="250.5" type="curve"/>
      <point x="538.5" y="700" type="line"/>
      <point x="755" y="700" type="line"/>
      <point x="675.5" y="230" type="line" smooth="yes"/>
      <point x="646.5" y="49.5"/>
      <point x="503.5" y="-40"/>
      <point x="334" y="-40" type="curve" smooth="yes"/>
      <point x="170" y="-40"/>
      <point x="51" y="50"/>
      <point x="74.5" y="230" type="curve"/>
    </contour>
    <contour>
      <point x="329.929" y="929.506" type="curve"/>
      <point x="441.429" y="929.506" type="line"/>
      <point x="442.929" y="898.506"/>
      <point x="458.429" y="882.006"/>
      <point x="481.929" y="880.006" type="curve" smooth="yes"/>
      <point x="506.429" y="878.006"/>
      <point x="533.929" y="899.006"/>
      <point x="541.429" y="929.006" type="curve"/>
      <point x="657.929" y="928.506" type="line"/>
      <point x="641.429" y="842.006"/>
      <point x="576.929" y="780.506"/>
      <point x="476.929" y="780.006" type="curve" smooth="yes"/>
      <point x="377.429" y="779.506"/>
      <point x="325.429" y="841.006"/>
    </contour>
  </outline>
</glyph>
<glyph name="ubreve" format="1">
  <advance width="587"/>
  <unicode hex="016D"/>
  <outline>
    <contour>
      <point x="320" y="0" type="line"/>
      <point x="399.5" y="460" type="line"/>
      <point x="592" y="460" type="line"/>
      <point x="513" y="0" type="line"/>
    </contour>
    <contour>
      <point x="250.5" y="180" type="line"/>
      <point x="247.5" y="148.5"/>
      <point x="246" y="119"/>
      <point x="282" y="115" type="curve" smooth="yes"/>
      <point x="317.5" y="111"/>
      <point x="343.5" y="145"/>
      <point x="351.5" y="179.5" type="curve"/>
      <point x="380" y="189" type="line"/>
      <point x="362.5" y="85.5"/>
      <point x="308.5" y="-10"/>
      <point x="188" y="-11" type="curve" smooth="yes"/>
      <point x="71.5" y="-12"/>
      <point x="35" y="58.5"/>
      <point x="48" y="160" type="curve"/>
      <point x="98.5" y="460" type="line"/>
      <point x="301" y="460" type="line"/>
    </contour>
    <contour>
      <point x="219.136" y="680.506" type="curve"/>
      <point x="330.636" y="680.506" type="line"/>
      <point x="332.136" y="649.506"/>
      <point x="347.636" y="633.006"/>
      <point x="371.136" y="631.006" type="curve" smooth="yes"/>
      <point x="395.636" y="629.006"/>
      <point x="423.136" y="650.006"/>
      <point x="430.636" y="680.006" type="curve"/>
      <point x="547.136" y="679.506" type="line"/>
      <point x="530.636" y="593.006"/>
      <point x="466.136" y="531.506"/>
      <point x="366.136" y="531.006" type="curve" smooth="yes"/>
      <point x="266.636" y="530.506"/>
      <point x="214.636" y="592.006"/>
    </contour>
  </outline>
</glyph>
<glyph name="uring" format="1">
  <advance width="587"/>
  <unicode hex="016F"/>
  <outline>
    <contour>
      <point x="320" y="0" type="line"/>
      <point x="399.5" y="460" type="line"/>
      <point x="592" y="460" type="line"/>
      <point x="513" y="0" type="line"/>
    </contour>
    <contour>
      <point x="250.5" y="180" type="line"/>
      <point x="247.5" y="148.5"/>
      <point x="246" y="119"/>
      <point x="282" y="115" type="curve" smooth="yes"/>
      <point x="317.5" y="111"/>
      <point x="343.5" y="145"/>
      <point x="351.5" y="179.5" type="curve"/>
      <point x="380" y="189" type="line"/>
      <point x="362.5" y="85.5"/>
      <point x="308.5" y="-10"/>
      <point x="188" y="-11" type="curve" smooth="yes"/>
      <point x="71.5" y="-12"/>
      <point x="35" y="58.5"/>
      <point x="48" y="160" type="curve"/>
      <point x="98.5" y="460" type="line"/>
      <point x="301" y="460" type="line"/>
    </contour>
    <contour>
      <point x="242.25" y="657" type="curve" smooth="yes"/>
      <point x="251.75" y="728.5"/>
      <point x="318.25" y="780.5"/>
      <point x="393.75" y="780.5" type="curve" smooth="yes"/>
      <point x="469.25" y="780.5"/>
      <point x="524.75" y="727.5"/>
      <point x="514.75" y="655" type="curve" smooth="yes"/>
      <point x="505.25" y="583"/>
      <point x="437.25" y="531.5"/>
      <point x="361.25" y="531.5" type="curve" smooth="yes"/>
      <point x="285.75" y="531.5"/>
      <point x="232.25" y="585"/>
    </contour>
    <contour>
      <point x="335.75" y="655" type="curve" smooth="yes"/>
      <point x="333.25" y="633.5"/>
      <point x="344.75" y="613.5"/>
      <point x="366.75" y="612.5" type="curve" smooth="yes"/>
      <point x="390.25" y="611.5"/>
      <point x="416.75" y="633.5"/>
      <point x="420.25" y="657" type="curve" smooth="yes"/>
      <point x="422.75" y="678.5"/>
      <point x="410.25" y="699.5"/>
      <point x="388.25" y="700.5" type="curve" smooth="yes"/>
      <point x="364.75" y="701.5"/>
      <point x="339.25" y="678.5"/>
    </contour>
  </outline>
</glyph>
<glyph name="Wcircumflex" format="1">
  <advance width="1077"/>
  <unicode hex="0174"/>
  <outline>
    <contour>
      <point x="760.089" y="353.32" type="line"/>
      <point x="908" y="700" type="line"/>
      <point x="1171.5" y="699.5" type="line"/>
      <point x="744.5" y="-46.5" type="line"/>
      <point x="571" y="301" type="line"/>
      <point x="287" y="-48" type="line"/>
      <point x="91.5" y="700" type="line"/>
      <point x="348" y="700" type="line"/>
      <point x="388.411" y="356.32" type="line"/>
      <point x="633.5" y="738" type="line"/>
    </contour>
    <contour>
      <point x="661.979" y="877.5" type="line"/>
      <point x="571.479" y="799" type="line"/>
      <point x="446.479" y="892.5" type="line"/>
      <point x="678.479" y="1029" type="line"/>
      <point x="872.979" y="885.5" type="line"/>
      <point x="725.979" y="798" type="line"/>
    </contour>
  </outline>
</glyph>
<glyph name="wcircumflex" format="1">
  <advance width="786"/>
  <unicode hex="0175"/>
  <outline>
    <contour>
      <point x="38.5" y="460" type="line"/>
      <point x="230.5" y="460" type="line"/>
      <point x="276.951" y="266.916" type="line"/>
      <point x="449" y="497.5" type="line"/>
      <point x="540.049" y="265.416" type="line"/>
      <point x="654.5" y="459.5" type="line"/>
      <point x="856.5" y="459.5" type="line"/>
      <point x="519" y="-27" type="line"/>
      <point x="405" y="208.395" type="line"/>
      <point x="207.5" y="-27.5" type="line"/>
    </contour>
    <contour>
      <point x="477.479" y="637" type="line"/>
      <point x="386.979" y="558.5" type="line"/>
      <point x="261.979" y="652" type="line"/>
      <point x="493.979" y="788.5" type="line"/>
      <point x="688.479" y="645" type="line"/>
      <point x="541.479" y="557.5" type="line"/>
    </contour>
  </outline>
</glyph>
<glyph name="Ycircumflex" format="1">
  <advance width="698"/>
  <unicode hex="0176"/>
  <outline>
    <contour>
      <point x="545" y="699.5" type="line"/>
      <point x="800.5" y="699.5" type="line"/>
      <point x="479" y="269.854" type="line"/>
      <point x="433.5" y="0" type="line"/>
      <point x="211.5" y="0" type="line"/>
      <point x="261" y="279.009" type="line"/>
      <point x="89" y="700" type="line"/>
      <point x="334" y="700" type="line"/>
      <point x="401" y="477.5" type="line"/>
    </contour>
    <contour>
      <point x="467.157" y="859.5" type="line"/>
      <point x="376.657" y="781" type="line"/>
      <point x="251.657" y="874.5" type="line"/>
      <point x="483.657" y="1011" type="line"/>
      <point x="678.157" y="867.5" type="line"/>
      <point x="531.157" y="780" type="line"/>
    </contour>
  </outline>
</glyph>
<glyph name="ycircumflex" format="1">
  <advance width="553"/>
  <unicode hex="0177"/>
  <outline>
    <contour>
      <point x="623.5" y="459.5" type="line"/>
      <point x="215.5" y="-219.5" type="line"/>
      <point x="23.5" y="-219.5" type="line"/>
      <point x="169.5" y="25.5" type="line"/>
      <point x="38" y="460" type="line"/>
      <point x="240" y="460" type="line"/>
      <point x="321" y="85" type="line"/>
      <point x="216" y="85.5" type="line"/>
      <point x="426.5" y="459.5" type="line"/>
    </contour>
    <contour>
      <point x="351.864" y="610.5" type="line"/>
      <point x="261.364" y="532" type="line"/>
      <point x="136.364" y="625.5" type="line"/>
      <point x="368.364" y="762" type="line"/>
      <point x="562.864" y="618.5" type="line"/>
      <point x="415.864" y="531" type="line"/>
    </contour>
  </outline>
</glyph>
<glyph name="Ydieresis" format="1">
  <advance width="698"/>
  <unicode hex="0178"/>
  <outline>
    <contour>
      <point x="209" y="896.5" type="curve" smooth="yes"/>
      <point x="216.5" y="952.5"/>
      <point x="270.5" y="992.5"/>
      <point x="327.5" y="992.5" type="curve" smooth="yes"/>
      <point x="385" y="992.5"/>
      <point x="428.5" y="950.5"/>
      <point x="421" y="893.5" type="curve" smooth="yes"/>
      <point x="413.5" y="837.5"/>
      <point x="359.5" y="797.5"/>
      <point x="302.5" y="797.5" type="curve" smooth="yes"/>
      <point x="245" y="797.5"/>
      <point x="201.5" y="839.5"/>
    </contour>
    <contour>
      <point x="529" y="896.5" type="curve" smooth="yes"/>
      <point x="536.5" y="952.5"/>
      <point x="590.5" y="992.5"/>
      <point x="647.5" y="992.5" type="curve" smooth="yes"/>
      <point x="705" y="992.5"/>
      <point x="748.5" y="950.5"/>
      <point x="741" y="893.5" type="curve" smooth="yes"/>
      <point x="733.5" y="837.5"/>
      <point x="679.5" y="797.5"/>
      <point x="622.5" y="797.5" type="curve" smooth="yes"/>
      <point x="565" y="797.5"/>
      <point x="521.5" y="839.5"/>
    </contour>
    <contour>
      <point x="545" y="699.5" type="line"/>
      <point x="800.5" y="699.5" type="line"/>
      <point x="479" y="269.853" type="line"/>
      <point x="433.5" y="0" type="line"/>
      <point x="211.5" y="0" type="line"/>
      <point x="261" y="279.01" type="line"/>
      <point x="89" y="700" type="line"/>
      <point x="334" y="700" type="line"/>
      <point x="401" y="477.5" type="line"/>
    </contour>
  </outline>
</glyph>
<glyph name="Zacute" format="1">
  <advance width="645"/>
  <unicode hex="0179"/>
  <outline>
    <contour>
      <point x="125" y="505" type="line"/>
      <point x="159" y="700" type="line"/>
      <point x="732.5" y="699.5" type="line"/>
      <point x="345.5" y="185.5" type="line"/>
      <point x="598.5" y="185" type="line"/>
      <point x="566" y="0" type="line"/>
      <point x="-27" y="0" type="line"/>
      <point x="352" y="504.5" type="line"/>
    </contour>
    <contour>
      <point x="659" y="926.5" type="line"/>
      <point x="462.5" y="780.5" type="line"/>
      <point x="357.5" y="833.5" type="line"/>
      <point x="527" y="989" type="line"/>
    </contour>
  </outline>
</glyph>
<glyph name="zacute" format="1">
  <advance width="543"/>
  <unicode hex="017A"/>
  <outline>
    <contour>
      <point x="240" y="284.5" type="line"/>
      <point x="82.5" y="285.5" type="line"/>
      <point x="113" y="460" type="line"/>
      <point x="585" y="459.5" type="line"/>
      <point x="346" y="175.5" type="line"/>
      <point x="495" y="174.5" type="line"/>
      <point x="464.5" y="0" type="line"/>
      <point x="-17.5" y="0" type="line"/>
    </contour>
    <contour>
      <point x="561" y="677.5" type="line"/>
      <point x="364.5" y="531.5" type="line"/>
      <point x="259.5" y="584.5" type="line"/>
      <point x="429" y="740" type="line"/>
    </contour>
  </outline>
</glyph>
<glyph name="uni0213" format="1">
  <advance width="439"/>
  <unicode hex="0213"/>
  <outline>
    <contour>
      <point x="286.5" y="460" type="line"/>
      <point x="207" y="0" type="line"/>
      <point x="19.5" y="0" type="line"/>
      <point x="98.5" y="460" type="line"/>
    </contour>
    <contour>
      <point x="380.5" y="262.5" type="line"/>
      <point x="368.5" y="277"/>
      <point x="353.5" y="289.5"/>
      <point x="330.5" y="290" type="curve" smooth="yes"/>
      <point x="287" y="291"/>
      <point x="252" y="247"/>
      <point x="241" y="195" type="curve"/>
      <point x="217.5" y="281" type="line"/>
      <point x="234.5" y="377"/>
      <point x="310.5" y="475"/>
      <point x="405" y="472" type="curve" smooth="yes"/>
      <point x="438.5" y="471"/>
      <point x="466" y="451.5"/>
      <point x="482" y="428" type="curve"/>
    </contour>
    <contour>
      <point x="141" y="531" type="curve"/>
      <point x="249.5" y="532" type="line"/>
      <point x="257" y="562"/>
      <point x="284" y="583.5"/>
      <point x="308.5" y="582" type="curve" smooth="yes"/>
      <point x="334" y="580.5"/>
      <point x="350.5" y="564.5"/>
      <point x="352.5" y="531.5" type="curve"/>
      <point x="465.5" y="532" type="line"/>
      <point x="476.5" y="616.5"/>
      <point x="436.5" y="680.5"/>
      <point x="336.5" y="681.5" type="curve" smooth="yes"/>
      <point x="233" y="682.5"/>
      <point x="165" y="616.5"/>
    </contour>
  </outline>
</glyph>
<glyph name="uni0218" format="1">
  <advance width="652"/>
  <unicode hex="0218"/>
  <outline>
    <contour>
      <point x="186.5" y="266" type="line"/>
      <point x="223" y="201"/>
      <point x="258.5" y="158"/>
      <point x="325" y="158.5" type="curve" smooth="yes"/>
      <point x="359.5" y="158.5"/>
      <point x="392" y="170"/>
      <point x="398.5" y="200" type="curve" smooth="yes"/>
      <point x="408.5" y="243.5"/>
      <point x="343.5" y="256.5"/>
      <point x="289" y="280" type="curve" smooth="yes"/>
      <point x="209" y="316"/>
      <point x="115.5" y="385.5"/>
      <point x="130.5" y="510.5" type="curve" smooth="yes"/>
      <point x="150.5" y="641"/>
      <point x="277.5" y="720"/>
      <point x="426.5" y="720" type="curve" smooth="yes"/>
      <point x="568" y="720"/>
      <point x="651.5" y="653.5"/>
      <point x="679" y="562.5" type="curve"/>
      <point x="509" y="474.5" type="line"/>
      <point x="485.5" y="516"/>
      <point x="458.5" y="538.5"/>
      <point x="417" y="538.5" type="curve" smooth="yes"/>
      <point x="387" y="538.5"/>
      <point x="354.5" y="525.5"/>
      <point x="348.5" y="503" type="curve" smooth="yes"/>
      <point x="337.5" y="462"/>
      <point x="431" y="443"/>
      <point x="485" y="423" type="curve" smooth="yes"/>
      <point x="587.5" y="383.5"/>
      <point x="641" y="306.5"/>
      <point x="626.5" y="199.5" type="curve" smooth="yes"/>
      <point x="604" y="45"/>
      <point x="465" y="-30.5"/>
      <point x="300" y="-30" type="curve" smooth="yes"/>
      <point x="171.5" y="-29.5"/>
      <point x="62" y="42"/>
      <point x="27.5" y="159.5" type="curve"/>
    </contour>
    <contour>
      <point x="192.5" y="-71" type="line"/>
      <point x="383.5" y="-106" type="line"/>
      <point x="209.5" y="-353" type="line"/>
      <point x="63" y="-327" type="line"/>
    </contour>
  </outline>
</glyph>
<glyph name="uni021A" format="1">
  <advance width="601"/>
  <unicode hex="021A"/>
  <outline>
    <contour>
      <point x="57" y="505" type="line"/>
      <point x="91" y="700" type="line"/>
      <point x="696" y="700" type="line"/>
      <point x="662" y="505" type="line"/>
      <point x="468.5" y="505" type="line"/>
      <point x="382" y="0" type="line"/>
      <point x="165" y="0" type="line"/>
      <point x="251.5" y="505" type="line"/>
    </contour>
    <contour>
      <point x="208.364" y="-60" type="line"/>
      <point x="398.364" y="-95" type="line"/>
      <point x="225.364" y="-342" type="line"/>
      <point x="78.8643" y="-316" type="line"/>
    </contour>
  </outline>
</glyph>
<glyph name="uni021B" format="1">
  <advance width="354"/>
  <unicode hex="021B"/>
  <outline>
    <contour>
      <point x="55" y="460" type="line"/>
      <point x="403" y="460" type="line"/>
      <point x="375.5" y="305" type="line"/>
      <point x="27.5" y="305" type="line"/>
    </contour>
    <contour>
      <point x="164.5" y="620" type="line"/>
      <point x="347.5" y="620" type="line"/>
      <point x="241" y="0" type="line"/>
      <point x="58" y="0" type="line"/>
    </contour>
    <contour>
      <point x="84.3643" y="-60" type="line"/>
      <point x="274.364" y="-95" type="line"/>
      <point x="101.364" y="-342" type="line"/>
      <point x="-45.1357" y="-316" type="line"/>
    </contour>
  </outline>
</glyph>
<glyph name="dotaccent" format="1">
  <advance width="291"/>
  <unicode hex="02D9"/>
  <outline>
    <contour>
      <point x="153.5" y="828.5" type="curve" smooth="yes"/>
      <point x="161" y="884.5"/>
      <point x="215" y="924.5"/>
      <point x="272" y="924.5" type="curve" smooth="yes"/>
      <point x="329.5" y="924.5"/>
      <point x="373" y="882.5"/>
      <point x="365.5" y="825.5" type="curve" smooth="yes"/>
      <point x="358" y="769.5"/>
      <point x="304" y="729.5"/>
      <point x="247" y="729.5" type="curve" smooth="yes"/>
      <point x="189.5" y="729.5"/>
      <point x="146" y="771.5"/>
    </contour>
  </outline>
</glyph>
<glyph name="tilde" format="1">
  <advance width="514"/>
  <unicode hex="02DC"/>
  <outline>
    <contour>
      <point x="139" y="646.5" type="line"/>
      <point x="160" y="695.5"/>
      <point x="206.5" y="748"/>
      <point x="276" y="746.5" type="curve" smooth="yes"/>
      <point x="332.5" y="745.5"/>
      <point x="355.5" y="691.5"/>
      <point x="407.5" y="693" type="curve" smooth="yes"/>
      <point x="439.5" y="694"/>
      <point x="464" y="721"/>
      <point x="486" y="748" type="curve"/>
      <point x="560.5" y="653.5" type="line"/>
      <point x="533" y="613"/>
      <point x="470" y="560"/>
      <point x="403.5" y="562.5" type="curve" smooth="yes"/>
      <point x="353" y="564.5"/>
      <point x="315.5" y="622"/>
      <point x="266" y="618" type="curve" smooth="yes"/>
      <point x="233.5" y="615.5"/>
      <point x="221" y="586"/>
      <point x="213" y="568" type="curve"/>
    </contour>
  </outline>
</glyph>
<glyph name="hungarumlaut" format="1">
  <advance width="0"/>
  <unicode hex="02DD"/>
  <outline>
    <contour>
      <point x="167.5" y="525" type="line"/>
      <point x="48.5" y="560" type="line"/>
      <point x="199.5" y="744" type="line"/>
      <point x="348.5" y="703" type="line"/>
    </contour>
    <contour>
      <point x="377.5" y="525" type="line"/>
      <point x="258.5" y="560" type="line"/>
      <point x="409.5" y="744" type="line"/>
      <point x="558.5" y="703" type="line"/>
    </contour>
  </outline>
</glyph>
<glyph name="gravecomb" format="1">
  <advance width="0"/>
  <unicode hex="0300"/>
  <outline>
    <contour>
      <point x="223.5" y="530" type="line"/>
      <point x="69" y="680" type="line"/>
      <point x="209" y="740" type="line"/>
      <point x="332" y="580" type="line"/>
    </contour>
  </outline>
</glyph>
<glyph name="acutecomb" format="1">
  <advance width="0"/>
  <unicode hex="0301"/>
  <outline>
    <contour>
      <point x="179.5" y="530" type="line"/>
      <point x="68" y="585" type="line"/>
      <point x="244.5" y="745" type="line"/>
      <point x="384.5" y="680" type="line"/>
    </contour>
  </outline>
</glyph>
<glyph name="tildecomb" format="1">
  <advance width="0"/>
  <unicode hex="0303"/>
  <outline>
    <contour>
      <point x="133" y="568" type="curve"/>
      <point x="63" y="645" type="line"/>
      <point x="82" y="694"/>
      <point x="151" y="747"/>
      <point x="219" y="747" type="curve" smooth="yes"/>
      <point x="289" y="747"/>
      <point x="283" y="692"/>
      <point x="334" y="692" type="curve" smooth="yes"/>
      <point x="368" y="692"/>
      <point x="395.5" y="716"/>
      <point x="424" y="748" type="curve"/>
      <point x="494.5" y="655" type="line"/>
      <point x="471.5" y="618"/>
      <point x="393" y="562"/>
      <point x="323" y="562" type="curve" smooth="yes"/>
      <point x="263" y="562"/>
      <point x="247.5" y="619"/>
      <point x="201.5" y="619" type="curve" smooth="yes"/>
      <point x="171.5" y="619"/>
      <point x="137.5" y="596"/>
    </contour>
  </outline>
</glyph>
<glyph name="uni0304" format="1">
  <advance width="0"/>
  <unicode hex="0304"/>
  <outline>
    <contour>
      <point x="46" y="545" type="line"/>
      <point x="68" y="675" type="line"/>
      <point x="453" y="675" type="line"/>
      <point x="431" y="545" type="line"/>
    </contour>
  </outline>
</glyph>
<glyph name="uni0306" format="1">
  <advance width="0"/>
  <unicode hex="0306"/>
  <outline>
    <contour>
      <point x="215" y="550" type="curve" smooth="yes"/>
      <point x="113" y="550"/>
      <point x="56.5" y="608"/>
      <point x="72" y="700" type="curve"/>
      <point x="215" y="700" type="line"/>
      <point x="210" y="670"/>
      <point x="216.5" y="650"/>
      <point x="231.5" y="650" type="curve" smooth="yes"/>
      <point x="246.5" y="650"/>
      <point x="260" y="670"/>
      <point x="265" y="700" type="curve"/>
      <point x="408" y="700" type="line"/>
      <point x="392.5" y="608"/>
      <point x="317" y="550"/>
    </contour>
  </outline>
</glyph>
<glyph name="uni0307" format="1">
  <advance width="0"/>
  <unicode hex="0307"/>
  <outline>
    <contour>
      <point x="163" y="509" type="curve" smooth="yes"/>
      <point x="101" y="509"/>
      <point x="55" y="551"/>
      <point x="55" y="607" type="curve" smooth="yes"/>
      <point x="55" y="663"/>
      <point x="101" y="705"/>
      <point x="163" y="705" type="curve" smooth="yes"/>
      <point x="225" y="705"/>
      <point x="271" y="663"/>
      <point x="271" y="607" type="curve" smooth="yes"/>
      <point x="271" y="551"/>
      <point x="225" y="509"/>
    </contour>
  </outline>
</glyph>
<glyph name="uni030A" format="1">
  <advance width="0"/>
  <unicode hex="030A"/>
  <outline>
    <contour>
      <point x="180" y="520" type="curve" smooth="yes"/>
      <point x="99" y="520"/>
      <point x="51" y="572"/>
      <point x="63" y="645" type="curve" smooth="yes"/>
      <point x="75" y="718"/>
      <point x="141" y="770"/>
      <point x="222" y="770" type="curve" smooth="yes"/>
      <point x="304" y="770"/>
      <point x="353" y="717"/>
      <point x="341" y="645" type="curve" smooth="yes"/>
      <point x="329" y="573"/>
      <point x="262" y="520"/>
    </contour>
    <contour>
      <point x="193.5" y="601" type="curve" smooth="yes"/>
      <point x="219.5" y="601"/>
      <point x="240.5" y="619"/>
      <point x="245" y="645" type="curve" smooth="yes"/>
      <point x="249.5" y="672"/>
      <point x="234.5" y="690"/>
      <point x="208.5" y="690" type="curve" smooth="yes"/>
      <point x="182.5" y="690"/>
      <point x="162.5" y="672"/>
      <point x="158" y="645" type="curve" smooth="yes"/>
      <point x="153.5" y="618"/>
      <point x="167.5" y="601"/>
    </contour>
  </outline>
</glyph>
<glyph name="uni0312" format="1">
  <advance width="0"/>
  <unicode hex="0312"/>
  <outline>
    <contour>
      <point x="233" y="496" type="line"/>
      <point x="43.5" y="530" type="line"/>
      <point x="220.5" y="780" type="line"/>
      <point x="364.5" y="755" type="line"/>
    </contour>
  </outline>
</glyph>
<glyph name="uni0326" format="1">
  <advance width="0"/>
  <unicode hex="0326"/>
  <outline>
    <contour>
      <point x="34" y="-203" type="line"/>
      <point x="-72.5" y="-164" type="line"/>
      <point x="43.5" y="-22" type="line"/>
      <point x="180.5" y="-73" type="line"/>
    </contour>
  </outline>
</glyph>
<glyph name="uni0327" format="1">
  <advance width="0"/>
  <unicode hex="0327"/>
  <outline>
    <contour>
      <point x="62.5" y="-213" type="curve" smooth="yes"/>
      <point x="14.5" y="-213"/>
      <point x="-43" y="-202"/>
      <point x="-76" y="-184" type="curve"/>
      <point x="-31.5" y="-112" type="line"/>
      <point x="-11" y="-122"/>
      <point x="26.5" y="-130"/>
      <point x="54.5" y="-130" type="curve" smooth="yes"/>
      <point x="77.5" y="-130"/>
      <point x="91" y="-118"/>
      <point x="94.5" y="-98" type="curve" smooth="yes"/>
      <point x="97.5" y="-81"/>
      <point x="85.5" y="-74"/>
      <point x="55.5" y="-74" type="curve" smooth="yes"/>
      <point x="37.5" y="-74"/>
      <point x="13" y="-73"/>
      <point x="-13.5" y="-75" type="curve"/>
      <point x="74" y="78" type="line"/>
      <point x="178" y="73" type="line"/>
      <point x="105" y="-48" type="line"/>
      <point x="32.5" y="-28" type="line"/>
      <point x="62.5" y="-28"/>
      <point x="107.5" y="-20"/>
      <point x="147.5" y="-20" type="curve" smooth="yes"/>
      <point x="190.5" y="-20"/>
      <point x="216" y="-55"/>
      <point x="208" y="-102" type="curve" smooth="yes"/>
      <point x="197.5" y="-166"/>
      <point x="132.5" y="-213"/>
    </contour>
  </outline>
</glyph>
<glyph name="uni0394" format="1">
  <advance width="600"/>
  <unicode hex="0394"/>
  <outline>
    <contour>
      <point x="-27" y="0" type="line"/>
      <point x="536" y="0" type="line"/>
      <point x="389" y="800" type="line"/>
    </contour>
    <contour>
      <point x="194.5" y="139" type="line"/>
      <point x="327.5" y="432" type="line"/>
      <point x="361.5" y="139" type="line"/>
    </contour>
  </outline>
</glyph>
<glyph name="uni03A9" format="1">
  <advance width="600"/>
  <unicode hex="03A9"/>
  <outline>
    <contour>
      <point x="21" y="0" type="line"/>
      <point x="239" y="0" type="line"/>
      <point x="259" y="119" type="line"/>
      <point x="223" y="155"/>
      <point x="207" y="202"/>
      <point x="214.5" y="248" type="curve" smooth="yes"/>
      <point x="224.5" y="307"/>
      <point x="269.5" y="356"/>
      <point x="314.5" y="356" type="curve" smooth="yes"/>
      <point x="359.5" y="356"/>
      <point x="388.5" y="307"/>
      <point x="378.5" y="248" type="curve" smooth="yes"/>
      <point x="370.5" y="201"/>
      <point x="339" y="155"/>
      <point x="291" y="119" type="curve"/>
      <point x="271" y="0" type="line"/>
      <point x="489" y="0" type="line"/>
      <point x="517" y="168" type="line"/>
      <point x="426" y="148" type="line"/>
      <point x="497.5" y="206"/>
      <point x="527" y="251"/>
      <point x="538" y="317" type="curve" smooth="yes"/>
      <point x="561" y="455"/>
      <point x="469.5" y="559"/>
      <point x="338.5" y="559" type="curve" smooth="yes"/>
      <point x="207.5" y="559"/>
      <point x="91" y="455"/>
      <point x="78" y="317" type="curve" smooth="yes"/>
      <point x="71.5596" y="249.816"/>
      <point x="91.5" y="201"/>
      <point x="134" y="148" type="curve"/>
      <point x="49" y="168" type="line"/>
    </contour>
  </outline>
</glyph>
<glyph name="pi" format="1">
  <advance width="621"/>
  <unicode hex="03C0"/>
  <outline>
    <contour>
      <point x="132.5" y="430" type="line"/>
      <point x="310.5" y="430" type="line"/>
      <point x="236" y="0" type="line"/>
      <point x="58" y="0" type="line"/>
    </contour>
    <contour>
      <point x="79" y="460" type="line"/>
      <point x="636" y="460" type="line"/>
      <point x="608.5" y="305" type="line"/>
      <point x="52" y="305" type="line"/>
    </contour>
    <contour>
      <point x="375" y="430" type="line"/>
      <point x="553" y="430" type="line"/>
      <point x="512" y="200.5" type="line"/>
      <point x="506" y="147.5"/>
      <point x="518.5" y="138.5"/>
      <point x="552.5" y="131" type="curve"/>
      <point x="530.5" y="-8.5" type="line"/>
      <point x="406" y="-9"/>
      <point x="306.5" y="-8"/>
      <point x="323" y="121" type="curve"/>
    </contour>
  </outline>
</glyph>
<glyph name="uni0401" format="1">
  <advance width="576"/>
  <unicode hex="0401"/>
  <outline>
    <contour>
      <point x="185" y="0" type="line"/>
      <point x="215.5" y="175" type="line"/>
      <point x="564" y="175" type="line"/>
      <point x="533.5" y="0" type="line"/>
    </contour>
    <contour>
      <point x="274.5" y="525" type="line"/>
      <point x="305.5" y="700" type="line"/>
      <point x="653.5" y="700" type="line"/>
      <point x="623" y="525" type="line"/>
    </contour>
    <contour>
      <point x="232" y="275" type="line"/>
      <point x="262" y="445" type="line"/>
      <point x="591" y="445" type="line"/>
      <point x="561" y="275" type="line"/>
    </contour>
    <contour>
      <point x="157.5" y="700" type="line"/>
      <point x="367" y="700" type="line"/>
      <point x="247" y="0" type="line"/>
      <point x="37.5" y="0" type="line"/>
    </contour>
    <contour>
      <point x="460.25" y="880" type="curve" smooth="yes"/>
      <point x="466.75" y="936"/>
      <point x="519.75" y="975.5"/>
      <point x="576.75" y="975.5" type="curve" smooth="yes"/>
      <point x="634.75" y="975.5"/>
      <point x="680.25" y="934"/>
      <point x="673.25" y="876" type="curve" smooth="yes"/>
      <point x="666.75" y="820"/>
      <point x="613.75" y="780.5"/>
      <point x="556.75" y="780.5" type="curve" smooth="yes"/>
      <point x="498.75" y="780.5"/>
      <point x="453.25" y="822"/>
    </contour>
    <contour>
      <point x="198.25" y="880" type="curve" smooth="yes"/>
      <point x="204.75" y="936"/>
      <point x="257.75" y="975.5"/>
      <point x="314.75" y="975.5" type="curve" smooth="yes"/>
      <point x="372.75" y="975.5"/>
      <point x="418.25" y="934"/>
      <point x="411.25" y="876" type="curve" smooth="yes"/>
      <point x="404.75" y="820"/>
      <point x="351.75" y="780.5"/>
      <point x="294.75" y="780.5" type="curve" smooth="yes"/>
      <point x="236.75" y="780.5"/>
      <point x="191.25" y="822"/>
    </contour>
  </outline>
</glyph>
<glyph name="uni040C" format="1">
  <advance width="656"/>
  <unicode hex="040C"/>
  <outline>
    <contour>
      <point x="157.5" y="700" type="line"/>
      <point x="386.5" y="700" type="line"/>
      <point x="266.5" y="0" type="line"/>
      <point x="37.5" y="0" type="line"/>
    </contour>
    <contour>
      <point x="584.5" y="699.5" type="line"/>
      <point x="848.5" y="699.5" type="line"/>
      <point x="518.5" y="365" type="line"/>
      <point x="732" y="0" type="line"/>
      <point x="481" y="0" type="line"/>
      <point x="265.5" y="372.5" type="line"/>
    </contour>
    <contour>
      <point x="675.75" y="915" type="line"/>
      <point x="481.75" y="770.5" type="line"/>
      <point x="373.75" y="825.5" type="line"/>
      <point x="541.25" y="979.5" type="line"/>
    </contour>
  </outline>
</glyph>
<glyph name="uni0412" format="1">
  <advance width="707"/>
  <unicode hex="0412"/>
  <outline>
    <contour>
      <point x="253" y="335" type="line"/>
      <point x="270" y="424.5" type="line"/>
      <point x="374" y="425" type="line" smooth="yes"/>
      <point x="418.5" y="425"/>
      <point x="454" y="446.5"/>
      <point x="461.5" y="484" type="curve" smooth="yes"/>
      <point x="468" y="519"/>
      <point x="447" y="534.5"/>
      <point x="406.5" y="535" type="curve" smooth="yes"/>
      <point x="352.5" y="535.5" type="line"/>
      <point x="283.5" y="164" type="line"/>
      <point x="349.5" y="164.5" type="line" smooth="yes"/>
      <point x="397" y="165.5"/>
      <point x="449" y="175"/>
      <point x="457.5" y="228" type="curve" smooth="yes"/>
      <point x="464.5" y="272.5"/>
      <point x="425" y="278.5"/>
      <point x="383.5" y="279.5" type="curve" smooth="yes"/>
      <point x="243.5" y="280.5" type="line"/>
      <point x="265.5" y="400" type="line"/>
      <point x="417" y="400" type="line" smooth="yes"/>
      <point x="544.5" y="398.5"/>
      <point x="695.5" y="338.5"/>
      <point x="677" y="191.5" type="curve" smooth="yes"/>
      <point x="658.5" y="48"/>
      <point x="526.5" y="1"/>
      <point x="367" y="0" type="curve" smooth="yes"/>
      <point x="39" y="0" type="line"/>
      <point x="159" y="700" type="line"/>
      <point x="448.5" y="700" type="line" smooth="yes"/>
      <point x="578.5" y="698.5"/>
      <point x="711" y="646.5"/>
      <point x="694" y="519.5" type="curve" smooth="yes"/>
      <point x="677.5" y="394"/>
      <point x="542.5" y="336.5"/>
      <point x="404.5" y="335" type="curve" smooth="yes"/>
    </contour>
  </outline>
</glyph>
<glyph name="uni0415" format="1">
  <advance width="618"/>
  <unicode hex="0415"/>
  <outline>
    <contour>
      <point x="186.5" y="0" type="line"/>
      <point x="217" y="175" type="line"/>
      <point x="565.5" y="175" type="line"/>
      <point x="535" y="0" type="line"/>
    </contour>
    <contour>
      <point x="276" y="525" type="line"/>
      <point x="307" y="700" type="line"/>
      <point x="655" y="700" type="line"/>
      <point x="624.5" y="525" type="line"/>
    </contour>
    <contour>
      <point x="233.5" y="275" type="line"/>
      <point x="263.5" y="445" type="line"/>
      <point x="592.5" y="445" type="line"/>
      <point x="562.5" y="275" type="line"/>
    </contour>
    <contour>
      <point x="159" y="700" type="line"/>
      <point x="368.5" y="700" type="line"/>
      <point x="248.5" y="0" type="line"/>
      <point x="39" y="0" type="line"/>
    </contour>
  </outline>
</glyph>
<glyph name="uni0416" format="1">
  <advance width="1164"/>
  <unicode hex="0416"/>
  <outline>
    <contour>
      <point x="345.5" y="700" type="line"/>
      <point x="565.5" y="362.5" type="line"/>
      <point x="223" y="0" type="line"/>
      <point x="-39.5" y="0" type="line"/>
      <point x="321.5" y="379" type="line"/>
      <point x="106" y="700" type="line"/>
    </contour>
    <contour>
      <point x="560.5" y="700" type="line"/>
      <point x="789.5" y="700" type="line"/>
      <point x="669.5" y="0" type="line"/>
      <point x="440.5" y="0" type="line"/>
    </contour>
    <contour>
      <point x="982.5" y="699.5" type="line"/>
      <point x="1255" y="699.5" type="line"/>
      <point x="915.5" y="365" type="line"/>
      <point x="1138.5" y="0" type="line"/>
      <point x="888.5" y="0" type="line"/>
      <point x="671" y="377.5" type="line"/>
    </contour>
  </outline>
</glyph>
<glyph name="uni0419" format="1">
  <advance width="781"/>
  <unicode hex="0419"/>
  <outline>
    <contour>
      <point x="763.5" y="470.5" type="line"/>
      <point x="27.5" y="-45.5" type="line"/>
      <point x="83" y="229.5" type="line"/>
      <point x="819.5" y="746" type="line"/>
    </contour>
    <contour>
      <point x="367" y="700" type="line"/>
      <point x="274" y="159.5" type="line"/>
      <point x="27.5" y="-45.5" type="line"/>
      <point x="157.5" y="700" type="line"/>
    </contour>
    <contour>
      <point x="819.5" y="746" type="line"/>
      <point x="688.5" y="0" type="line"/>
      <point x="479" y="0" type="line"/>
      <point x="571" y="530.5" type="line"/>
    </contour>
    <contour>
      <point x="366.5" y="930.506" type="curve"/>
      <point x="478" y="930.506" type="line"/>
      <point x="479.5" y="899.506"/>
      <point x="495" y="883.006"/>
      <point x="518.5" y="881.006" type="curve" smooth="yes"/>
      <point x="543" y="879.006"/>
      <point x="570.5" y="900.006"/>
      <point x="578" y="930.006" type="curve"/>
      <point x="694.5" y="929.506" type="line"/>
      <point x="678" y="843.006"/>
      <point x="613.5" y="781.506"/>
      <point x="513.5" y="781.006" type="curve" smooth="yes"/>
      <point x="414" y="780.506"/>
      <point x="362" y="842.006"/>
    </contour>
  </outline>
</glyph>
<glyph name="uni041A" format="1">
  <advance width="760"/>
  <unicode hex="041A"/>
  <outline>
    <contour>
      <point x="157.5" y="700" type="line"/>
      <point x="386.5" y="700" type="line"/>
      <point x="266.5" y="0" type="line"/>
      <point x="37.5" y="0" type="line"/>
    </contour>
    <contour>
      <point x="584.5" y="699.5" type="line"/>
      <point x="848.5" y="699.5" type="line"/>
      <point x="518.5" y="365" type="line"/>
      <point x="732" y="0" type="line"/>
      <point x="481" y="0" type="line"/>
      <point x="265.5" y="372.5" type="line"/>
    </contour>
  </outline>
</glyph>
<glyph name="uni041B" format="1">
  <advance width="813"/>
  <unicode hex="041B"/>
  <outline>
    <contour>
      <point x="831" y="700" type="line"/>
      <point x="711" y="0" type="line"/>
      <point x="487" y="0" type="line"/>
      <point x="574" y="505" type="line"/>
      <point x="400" y="505" type="line"/>
      <point x="370.5" y="330" type="line" smooth="yes"/>
      <point x="334.5" y="105"/>
      <point x="218.5" y="5"/>
      <point x="-15.5" y="0.5" type="curve"/>
      <point x="9" y="184.5" type="line"/>
      <point x="79.5" y="191"/>
      <point x="126" y="231"/>
      <point x="140" y="302.5" type="curve"/>
      <point x="209" y="700" type="line"/>
    </contour>
  </outline>
</glyph>
<glyph name="uni041C" format="1">
  <advance width="912"/>
  <unicode hex="041C"/>
  <outline>
    <contour>
      <point x="318.043" y="284.839" type="line"/>
      <point x="233.5" y="0" type="line"/>
      <point x="-2.5" y="0" type="line"/>
      <point x="250" y="735.5" type="line"/>
      <point x="485" y="359.5" type="line"/>
      <point x="859" y="744" type="line"/>
      <point x="857" y="0" type="line"/>
      <point x="626" y="0" type="line"/>
      <point x="638.457" y="274.339" type="line"/>
      <point x="444" y="62.5" type="line"/>
    </contour>
  </outline>
</glyph>
<glyph name="uni041D" format="1">
  <advance width="806"/>
  <unicode hex="041D"/>
  <outline>
    <contour>
      <point x="128.5" y="265" type="line"/>
      <point x="162.5" y="460" type="line"/>
      <point x="711.5" y="460" type="line"/>
      <point x="677.5" y="265" type="line"/>
    </contour>
    <contour>
      <point x="614" y="700" type="line"/>
      <point x="833" y="700" type="line"/>
      <point x="713" y="0" type="line"/>
      <point x="494" y="0" type="line"/>
    </contour>
    <contour>
      <point x="157.5" y="700" type="line"/>
      <point x="377" y="700" type="line"/>
      <point x="257" y="0" type="line"/>
      <point x="37.5" y="0" type="line"/>
    </contour>
  </outline>
</glyph>
<glyph name="uni041E" format="1">
  <advance width="814"/>
  <unicode hex="041E"/>
  <outline>
    <contour>
      <point x="290" y="350" type="curve" smooth="yes"/>
      <point x="275.5" y="263.5"/>
      <point x="305" y="180"/>
      <point x="402.5" y="178.5" type="curve" smooth="yes"/>
      <point x="501" y="177"/>
      <point x="572.5" y="256"/>
      <point x="590.5" y="350" type="curve" smooth="yes"/>
      <point x="605.5" y="437"/>
      <point x="578.5" y="520"/>
      <point x="478" y="521.5" type="curve" smooth="yes"/>
      <point x="379.5" y="523"/>
      <point x="307.5" y="444"/>
    </contour>
    <contour>
      <point x="59" y="350" type="curve" smooth="yes"/>
      <point x="89.5" y="564.5"/>
      <point x="276" y="720"/>
      <point x="494" y="720" type="curve" smooth="yes"/>
      <point x="710.5" y="720"/>
      <point x="849.5" y="559.5"/>
      <point x="821" y="350" type="curve" smooth="yes"/>
      <point x="790.5" y="134"/>
      <point x="609.5" y="-30"/>
      <point x="384.5" y="-30" type="curve" smooth="yes"/>
      <point x="163.5" y="-30"/>
      <point x="30" y="140.5"/>
    </contour>
  </outline>
</glyph>
<glyph name="uni041F" format="1">
  <advance width="781"/>
  <unicode hex="041F"/>
  <outline>
    <contour>
      <point x="542" y="505" type="line"/>
      <point x="358" y="505" type="line"/>
      <point x="271.5" y="0" type="line"/>
      <point x="47.5" y="0" type="line"/>
      <point x="167.5" y="700" type="line"/>
      <point x="799" y="700" type="line"/>
      <point x="679" y="0" type="line"/>
      <point x="455" y="0" type="line"/>
    </contour>
  </outline>
</glyph>
<glyph name="uni0420" format="1">
  <advance width="653"/>
  <unicode hex="0420"/>
  <outline>
    <contour>
      <point x="159" y="700" type="line"/>
      <point x="378.5" y="700" type="line"/>
      <point x="258.5" y="0" type="line"/>
      <point x="39" y="0" type="line"/>
    </contour>
    <contour>
      <point x="269.5" y="525.5" type="line"/>
      <point x="297" y="700" type="line"/>
      <point x="419.5" y="700" type="line" smooth="yes"/>
      <point x="595" y="698"/>
      <point x="696.5" y="613"/>
      <point x="674.5" y="459.5" type="curve" smooth="yes"/>
      <point x="652.5" y="306"/>
      <point x="536.5" y="222"/>
      <point x="356" y="220" type="curve" smooth="yes"/>
      <point x="214.5" y="220" type="line"/>
      <point x="245.5" y="394.5" type="line"/>
      <point x="368.5" y="395" type="line" smooth="yes"/>
      <point x="418" y="395"/>
      <point x="458" y="418.5"/>
      <point x="467" y="461" type="curve" smooth="yes"/>
      <point x="474.5" y="500.5"/>
      <point x="451" y="524"/>
      <point x="405" y="524.5" type="curve" smooth="yes"/>
    </contour>
  </outline>
</glyph>
<glyph name="uni0421" format="1">
  <advance width="688"/>
  <unicode hex="0421"/>
  <outline>
    <contour>
      <point x="298.5" y="350" type="curve" smooth="yes"/>
      <point x="281" y="255"/>
      <point x="337.5" y="189.5"/>
      <point x="434" y="188" type="curve" smooth="yes"/>
      <point x="524.5" y="187"/>
      <point x="591" y="231.5"/>
      <point x="647" y="272.5" type="curve"/>
      <point x="617" y="47" type="line"/>
      <point x="556" y="8"/>
      <point x="491" y="-20"/>
      <point x="401" y="-20" type="curve" smooth="yes"/>
      <point x="172.5" y="-20.5"/>
      <point x="29" y="136"/>
      <point x="59" y="350" type="curve" smooth="yes"/>
      <point x="90.5" y="569"/>
      <point x="275" y="720.5"/>
      <point x="509" y="720" type="curve" smooth="yes"/>
      <point x="597" y="720"/>
      <point x="656.5" y="693"/>
      <point x="714" y="652.5" type="curve"/>
      <point x="682.5" y="426.5" type="line"/>
      <point x="641.5" y="474.5"/>
      <point x="590.5" y="512.5"/>
      <point x="507" y="512.5" type="curve" smooth="yes"/>
      <point x="407.5" y="512"/>
      <point x="318" y="450.5"/>
    </contour>
  </outline>
</glyph>
<glyph name="uni0422" format="1">
  <advance width="604"/>
  <unicode hex="0422"/>
  <outline>
    <contour>
      <point x="57" y="505" type="line"/>
      <point x="91" y="700" type="line"/>
      <point x="698.5" y="700" type="line"/>
      <point x="664" y="505" type="line"/>
      <point x="470.5" y="505" type="line"/>
      <point x="384" y="0" type="line"/>
      <point x="165" y="0" type="line"/>
      <point x="251.5" y="505" type="line"/>
    </contour>
  </outline>
</glyph>
<glyph name="uni0423" format="1">
  <advance width="630"/>
  <unicode hex="0423"/>
  <outline>
    <contour>
      <point x="744" y="699.5" type="line"/>
      <point x="305" y="0" type="line"/>
      <point x="79" y="0" type="line"/>
      <point x="217.5" y="225" type="line"/>
      <point x="79" y="700" type="line"/>
      <point x="310.5" y="700" type="line"/>
      <point x="370.5" y="315" type="line"/>
      <point x="282.5" y="315.5" type="line"/>
      <point x="513.5" y="699.5" type="line"/>
    </contour>
  </outline>
</glyph>
<glyph name="uni0424" format="1">
  <advance width="992"/>
  <unicode hex="0424"/>
  <outline>
    <contour>
      <point x="477" y="700" type="line"/>
      <point x="701" y="700" type="line"/>
      <point x="581" y="0" type="line"/>
      <point x="357" y="0" type="line"/>
    </contour>
    <contour>
      <point x="767" y="350.5" type="curve" smooth="yes"/>
      <point x="784" y="424.5"/>
      <point x="717.5" y="434"/>
      <point x="640.5" y="434.5" type="curve" smooth="yes"/>
      <point x="463.5" y="435" type="line" smooth="yes"/>
      <point x="378.5" y="434.5"/>
      <point x="307.5" y="423.5"/>
      <point x="291" y="349.5" type="curve" smooth="yes"/>
      <point x="274" y="275.5"/>
      <point x="340.5" y="266"/>
      <point x="417.5" y="265.5" type="curve" smooth="yes"/>
      <point x="594.5" y="265" type="line" smooth="yes"/>
      <point x="679.5" y="265.5"/>
      <point x="750.5" y="276.5"/>
    </contour>
    <contour>
      <point x="989" y="349.5" type="curve" smooth="yes"/>
      <point x="965.5" y="180.5"/>
      <point x="805" y="80"/>
      <point x="629.5" y="80" type="curve" smooth="yes"/>
      <point x="355" y="80" type="line" smooth="yes"/>
      <point x="186.5" y="80"/>
      <point x="46" y="183"/>
      <point x="69" y="350.5" type="curve" smooth="yes"/>
      <point x="92.5" y="519.5"/>
      <point x="253" y="620"/>
      <point x="428.5" y="620" type="curve" smooth="yes"/>
      <point x="703" y="620" type="line" smooth="yes"/>
      <point x="871.5" y="620"/>
      <point x="1012" y="517"/>
    </contour>
  </outline>
</glyph>
<glyph name="uni0425" format="1">
  <advance width="789"/>
  <unicode hex="0425"/>
  <outline>
    <contour>
      <point x="560.5" y="699.5" type="line"/>
      <point x="840.5" y="699.5" type="line"/>
      <point x="553" y="346.5" type="line"/>
      <point x="725.5" y="0" type="line"/>
      <point x="463" y="0" type="line"/>
      <point x="395" y="191" type="line"/>
      <point x="259" y="0" type="line"/>
      <point x="-21.5" y="0" type="line"/>
      <point x="288" y="361.5" type="line"/>
      <point x="132" y="700" type="line"/>
      <point x="395" y="700" type="line"/>
      <point x="448" y="536.5" type="line"/>
    </contour>
  </outline>
</glyph>
<glyph name="uni0426" format="1">
  <advance width="892"/>
  <unicode hex="0426"/>
  <outline>
    <contour>
      <point x="295" y="195" type="line"/>
      <point x="527" y="195" type="line"/>
      <point x="614" y="700" type="line"/>
      <point x="838" y="700" type="line"/>
      <point x="751.5" y="195" type="line"/>
      <point x="873" y="195" type="line"/>
      <point x="813.5" y="-150" type="line"/>
      <point x="599" y="-150" type="line"/>
      <point x="625.5" y="0" type="line"/>
      <point x="37.5" y="0" type="line"/>
      <point x="157.5" y="700" type="line"/>
      <point x="382" y="700" type="line"/>
    </contour>
  </outline>
</glyph>
<glyph name="uni042A" format="1">
  <advance width="759"/>
  <unicode hex="042A"/>
  <outline>
    <contour>
      <point x="342" y="305.5" type="line"/>
      <point x="370" y="480" type="line"/>
      <point x="492" y="480" type="line" smooth="yes"/>
      <point x="667.5" y="478"/>
      <point x="769" y="393"/>
      <point x="747" y="239.5" type="curve" smooth="yes"/>
      <point x="725" y="86"/>
      <point x="609" y="2"/>
      <point x="428.5" y="0" type="curve" smooth="yes"/>
      <point x="287" y="0" type="line"/>
      <point x="318" y="174.5" type="line"/>
      <point x="441" y="175" type="line" smooth="yes"/>
      <point x="490.5" y="175"/>
      <point x="531" y="198.5"/>
      <point x="540" y="241" type="curve" smooth="yes"/>
      <point x="547.5" y="280.5"/>
      <point x="523.5" y="304"/>
      <point x="477.5" y="304.5" type="curve" smooth="yes"/>
    </contour>
    <contour>
      <point x="241" y="506" type="line"/>
      <point x="66" y="506" type="line"/>
      <point x="99.5" y="700" type="line"/>
      <point x="493.5" y="700" type="line"/>
      <point x="373.5" y="0" type="line"/>
      <point x="154" y="0" type="line"/>
    </contour>
  </outline>
</glyph>
<glyph name="uni042F" format="1">
  <advance width="679"/>
  <unicode hex="042F"/>
  <outline>
    <contour>
      <point x="443.5" y="299.5" type="line"/>
      <point x="226.5" y="0" type="line"/>
      <point x="-34.5" y="0" type="line"/>
      <point x="211.5" y="299.5" type="line"/>
    </contour>
    <contour>
      <point x="707" y="700" type="line"/>
      <point x="587" y="0" type="line"/>
      <point x="367.5" y="0" type="line"/>
      <point x="487.5" y="700" type="line"/>
    </contour>
    <contour>
      <point x="536.5" y="515.5" type="line"/>
      <point x="413.5" y="515" type="line" smooth="yes"/>
      <point x="364" y="515"/>
      <point x="323.5" y="491.5"/>
      <point x="314.5" y="449" type="curve" smooth="yes"/>
      <point x="306.5" y="409.5"/>
      <point x="330" y="386"/>
      <point x="376" y="385.5" type="curve" smooth="yes"/>
      <point x="516" y="384.5" type="line"/>
      <point x="486.5" y="220.5" type="line"/>
      <point x="344.5" y="220" type="line"/>
      <point x="170.5" y="222"/>
      <point x="68.5" y="313.5"/>
      <point x="90" y="460.5" type="curve" smooth="yes"/>
      <point x="111.5" y="608"/>
      <point x="229.5" y="698"/>
      <point x="408.5" y="700" type="curve"/>
      <point x="569.5" y="700" type="line"/>
    </contour>
  </outline>
</glyph>
<glyph name="uni0430" format="1">
  <advance width="562"/>
  <unicode hex="0430"/>
  <outline>
    <contour>
      <point x="206" y="137.5" type="curve" smooth="yes"/>
      <point x="203.5" y="117.5"/>
      <point x="221.5" y="107"/>
      <point x="241" y="106.5" type="curve" smooth="yes"/>
      <point x="287" y="104"/>
      <point x="326" y="138"/>
      <point x="338.5" y="189.5" type="curve"/>
      <point x="346.5" y="128.5" type="line"/>
      <point x="329" y="43.5"/>
      <point x="260" y="-9.5"/>
      <point x="167" y="-10" type="curve" smooth="yes"/>
      <point x="73" y="-10.5"/>
      <point x="1" y="41"/>
      <point x="12.5" y="131" type="curve" smooth="yes"/>
      <point x="25" y="223.5"/>
      <point x="119.5" y="274"/>
      <point x="226" y="275" type="curve" smooth="yes"/>
      <point x="283" y="275.5"/>
      <point x="345" y="259.5"/>
      <point x="380" y="232" type="curve"/>
      <point x="369" y="147" type="line"/>
      <point x="342.5" y="168.5"/>
      <point x="317.5" y="181.5"/>
      <point x="276.5" y="180.5" type="curve" smooth="yes"/>
      <point x="247" y="180"/>
      <point x="210" y="163.5"/>
    </contour>
    <contour>
      <point x="146" y="297" type="curve"/>
      <point x="102.5" y="425.5" type="line"/>
      <point x="170" y="451"/>
      <point x="250" y="475"/>
      <point x="329.5" y="475" type="curve" smooth="yes"/>
      <point x="443.5" y="475"/>
      <point x="561" y="426"/>
      <point x="542.5" y="320" type="curve" smooth="yes"/>
      <point x="490" y="0" type="line"/>
      <point x="304" y="0" type="line"/>
      <point x="355" y="272.5" type="line" smooth="yes"/>
      <point x="361" y="306"/>
      <point x="343.5" y="329.5"/>
      <point x="301.5" y="332" type="curve" smooth="yes"/>
      <point x="242" y="336"/>
      <point x="181" y="311"/>
    </contour>
  </outline>
</glyph>
<glyph name="uni0433" format="1">
  <advance width="363"/>
  <unicode hex="0433"/>
  <outline>
    <contour>
      <point x="97.5" y="460" type="line"/>
      <point x="418.5" y="460" type="line"/>
      <point x="391.5" y="305" type="line"/>
      <point x="261" y="305" type="line"/>
      <point x="208" y="0" type="line"/>
      <point x="18" y="0" type="line"/>
    </contour>
  </outline>
</glyph>
<glyph name="uni0434" format="1">
  <advance width="713"/>
  <unicode hex="0434"/>
  <outline>
    <contour>
      <point x="372" y="245.5" type="line"/>
      <point x="246" y="31" type="line"/>
      <point x="70" y="84" type="line"/>
      <point x="408" y="498" type="line"/>
      <point x="605.5" y="77" type="line"/>
      <point x="425" y="28" type="line"/>
    </contour>
    <contour>
      <point x="465.5" y="0" type="line"/>
      <point x="194.5" y="0" type="line"/>
      <point x="178" y="-90" type="line"/>
      <point x="-7" y="-90" type="line"/>
      <point x="34" y="145" type="line"/>
      <point x="670.5" y="145" type="line"/>
      <point x="629.5" y="-90" type="line"/>
      <point x="449" y="-90" type="line"/>
    </contour>
  </outline>
</glyph>
<glyph name="uni0436" format="1">
  <advance width="975"/>
  <unicode hex="0436"/>
  <outline>
    <contour>
      <point x="786" y="459.5" type="line"/>
      <point x="1015.5" y="459.5" type="line"/>
      <point x="789.5" y="263.5" type="line"/>
      <point x="944.5" y="0" type="line"/>
      <point x="738.5" y="0" type="line"/>
      <point x="568" y="277" type="line"/>
    </contour>
    <contour>
      <point x="632" y="460" type="line"/>
      <point x="553" y="0" type="line"/>
      <point x="367.5" y="0" type="line"/>
      <point x="447" y="460" type="line"/>
    </contour>
    <contour>
      <point x="279" y="460" type="line"/>
      <point x="446" y="263" type="line"/>
      <point x="193.5" y="0" type="line"/>
      <point x="-35" y="0" type="line"/>
      <point x="223.5" y="277" type="line"/>
      <point x="75.5" y="460" type="line"/>
    </contour>
  </outline>
</glyph>
<glyph name="uni0437" format="1">
  <advance width="558"/>
  <unicode hex="0437"/>
  <outline>
    <contour>
      <point x="295" y="229" type="curve"/>
      <point x="304.5" y="280.5" type="line"/>
      <point x="327" y="282.5"/>
      <point x="349.5" y="293"/>
      <point x="353" y="311.5" type="curve" smooth="yes"/>
      <point x="354.5" y="324.5"/>
      <point x="344" y="337.5"/>
      <point x="325.5" y="337.5" type="curve" smooth="yes"/>
      <point x="303.989" y="337.5"/>
      <point x="287" y="321.5"/>
      <point x="283.5" y="296" type="curve"/>
      <point x="111" y="297.5" type="line"/>
      <point x="130" y="404"/>
      <point x="213" y="469"/>
      <point x="334.5" y="469.5" type="curve" smooth="yes"/>
      <point x="434" y="470"/>
      <point x="539.5" y="423"/>
      <point x="527.5" y="332.5" type="curve" smooth="yes"/>
      <point x="515.5" y="247.5"/>
      <point x="413.5" y="225"/>
    </contour>
    <contour>
      <point x="270" y="-10" type="curve" smooth="yes"/>
      <point x="139.5" y="-10"/>
      <point x="59" y="51.5"/>
      <point x="55.5" y="165.5" type="curve"/>
      <point x="229.5" y="164.5" type="line"/>
      <point x="237.5" y="137"/>
      <point x="252.907" y="120"/>
      <point x="280" y="120" type="curve" smooth="yes"/>
      <point x="313.5" y="120"/>
      <point x="336" y="137"/>
      <point x="339" y="161" type="curve" smooth="yes"/>
      <point x="342.5" y="188"/>
      <point x="319.5" y="197"/>
      <point x="290.5" y="199" type="curve"/>
      <point x="300" y="260" type="line"/>
      <point x="415.5" y="263.5"/>
      <point x="525.5" y="229"/>
      <point x="513" y="133.5" type="curve" smooth="yes"/>
      <point x="501" y="37.5"/>
      <point x="385.5" y="-10"/>
    </contour>
  </outline>
</glyph>
<glyph name="uni0438" format="1">
  <advance width="601"/>
  <unicode hex="0438"/>
  <outline>
    <contour>
      <point x="573.5" y="296" type="line"/>
      <point x="8" y="-44.5" type="line"/>
      <point x="52.5" y="164" type="line"/>
      <point x="617.5" y="504.5" type="line"/>
    </contour>
    <contour>
      <point x="282.5" y="460" type="line"/>
      <point x="223.5" y="120" type="line"/>
      <point x="8" y="-44.5" type="line"/>
      <point x="97.5" y="460" type="line"/>
    </contour>
    <contour>
      <point x="617.5" y="504.5" type="line"/>
      <point x="528.5" y="0" type="line"/>
      <point x="343.5" y="0" type="line"/>
      <point x="402.5" y="340" type="line"/>
    </contour>
  </outline>
</glyph>
<glyph name="uni043B" format="1">
  <advance width="643"/>
  <unicode hex="043B"/>
  <outline>
    <contour>
      <point x="620.5" y="460" type="line"/>
      <point x="541" y="0" type="line"/>
      <point x="356" y="0" type="line"/>
      <point x="405.5" y="285" type="line"/>
      <point x="285" y="284.5" type="line"/>
      <point x="264" y="159.5" type="line"/>
      <point x="239.5" y="37"/>
      <point x="150.5" y="2.5"/>
      <point x="-16" y="0.5" type="curve"/>
      <point x="7.5" y="172" type="line"/>
      <point x="46.5" y="174"/>
      <point x="77" y="179"/>
      <point x="87" y="220.5" type="curve"/>
      <point x="129.5" y="460" type="line"/>
    </contour>
  </outline>
</glyph>
<glyph name="uni043C" format="1">
  <advance width="666"/>
  <unicode hex="043C"/>
  <outline>
    <contour>
      <point x="449" y="0" type="line"/>
      <point x="445.5" y="293.5" type="line"/>
      <point x="575" y="503.5" type="line"/>
      <point x="634.5" y="0" type="line"/>
    </contour>
    <contour>
      <point x="304.5" y="176.5" type="line"/>
      <point x="575" y="503.5" type="line"/>
      <point x="544.5" y="258" type="line"/>
      <point x="302" y="-32.5" type="line"/>
    </contour>
    <contour>
      <point x="302" y="-32.5" type="line"/>
      <point x="158.5" y="274" type="line"/>
      <point x="205.5" y="495.5" type="line"/>
      <point x="363" y="160" type="line"/>
    </contour>
    <contour>
      <point x="-28" y="0" type="line"/>
      <point x="205.5" y="495.5" type="line"/>
      <point x="264" y="275.5" type="line"/>
      <point x="166" y="0" type="line"/>
    </contour>
  </outline>
</glyph>
<glyph name="uni043E" format="1">
  <advance width="597"/>
  <unicode hex="043E"/>
  <outline>
    <contour>
      <point x="39" y="230.5" type="curve" smooth="yes"/>
      <point x="58.5" y="377"/>
      <point x="190" y="471"/>
      <point x="343" y="471" type="curve" smooth="yes"/>
      <point x="492" y="471"/>
      <point x="602.5" y="374.5"/>
      <point x="583" y="229.5" type="curve" smooth="yes"/>
      <point x="563.5" y="83.5"/>
      <point x="432.5" y="-10"/>
      <point x="279.5" y="-10" type="curve" smooth="yes"/>
      <point x="130.5" y="-10"/>
      <point x="19.5" y="85.5"/>
    </contour>
    <contour>
      <point x="237" y="229" type="curve" smooth="yes"/>
      <point x="230.5" y="185.5"/>
      <point x="248.5" y="147"/>
      <point x="290" y="145.5" type="curve" smooth="yes"/>
      <point x="333.5" y="144"/>
      <point x="376.5" y="183"/>
      <point x="385" y="231" type="curve" smooth="yes"/>
      <point x="391.5" y="274.5"/>
      <point x="373.5" y="314"/>
      <point x="332" y="315.5" type="curve" smooth="yes"/>
      <point x="288.5" y="317"/>
      <point x="245.5" y="277"/>
    </contour>
  </outline>
</glyph>
<glyph name="uni0441" format="1">
  <advance width="484"/>
  <unicode hex="0441"/>
  <outline>
    <contour>
      <point x="237.5" y="229" type="curve" smooth="yes"/>
      <point x="228" y="176"/>
      <point x="260.5" y="141"/>
      <point x="313" y="139" type="curve" smooth="yes"/>
      <point x="360.5" y="137"/>
      <point x="407.5" y="161.5"/>
      <point x="443.5" y="196.5" type="curve"/>
      <point x="421" y="21" type="line"/>
      <point x="383.5" y="2.5"/>
      <point x="344.5" y="-10"/>
      <point x="284" y="-10" type="curve" smooth="yes"/>
      <point x="132.5" y="-10"/>
      <point x="19.5" y="84.5"/>
      <point x="39" y="230.5" type="curve" smooth="yes"/>
      <point x="59" y="378.5"/>
      <point x="192" y="469.5"/>
      <point x="348" y="470" type="curve" smooth="yes"/>
      <point x="409" y="470"/>
      <point x="448" y="456.5"/>
      <point x="486.5" y="440.5" type="curve"/>
      <point x="463" y="264" type="line"/>
      <point x="437" y="302.5"/>
      <point x="397.5" y="322"/>
      <point x="359" y="322" type="curve" smooth="yes"/>
      <point x="304" y="321.5"/>
      <point x="248" y="280"/>
    </contour>
  </outline>
</glyph>
<glyph name="uni0448" format="1">
  <advance width="845"/>
  <unicode hex="0448"/>
  <outline>
    <contour>
      <point x="514" y="155" type="line"/>
      <point x="613" y="155" type="line"/>
      <point x="666" y="460" type="line"/>
      <point x="851.5" y="460" type="line"/>
      <point x="772" y="0" type="line"/>
      <point x="18.5" y="0" type="line"/>
      <point x="97.5" y="460" type="line"/>
      <point x="282.5" y="460" type="line"/>
      <point x="229.5" y="155" type="line"/>
      <point x="329" y="155" type="line"/>
      <point x="382" y="460" type="line"/>
      <point x="567" y="460" type="line"/>
    </contour>
  </outline>
</glyph>
<glyph name="uni0449" format="1">
  <advance width="883"/>
  <unicode hex="0449"/>
  <outline>
    <contour>
      <point x="514" y="155" type="line"/>
      <point x="612" y="155" type="line"/>
      <point x="665" y="460" type="line"/>
      <point x="850.5" y="460" type="line"/>
      <point x="798" y="155" type="line"/>
      <point x="875.5" y="155" type="line"/>
      <point x="830" y="-110" type="line"/>
      <point x="644.5" y="-110" type="line"/>
      <point x="664.5" y="0" type="line"/>
      <point x="18.5" y="0" type="line"/>
      <point x="97.5" y="460" type="line"/>
      <point x="282.5" y="460" type="line"/>
      <point x="229.5" y="155" type="line"/>
      <point x="329" y="155" type="line"/>
      <point x="382" y="460" type="line"/>
      <point x="567" y="460" type="line"/>
    </contour>
  </outline>
</glyph>
<glyph name="uni044A" format="1">
  <advance width="614"/>
  <unicode hex="044A"/>
  <outline>
    <contour>
      <point x="276" y="201.5" type="line"/>
      <point x="294.5" y="315.5" type="line"/>
      <point x="426" y="316" type="line" smooth="yes"/>
      <point x="516" y="316.5"/>
      <point x="586" y="268"/>
      <point x="575" y="172.5" type="curve" smooth="yes"/>
      <point x="564" y="77"/>
      <point x="484" y="1"/>
      <point x="389.5" y="0.5" type="curve" smooth="yes"/>
      <point x="238" y="0" type="line"/>
      <point x="265.5" y="144.5" type="line"/>
      <point x="356.5" y="144.5" type="line" smooth="yes"/>
      <point x="374.5" y="144.5"/>
      <point x="393.5" y="156.5"/>
      <point x="397.5" y="174" type="curve" smooth="yes"/>
      <point x="400" y="188"/>
      <point x="390" y="201"/>
      <point x="375.5" y="201" type="curve" smooth="yes"/>
    </contour>
    <contour>
      <point x="148.5" y="305" type="line"/>
      <point x="26.5" y="305" type="line"/>
      <point x="54" y="460" type="line"/>
      <point x="350.5" y="460" type="line"/>
      <point x="271.5" y="0" type="line"/>
      <point x="96" y="0" type="line"/>
    </contour>
  </outline>
</glyph>
<glyph name="uni044B" format="1">
  <advance width="810"/>
  <unicode hex="044B"/>
  <outline>
    <contour>
      <point x="621.5" y="460" type="line"/>
      <point x="816.5" y="460" type="line"/>
      <point x="737" y="0" type="line"/>
      <point x="542" y="0" type="line"/>
    </contour>
    <contour>
      <point x="97.5" y="460" type="line"/>
      <point x="292.5" y="460" type="line"/>
      <point x="213" y="0" type="line"/>
      <point x="18" y="0" type="line"/>
    </contour>
    <contour>
      <point x="213" y="201.5" type="line"/>
      <point x="231.5" y="315.5" type="line"/>
      <point x="363" y="316" type="line" smooth="yes"/>
      <point x="453" y="316.5"/>
      <point x="523" y="268"/>
      <point x="512" y="172.5" type="curve" smooth="yes"/>
      <point x="501" y="77"/>
      <point x="421" y="1"/>
      <point x="326.5" y="0.5" type="curve" smooth="yes"/>
      <point x="175" y="0" type="line"/>
      <point x="202" y="144.5" type="line"/>
      <point x="293.5" y="144.5" type="line" smooth="yes"/>
      <point x="311.5" y="144.5"/>
      <point x="330.5" y="156.5"/>
      <point x="334.5" y="174" type="curve" smooth="yes"/>
      <point x="337" y="188"/>
      <point x="327.5" y="201"/>
      <point x="313" y="201" type="curve" smooth="yes"/>
    </contour>
  </outline>
</glyph>
<glyph name="uni044E" format="1">
  <advance width="840"/>
  <unicode hex="044E"/>
  <outline>
    <contour>
      <point x="93.5" y="175" type="line"/>
      <point x="117.5" y="310" type="line"/>
      <point x="443.5" y="310" type="line"/>
      <point x="419.5" y="175" type="line"/>
    </contour>
    <contour>
      <point x="97.5" y="460" type="line"/>
      <point x="282.5" y="460" type="line"/>
      <point x="203.5" y="0" type="line"/>
      <point x="18" y="0" type="line"/>
    </contour>
    <contour>
      <point x="281.5" y="230.5" type="curve" smooth="yes"/>
      <point x="301" y="377"/>
      <point x="432.5" y="471"/>
      <point x="585.5" y="471" type="curve" smooth="yes"/>
      <point x="734.5" y="471"/>
      <point x="845.5" y="374.5"/>
      <point x="826" y="229.5" type="curve" smooth="yes"/>
      <point x="806.5" y="83.5"/>
      <point x="675" y="-10"/>
      <point x="522" y="-10" type="curve" smooth="yes"/>
      <point x="373" y="-10"/>
      <point x="262" y="85.5"/>
    </contour>
    <contour>
      <point x="479.5" y="229" type="curve" smooth="yes"/>
      <point x="473" y="185.5"/>
      <point x="491.5" y="147"/>
      <point x="533" y="145.5" type="curve" smooth="yes"/>
      <point x="576.5" y="144"/>
      <point x="619" y="183"/>
      <point x="627.5" y="231" type="curve" smooth="yes"/>
      <point x="634" y="274.5"/>
      <point x="616" y="314"/>
      <point x="574.5" y="315.5" type="curve" smooth="yes"/>
      <point x="531" y="317"/>
      <point x="488" y="277"/>
    </contour>
  </outline>
</glyph>
<glyph name="uni044F" format="1">
  <advance width="565"/>
  <unicode hex="044F"/>
  <outline>
    <contour>
      <point x="203" y="0" type="line"/>
      <point x="-2.5" y="0" type="line"/>
      <point x="162.5" y="189.5" type="line"/>
      <point x="338.5" y="189.5" type="line"/>
    </contour>
    <contour>
      <point x="507" y="0" type="line"/>
      <point x="312.5" y="0" type="line"/>
      <point x="391.5" y="460" type="line"/>
      <point x="586.5" y="460" type="line"/>
    </contour>
    <contour>
      <point x="423" y="273.5" type="line"/>
      <point x="404" y="154.5" type="line"/>
      <point x="272.5" y="154" type="line"/>
      <point x="180" y="156"/>
      <point x="83.5" y="207.5"/>
      <point x="96.5" y="313" type="curve" smooth="yes"/>
      <point x="109" y="417"/>
      <point x="213" y="458"/>
      <point x="307.5" y="460" type="curve" smooth="yes"/>
      <point x="459" y="460" type="line"/>
      <point x="431" y="310.5" type="line"/>
      <point x="331.5" y="310.5" type="line" smooth="yes"/>
      <point x="310.5" y="310.5"/>
      <point x="283" y="309"/>
      <point x="280.5" y="292" type="curve" smooth="yes"/>
      <point x="278.5" y="277.5"/>
      <point x="296" y="274"/>
      <point x="313.5" y="274" type="curve" smooth="yes"/>
    </contour>
  </outline>
</glyph>
<glyph name="uni0450" format="1">
  <advance width="593"/>
  <unicode hex="0450"/>
  <outline>
    <contour>
      <point x="139" y="190.5" type="line"/>
      <point x="153" y="283.5" type="line"/>
      <point x="375.191" y="284.5" type="line"/>
      <point x="373.982" y="319.635"/>
      <point x="369.021" y="347.5"/>
      <point x="332" y="349.5" type="curve" smooth="yes"/>
      <point x="279" y="353"/>
      <point x="249.5" y="302.5"/>
      <point x="238.5" y="249.5" type="curve"/>
      <point x="232" y="229.5" type="line"/>
      <point x="224.5" y="168.5"/>
      <point x="238" y="125"/>
      <point x="285" y="121" type="curve" smooth="yes"/>
      <point x="327.5" y="118"/>
      <point x="363" y="138.5"/>
      <point x="385" y="164.5" type="curve"/>
      <point x="561.5" y="134.5" type="line"/>
      <point x="504" y="45.5"/>
      <point x="415" y="-10"/>
      <point x="289" y="-10" type="curve" smooth="yes"/>
      <point x="120" y="-10"/>
      <point x="19.5" y="86"/>
      <point x="39" y="230.5" type="curve" smooth="yes"/>
      <point x="41" y="247.5"/>
      <point x="44.5" y="263"/>
      <point x="49.5" y="279" type="curve" smooth="yes"/>
      <point x="86.5" y="396.5"/>
      <point x="193" y="470"/>
      <point x="343" y="470" type="curve" smooth="yes"/>
      <point x="504" y="470"/>
      <point x="591.5" y="383"/>
      <point x="575" y="238.5" type="curve" smooth="yes"/>
      <point x="573" y="226.5"/>
      <point x="570.5" y="209"/>
      <point x="567" y="190.5" type="curve"/>
    </contour>
    <contour>
      <point x="198.628" y="684" type="line"/>
      <point x="339.628" y="741.5" type="line"/>
      <point x="463.128" y="578" type="line"/>
      <point x="353.628" y="531" type="line"/>
    </contour>
  </outline>
</glyph>
<glyph name="uni0453" format="1">
  <advance width="363"/>
  <unicode hex="0453"/>
  <outline>
    <contour>
      <point x="97.5" y="460" type="line"/>
      <point x="418.5" y="460" type="line"/>
      <point x="391.5" y="305" type="line"/>
      <point x="261" y="305" type="line"/>
      <point x="208" y="0" type="line"/>
      <point x="18" y="0" type="line"/>
    </contour>
    <contour>
      <point x="471.75" y="676" type="line"/>
      <point x="277.75" y="531.5" type="line"/>
      <point x="169.25" y="586.5" type="line"/>
      <point x="336.75" y="740.5" type="line"/>
    </contour>
  </outline>
</glyph>
<glyph name="uni045D" format="1">
  <advance width="601"/>
  <unicode hex="045D"/>
  <outline>
    <contour>
      <point x="573.5" y="296" type="line"/>
      <point x="8" y="-44.5" type="line"/>
      <point x="52.5" y="164" type="line"/>
      <point x="617.5" y="504.5" type="line"/>
    </contour>
    <contour>
      <point x="282.5" y="460" type="line"/>
      <point x="223.5" y="120" type="line"/>
      <point x="8" y="-44.5" type="line"/>
      <point x="97.5" y="460" type="line"/>
    </contour>
    <contour>
      <point x="617.5" y="504.5" type="line"/>
      <point x="528.5" y="0" type="line"/>
      <point x="343.5" y="0" type="line"/>
      <point x="402.5" y="340" type="line"/>
    </contour>
    <contour>
      <point x="207.957" y="697.5" type="line"/>
      <point x="348.957" y="755" type="line"/>
      <point x="472.457" y="591.5" type="line"/>
      <point x="362.957" y="544.5" type="line"/>
    </contour>
  </outline>
</glyph>
<glyph name="uni045E" format="1">
  <advance width="488"/>
  <unicode hex="045E"/>
  <outline>
    <contour>
      <point x="623.5" y="459.5" type="line"/>
      <point x="215.5" y="-219.5" type="line"/>
      <point x="23.5" y="-219.5" type="line"/>
      <point x="169.5" y="25.5" type="line"/>
      <point x="38" y="460" type="line"/>
      <point x="240" y="460" type="line"/>
      <point x="321" y="85" type="line"/>
      <point x="216" y="85.5" type="line"/>
      <point x="426.5" y="459.5" type="line"/>
    </contour>
    <contour>
      <point x="185.386" y="680.506" type="curve"/>
      <point x="296.886" y="680.506" type="line"/>
      <point x="298.386" y="649.506"/>
      <point x="313.886" y="633.006"/>
      <point x="337.386" y="631.006" type="curve" smooth="yes"/>
      <point x="361.886" y="629.006"/>
      <point x="389.386" y="650.006"/>
      <point x="396.886" y="680.006" type="curve"/>
      <point x="513.386" y="679.506" type="line"/>
      <point x="496.886" y="593.006"/>
      <point x="432.386" y="531.506"/>
      <point x="332.386" y="531.006" type="curve" smooth="yes"/>
      <point x="232.886" y="530.506"/>
      <point x="180.886" y="592.006"/>
    </contour>
  </outline>
</glyph>
<glyph name="uni2010" format="1">
  <advance width="223"/>
  <unicode hex="2010"/>
  <outline>
    <contour>
      <point x="2" y="155" type="line"/>
      <point x="31" y="320" type="line"/>
      <point x="248" y="320" type="line"/>
      <point x="219" y="155" type="line"/>
    </contour>
  </outline>
</glyph>
<glyph name="figuredash" format="1">
  <advance width="630"/>
  <unicode hex="2012"/>
  <outline>
    <contour>
      <point x="65" y="155" type="line"/>
      <point x="94" y="320" type="line"/>
      <point x="578" y="320" type="line"/>
      <point x="549" y="155" type="line"/>
    </contour>
  </outline>
</glyph>
<glyph name="emdash" format="1">
  <advance width="941"/>
  <unicode hex="2014"/>
  <outline>
    <contour>
      <point x="65" y="155" type="line"/>
      <point x="94" y="320" type="line"/>
      <point x="898" y="320" type="line"/>
      <point x="869" y="155" type="line"/>
    </contour>
  </outline>
</glyph>
<glyph name="quotesinglbase" format="1">
  <advance width="354"/>
  <unicode hex="201A"/>
  <outline>
    <contour>
      <point x="91" y="80" type="line"/>
      <point x="286.5" y="79.5" type="line"/>
      <point x="137.5" y="-189.5" type="line"/>
      <point x="-4.5" y="-189.5" type="line"/>
    </contour>
  </outline>
</glyph>
<glyph name="quotedblright" format="1">
  <advance width="596"/>
  <unicode hex="201D"/>
  <outline>
    <contour>
      <point x="187" y="700" type="line"/>
      <point x="383" y="699.5" type="line"/>
      <point x="234" y="430.5" type="line"/>
      <point x="91.5" y="430.5" type="line"/>
    </contour>
    <contour>
      <point x="430" y="700" type="line"/>
      <point x="625.5" y="699.5" type="line"/>
      <point x="476.5" y="430.5" type="line"/>
      <point x="334" y="430.5" type="line"/>
    </contour>
  </outline>
</glyph>
<glyph name="quotedblbase" format="1">
  <advance width="596"/>
  <unicode hex="201E"/>
  <outline>
    <contour>
      <point x="86" y="80" type="line"/>
      <point x="282" y="79.5" type="line"/>
      <point x="133" y="-189.5" type="line"/>
      <point x="-9.5" y="-189.5" type="line"/>
    </contour>
    <contour>
      <point x="329" y="80" type="line"/>
      <point x="524.5" y="79.5" type="line"/>
      <point x="375.5" y="-189.5" type="line"/>
      <point x="233" y="-189.5" type="line"/>
    </contour>
  </outline>
</glyph>
<glyph name="dagger" format="1">
  <advance width="650"/>
  <unicode hex="2020"/>
  <outline>
    <contour>
      <point x="152" y="540" type="line"/>
      <point x="631" y="540" type="line"/>
      <point x="606" y="385" type="line"/>
      <point x="127.5" y="385" type="line"/>
    </contour>
    <contour>
      <point x="327" y="700" type="line"/>
      <point x="505" y="700" type="line"/>
      <point x="373.5" y="-150" type="line"/>
      <point x="195.5" y="-150" type="line"/>
    </contour>
  </outline>
</glyph>
<glyph name="uni203D" format="1">
  <advance width="649"/>
  <unicode hex="203D"/>
  <outline>
    <contour>
      <point x="484.5" y="470.5" type="curve" smooth="yes"/>
      <point x="496" y="533.5"/>
      <point x="450.5" y="564"/>
      <point x="384.5" y="564.5" type="curve" smooth="yes"/>
      <point x="320.5" y="565.5"/>
      <point x="258.5" y="535.5"/>
      <point x="219" y="476.5" type="curve"/>
      <point x="110.5" y="589" type="line"/>
      <point x="175.5" y="664"/>
      <point x="295.5" y="723.5"/>
      <point x="419" y="723" type="curve" smooth="yes"/>
      <point x="549.5" y="722.5"/>
      <point x="680.5" y="642"/>
      <point x="660.5" y="499.5" type="curve" smooth="yes"/>
      <point x="637" y="335.5"/>
      <point x="448.5" y="274.5"/>
      <point x="316.5" y="270.5" type="curve"/>
      <point x="327.5" y="349.5" type="line"/>
      <point x="392.5" y="356"/>
      <point x="471" y="396.5"/>
    </contour>
    <contour>
      <point x="276" y="500" type="line"/>
      <point x="446.5" y="499.5" type="line"/>
      <point x="366.5" y="220" type="line"/>
      <point x="258" y="220" type="line"/>
    </contour>
    <contour>
      <point x="178.5" y="76" type="curve" smooth="yes"/>
      <point x="186.5" y="135.5"/>
      <point x="245" y="179.5"/>
      <point x="309.5" y="179.5" type="curve" smooth="yes"/>
      <point x="374" y="179.5"/>
      <point x="422" y="134"/>
      <point x="414" y="74" type="curve" smooth="yes"/>
      <point x="406" y="14.5"/>
      <point x="347.5" y="-29.5"/>
      <point x="283" y="-29.5" type="curve" smooth="yes"/>
      <point x="218.5" y="-29.5"/>
      <point x="170.5" y="16"/>
    </contour>
  </outline>
</glyph>
<glyph name="uni2075" format="1">
  <advance width="394"/>
  <unicode hex="2075"/>
  <outline>
    <contour>
      <point x="415" y="409.5" type="curve" smooth="yes"/>
      <point x="402" y="314"/>
      <point x="301.5" y="270.5"/>
      <point x="217.5" y="269.5" type="curve" smooth="yes"/>
      <point x="149.5" y="268.5"/>
      <point x="93.5" y="285"/>
      <point x="43.5" y="304.5" type="curve"/>
      <point x="95.5" y="419" type="line"/>
      <point x="131" y="399.5"/>
      <point x="165.5" y="389"/>
      <point x="193" y="389" type="curve" smooth="yes"/>
      <point x="228" y="389"/>
      <point x="273.5" y="397"/>
      <point x="276" y="429.5" type="curve" smooth="yes"/>
      <point x="278" y="458.5"/>
      <point x="240" y="463.5"/>
      <point x="214.5" y="464" type="curve" smooth="yes"/>
      <point x="178.5" y="465.5"/>
      <point x="130" y="458"/>
      <point x="87" y="445.5" type="curve"/>
      <point x="183" y="501.5" type="line"/>
      <point x="219.5" y="530.5"/>
      <point x="259" y="546"/>
      <point x="306" y="545" type="curve" smooth="yes"/>
      <point x="374.5" y="543"/>
      <point x="424.5" y="488"/>
    </contour>
    <contour>
      <point x="266" y="583.5" type="line"/>
      <point x="212.5" y="491" type="line"/>
      <point x="80.5" y="440.5" type="line"/>
      <point x="185.5" y="697.5" type="line"/>
      <point x="452.5" y="698" type="line"/>
      <point x="432" y="584" type="line"/>
    </contour>
  </outline>
</glyph>
<glyph name="uni2080" format="1">
  <advance width="390"/>
  <unicode hex="2080"/>
  <outline>
    <contour>
      <point x="146" y="209.5" type="curve" smooth="yes"/>
      <point x="141" y="163"/>
      <point x="141" y="105.5"/>
      <point x="181" y="102.5" type="curve" smooth="yes"/>
      <point x="222.5" y="99.5"/>
      <point x="254.5" y="159"/>
      <point x="261.5" y="210.5" type="curve" smooth="yes"/>
      <point x="266.5" y="257"/>
      <point x="266.5" y="314.5"/>
      <point x="226.5" y="317.5" type="curve" smooth="yes"/>
      <point x="185" y="320.5"/>
      <point x="153" y="261"/>
    </contour>
    <contour>
      <point x="21.5" y="210.5" type="curve" smooth="yes"/>
      <point x="37.5" y="335.5"/>
      <point x="120" y="429"/>
      <point x="235.5" y="429" type="curve" smooth="yes"/>
      <point x="356.5" y="429"/>
      <point x="401" y="330.5"/>
      <point x="386" y="209.5" type="curve" smooth="yes"/>
      <point x="369.5" y="84"/>
      <point x="291.5" y="-9"/>
      <point x="172" y="-9" type="curve" smooth="yes"/>
      <point x="55" y="-9"/>
      <point x="6.5" y="90"/>
    </contour>
  </outline>
</glyph>
<glyph name="uni2082" format="1">
  <advance width="436"/>
  <unicode hex="2082"/>
  <outline>
    <contour>
      <point x="-3" y="2.5" type="line"/>
      <point x="205" y="185" type="line" smooth="yes"/>
      <point x="239.5" y="217"/>
      <point x="278.5" y="244"/>
      <point x="284" y="281.5" type="curve" smooth="yes"/>
      <point x="286" y="300"/>
      <point x="277.5" y="319.5"/>
      <point x="252.5" y="320.5" type="curve" smooth="yes"/>
      <point x="221" y="322.5"/>
      <point x="199.5" y="288.5"/>
      <point x="192.5" y="260" type="curve"/>
      <point x="64" y="261" type="line"/>
      <point x="82.5" y="352"/>
      <point x="151.5" y="431.5"/>
      <point x="266" y="431.5" type="curve" smooth="yes"/>
      <point x="361" y="431.5"/>
      <point x="431" y="369"/>
      <point x="419" y="290.5" type="curve" smooth="yes"/>
      <point x="412.5" y="244"/>
      <point x="380.5" y="208.5"/>
      <point x="342.5" y="180.5" type="curve" smooth="yes"/>
      <point x="259" y="122.5" type="line"/>
      <point x="405" y="121.5" type="line"/>
      <point x="384" y="2" type="line"/>
    </contour>
  </outline>
</glyph>
<glyph name="uni2084" format="1">
  <advance width="445"/>
  <unicode hex="2084"/>
  <outline>
    <contour>
      <point x="-16" y="69.5" type="line"/>
      <point x="104.5" y="158.5" type="line"/>
      <point x="286" y="159" type="line"/>
      <point x="300" y="180" type="line"/>
      <point x="423" y="180" type="line"/>
      <point x="403" y="69" type="line"/>
    </contour>
    <contour>
      <point x="129.5" y="116.5" type="line"/>
      <point x="-21.5" y="64.5" type="line"/>
      <point x="288.5" y="419.5" type="line"/>
      <point x="400" y="420" type="line"/>
      <point x="327.5" y="0" type="line"/>
      <point x="189.5" y="0" type="line"/>
      <point x="205" y="90.5" type="line"/>
      <point x="223.5" y="96.5" type="line"/>
      <point x="249" y="243.5" type="line"/>
    </contour>
  </outline>
</glyph>
<glyph name="uni2085" format="1">
  <advance width="407"/>
  <unicode hex="2085"/>
  <outline>
    <contour>
      <point x="372" y="129.5" type="curve" smooth="yes"/>
      <point x="359" y="34"/>
      <point x="258.5" y="-9.5"/>
      <point x="174.5" y="-10.5" type="curve" smooth="yes"/>
      <point x="106.5" y="-11.5"/>
      <point x="50.5" y="5"/>
      <point x="0.5" y="24.5" type="curve"/>
      <point x="53" y="139" type="line"/>
      <point x="88.5" y="119.5"/>
      <point x="122.5" y="109"/>
      <point x="150" y="109" type="curve" smooth="yes"/>
      <point x="185" y="109"/>
      <point x="230.5" y="117"/>
      <point x="233" y="149.5" type="curve" smooth="yes"/>
      <point x="235" y="178.5"/>
      <point x="197" y="183.5"/>
      <point x="171.5" y="184" type="curve" smooth="yes"/>
      <point x="135.5" y="185.5"/>
      <point x="87" y="178"/>
      <point x="44" y="165.5" type="curve"/>
      <point x="140" y="221.5" type="line"/>
      <point x="176.5" y="250.5"/>
      <point x="216" y="266"/>
      <point x="263" y="265" type="curve" smooth="yes"/>
      <point x="331.5" y="263"/>
      <point x="381.5" y="208"/>
    </contour>
    <contour>
      <point x="223" y="303.5" type="line"/>
      <point x="169.5" y="211" type="line"/>
      <point x="37.5" y="160.5" type="line"/>
      <point x="142.5" y="417.5" type="line"/>
      <point x="409.5" y="418" type="line"/>
      <point x="389" y="304" type="line"/>
    </contour>
  </outline>
</glyph>
<glyph name="uni2086" format="1">
  <advance width="411"/>
  <unicode hex="2086"/>
  <outline>
    <contour>
      <point x="145" y="150" type="curve" smooth="yes"/>
      <point x="141.5" y="121.5"/>
      <point x="159" y="99"/>
      <point x="188" y="97.5" type="curve" smooth="yes"/>
      <point x="218.5" y="95.5"/>
      <point x="251" y="122"/>
      <point x="255" y="152" type="curve" smooth="yes"/>
      <point x="258.5" y="180.5"/>
      <point x="242.5" y="203.5"/>
      <point x="213.5" y="205.5" type="curve" smooth="yes"/>
      <point x="183" y="207.5"/>
      <point x="149" y="180"/>
    </contour>
    <contour>
      <point x="224.5" y="414.5" type="line"/>
      <point x="397" y="414.5" type="line"/>
      <point x="238" y="278.5" type="line"/>
      <point x="201.5" y="262" type="line"/>
      <point x="225" y="279"/>
      <point x="242.5" y="286.5"/>
      <point x="271" y="287" type="curve" smooth="yes"/>
      <point x="338" y="288.5"/>
      <point x="393" y="227.5"/>
      <point x="384.5" y="150.5" type="curve" smooth="yes"/>
      <point x="372" y="45"/>
      <point x="278" y="-13.5"/>
      <point x="178" y="-13.5" type="curve" smooth="yes"/>
      <point x="79" y="-13.5"/>
      <point x="2" y="46.5"/>
      <point x="16.5" y="151.5" type="curve" smooth="yes"/>
      <point x="24.5" y="204.5"/>
      <point x="60" y="247"/>
      <point x="97" y="286" type="curve" smooth="yes"/>
    </contour>
  </outline>
</glyph>
<glyph name="uni2088" format="1">
  <advance width="384"/>
  <unicode hex="2088"/>
  <outline>
    <contour>
      <point x="65" y="320" type="curve" smooth="yes"/>
      <point x="75" y="396"/>
      <point x="156" y="431.5"/>
      <point x="233.5" y="431.5" type="curve" smooth="yes"/>
      <point x="308.5" y="431.5"/>
      <point x="385" y="396"/>
      <point x="374" y="318" type="curve" smooth="yes"/>
      <point x="364" y="239.5"/>
      <point x="275" y="201.5"/>
      <point x="204.5" y="201.5" type="curve" smooth="yes"/>
      <point x="136.5" y="201.5"/>
      <point x="55" y="240"/>
    </contour>
    <contour>
      <point x="184.5" y="306" type="curve" smooth="yes"/>
      <point x="182.5" y="289.5"/>
      <point x="189.5" y="271"/>
      <point x="208" y="270" type="curve" smooth="yes"/>
      <point x="227.5" y="269"/>
      <point x="248" y="289.5"/>
      <point x="250.5" y="308" type="curve" smooth="yes"/>
      <point x="252.5" y="325"/>
      <point x="244.5" y="341"/>
      <point x="226.5" y="342" type="curve" smooth="yes"/>
      <point x="207" y="343"/>
      <point x="187.5" y="324.5"/>
    </contour>
    <contour>
      <point x="15.5" y="115" type="curve" smooth="yes"/>
      <point x="26.5" y="203.5"/>
      <point x="127" y="239.5"/>
      <point x="200.5" y="239.5" type="curve" smooth="yes"/>
      <point x="271.5" y="239.5"/>
      <point x="365" y="203"/>
      <point x="353.5" y="113" type="curve" smooth="yes"/>
      <point x="342.5" y="31"/>
      <point x="251" y="-11.5"/>
      <point x="168.5" y="-11.5" type="curve" smooth="yes"/>
      <point x="89" y="-11.5"/>
      <point x="4" y="31.5"/>
    </contour>
    <contour>
      <point x="149.5" y="134" type="curve" smooth="yes"/>
      <point x="146.5" y="113"/>
      <point x="156.5" y="94"/>
      <point x="178" y="93" type="curve" smooth="yes"/>
      <point x="200.5" y="92"/>
      <point x="224" y="113"/>
      <point x="227" y="136" type="curve" smooth="yes"/>
      <point x="229.5" y="154"/>
      <point x="218.5" y="173"/>
      <point x="198" y="174" type="curve" smooth="yes"/>
      <point x="176" y="175"/>
      <point x="153" y="153.5"/>
    </contour>
  </outline>
</glyph>
